<svg width="839" height="1024" viewBox="0 0 839 1024" fill="none" xmlns="http://www.w3.org/2000/svg">
<path d="M41.7761 881.851C224.158 967.86 519.842 967.886 702.224 881.851C884.605 795.817 884.579 656.38 702.224 570.371C519.869 484.363 224.158 484.363 41.7761 570.371C-140.605 656.38 -140.579 795.843 41.7761 881.851Z" fill="#F5F5F5"/>
<rect width="642" height="1024" fill="#2F3C33"/>
<path d="M701.589 818.288C735.179 818.288 762.409 805.448 762.409 789.61C762.409 773.771 735.179 760.931 701.589 760.931C667.999 760.931 640.768 773.771 640.768 789.61C640.768 805.448 667.999 818.288 701.589 818.288Z" fill="#EBEBEB"/>
<path d="M27.934 793.722L49.4514 781.438C61.4651 771.737 70.6091 759.006 75.918 744.589C82.5611 726.465 81.6348 712.689 76.8708 705.775C71.0217 697.263 55.8563 698.756 55.2476 716.67C53.9772 751.974 43.5758 776.462 27.934 793.722Z" fill="#84CC16"/>
<path opacity="0.2" d="M27.934 793.722L49.4514 781.438C61.4651 771.737 70.6091 759.006 75.918 744.589C82.5611 726.465 81.6348 712.689 76.8708 705.775C71.0217 697.263 55.8563 698.756 55.2476 716.67C53.9772 751.974 43.5758 776.462 27.934 793.722Z" fill="black"/>
<path d="M27.9341 795.031C27.6539 795.028 27.382 794.936 27.1576 794.77C26.9332 794.604 26.7679 794.372 26.6855 794.107C26.6031 793.842 26.6078 793.558 26.699 793.296C26.7902 793.033 26.9632 792.806 27.193 792.648C76.9502 758.601 67.3164 711.118 67.2105 710.646C67.174 710.474 67.1721 710.297 67.2049 710.124C67.2377 709.951 67.3045 709.787 67.4016 709.64C67.4987 709.493 67.6241 709.366 67.7707 709.267C67.9173 709.167 68.0822 709.098 68.2559 709.062C68.4297 709.026 68.609 709.024 68.7835 709.056C68.9581 709.089 69.1244 709.155 69.2731 709.251C69.4218 709.347 69.5499 709.471 69.6501 709.616C69.7503 709.761 69.8207 709.924 69.8572 710.096C69.8572 710.594 80.0204 759.701 28.781 794.795C28.5324 794.964 28.2348 795.046 27.9341 795.031Z" fill="white"/>
<path d="M-15.1801 818.367C-15.1801 818.367 -22.6701 812.343 -20.8704 804.171C-19.0707 796 -14.2273 790.134 -22.5113 779.605C-30.7954 769.077 -33.098 755.039 -23.1995 747.443C-15.6565 741.551 -3.87883 749.879 0.355831 734.348C3.47889 722.982 2.42022 697.813 17.0563 689.432C31.6923 681.051 40.8762 693.675 38.5736 710.751C36.5621 726.02 33.7037 740.713 35.9269 744.798C40.2145 752.655 47.5458 751.582 47.2017 765.934C46.9106 779.291 34.1272 790.343 34.1272 790.343L-15.1801 818.367Z" fill="#84CC16"/>
<path d="M9.40739 805.56C9.08386 805.556 8.77227 805.438 8.52938 805.227C8.28649 805.015 8.12845 804.724 8.08406 804.407C4.29933 773.372 13.3774 719.787 20.788 703.863C20.8504 703.686 20.9503 703.525 21.0811 703.39C21.2118 703.255 21.3702 703.149 21.5458 703.079C21.7213 703.01 21.9099 702.978 22.0988 702.987C22.2876 702.996 22.4724 703.044 22.6407 703.13C22.7987 703.2 22.9408 703.301 23.0587 703.427C23.1766 703.552 23.2678 703.7 23.327 703.861C23.3862 704.022 23.4122 704.194 23.4034 704.365C23.3946 704.536 23.3513 704.704 23.2759 704.858C15.9446 720.572 7.18419 774.315 10.8101 803.988C10.8473 804.332 10.7458 804.676 10.5277 804.946C10.3095 805.216 9.99247 805.389 9.64558 805.429L9.40739 805.56Z" fill="white"/>
<path d="M8.69279 781.386C8.49026 781.396 8.28891 781.351 8.11052 781.255C-1.07339 776.829 -6.89605 761.036 -7.13425 760.303C-7.19911 760.14 -7.23031 759.966 -7.22598 759.791C-7.22166 759.616 -7.18191 759.444 -7.10909 759.284C-7.03627 759.124 -6.93185 758.981 -6.802 758.862C-6.67216 758.743 -6.51955 758.651 -6.35317 758.591C-6.18678 758.532 -6.01002 758.506 -5.83333 758.515C-5.65665 758.524 -5.48361 758.569 -5.32448 758.645C-5.16536 758.722 -5.02336 758.829 -4.90689 758.961C-4.79041 759.093 -4.70183 759.246 -4.64638 759.412C-4.64638 759.57 1.04392 774.865 9.27504 778.819C9.54505 778.949 9.76262 779.165 9.89206 779.433C10.0215 779.701 10.0551 780.004 9.98745 780.293C9.91976 780.583 9.75478 780.841 9.51955 781.025C9.28431 781.209 8.99279 781.309 8.69279 781.308V781.386Z" fill="white"/>
<path d="M8.534 791.862C8.26882 791.862 8.00994 791.782 7.79225 791.632C7.57457 791.482 7.40854 791.27 7.31654 791.024C7.18484 790.704 7.18605 790.346 7.31987 790.027C7.4537 789.709 7.70933 789.455 8.03115 789.322C23.4876 783.193 33.1215 764.991 33.2274 764.781C33.3888 764.472 33.6677 764.239 34.0027 764.134C34.3378 764.028 34.7015 764.059 35.0139 764.218C35.3262 764.378 35.5616 764.654 35.6684 764.986C35.7751 765.317 35.7443 765.677 35.5829 765.986C35.1594 766.772 25.3932 785.262 9.11627 791.757C8.93491 791.842 8.73403 791.879 8.534 791.862Z" fill="white"/>
<path d="M548.797 650.959C548.797 650.959 537.231 632.416 536.093 612.276C534.955 592.135 539.428 583.755 545.568 581.345C551.708 578.936 552.185 586.347 555.334 590.721C558.484 595.095 564.915 592.607 567.297 578.962C569.679 565.317 578.36 542.295 596.41 537.817C616.26 532.946 605.621 555.993 600.619 564.976C595.616 573.959 591.752 586.216 595.034 589.543C598.316 592.869 603.424 586.714 608.267 592.424C614.169 599.312 595.828 624.114 585.294 630.111L548.797 650.959Z" fill="#84CC16"/>
<path d="M564.65 643.18C564.477 643.173 564.306 643.133 564.148 643.061C563.99 642.989 563.848 642.886 563.73 642.76C563.612 642.633 563.52 642.485 563.46 642.324C563.4 642.162 563.373 641.99 563.38 641.818C565.172 609.42 575.382 578.027 593.023 550.676C593.123 550.534 593.251 550.413 593.399 550.321C593.548 550.229 593.713 550.167 593.887 550.14C594.06 550.113 594.237 550.121 594.407 550.164C594.576 550.207 594.736 550.283 594.875 550.388C595.153 550.592 595.338 550.895 595.393 551.233C595.447 551.571 595.366 551.916 595.166 552.195C577.841 579.146 567.815 610.055 566.053 641.949C566.043 642.121 565.999 642.29 565.923 642.445C565.847 642.6 565.74 642.739 565.61 642.853C565.48 642.967 565.328 643.055 565.163 643.111C564.998 643.167 564.824 643.191 564.65 643.18Z" fill="white"/>
<path d="M566.159 627.702C565.938 627.7 565.72 627.646 565.524 627.545C558.113 623.485 554.011 611.438 553.852 610.94C553.794 610.777 553.769 610.604 553.778 610.431C553.788 610.258 553.832 610.088 553.909 609.932C553.985 609.777 554.092 609.637 554.223 609.522C554.354 609.408 554.507 609.32 554.672 609.264C555.006 609.156 555.369 609.184 555.681 609.342C555.994 609.499 556.231 609.772 556.34 610.102C556.34 610.102 560.31 621.704 566.927 625.24C567.226 625.415 567.446 625.698 567.54 626.03C567.633 626.362 567.594 626.717 567.429 627.021C567.31 627.246 567.125 627.431 566.899 627.553C566.673 627.674 566.415 627.726 566.159 627.702Z" fill="white"/>
<path d="M567.456 619.766C567.163 619.763 566.879 619.664 566.649 619.483C566.419 619.303 566.256 619.053 566.185 618.771C566.142 618.606 566.132 618.434 566.157 618.265C566.181 618.096 566.24 617.934 566.328 617.787C566.417 617.641 566.534 617.514 566.674 617.413C566.813 617.312 566.971 617.239 567.138 617.2C586.247 612.407 592.864 602.507 592.917 602.402C593.011 602.256 593.133 602.129 593.276 602.03C593.419 601.93 593.581 601.86 593.751 601.822C593.922 601.784 594.099 601.78 594.271 601.81C594.444 601.84 594.608 601.903 594.756 601.996C594.904 602.089 595.032 602.21 595.132 602.352C595.233 602.493 595.304 602.653 595.342 602.822C595.38 602.991 595.384 603.166 595.354 603.337C595.324 603.507 595.26 603.67 595.166 603.816C594.875 604.262 587.994 614.659 567.8 619.74L567.456 619.766Z" fill="white"/>
<path d="M260.84 610.259C260.84 610.259 235.459 604.131 234.135 557.093C232.733 506.336 240.355 447.094 210.315 442.301C180.276 437.509 163.602 473.73 163.972 516.027C164.316 553.06 179.402 633.464 260.734 649.23L260.84 610.259Z" fill="#84CC16"/>
<path opacity="0.2" d="M260.84 610.259C260.84 610.259 235.459 604.131 234.135 557.093C232.733 506.336 240.355 447.094 210.315 442.301C180.276 437.509 163.602 473.73 163.972 516.027C164.316 553.06 179.402 633.464 260.734 649.23L260.84 610.259Z" fill="black"/>
<path d="M260.84 644.411H260.602C242.314 641.111 227.413 631.133 216.323 614.79C183.452 566.26 193.8 475.641 197.214 459.823C197.291 459.486 197.496 459.191 197.787 459C198.078 458.81 198.433 458.739 198.776 458.801C199.119 458.883 199.417 459.091 199.609 459.383C199.801 459.676 199.872 460.03 199.808 460.373C196.447 476.087 186.151 565.552 218.52 613.323C223.232 620.732 229.448 627.09 236.774 631.995C244.1 636.901 252.377 640.246 261.078 641.818C261.251 641.85 261.416 641.915 261.563 642.01C261.71 642.105 261.836 642.228 261.935 642.371C262.033 642.515 262.102 642.677 262.137 642.847C262.171 643.018 262.172 643.193 262.137 643.364C262.081 643.662 261.92 643.93 261.682 644.122C261.445 644.314 261.147 644.416 260.84 644.411Z" fill="white"/>
<path d="M260.84 765.122C234.612 768.631 192.027 768.579 167.44 749.408C142.852 730.237 147.987 713.737 157.435 706.849C166.884 699.961 175.088 692.104 158.838 676.809C142.587 661.513 116.491 636.947 108.022 600.097C99.5526 563.248 103.734 540.2 120.355 532.527C136.474 525.089 140.735 536.926 150.607 561.336C160.479 585.745 182.684 564.819 201.687 572.44C220.69 580.062 219.923 595.147 221.114 608.112C222.305 621.076 228.577 624.664 239.349 624.664C250.121 624.664 260.84 630.792 260.84 642.997V765.122Z" fill="#84CC16"/>
<path d="M260.84 722.327C260.727 722.352 260.609 722.352 260.496 722.327C259.358 722.013 232.23 714.208 192.715 678.301C150.633 640.064 130.783 582.707 130.572 582.131C130.47 581.801 130.502 581.445 130.659 581.137C130.817 580.83 131.089 580.595 131.419 580.481C131.748 580.372 132.108 580.397 132.42 580.549C132.732 580.7 132.972 580.968 133.086 581.293C133.271 581.869 152.936 638.597 194.515 676.363C233.474 711.799 260.92 719.734 261.211 719.813C261.378 719.861 261.533 719.941 261.669 720.049C261.804 720.157 261.917 720.29 262.001 720.44C262.084 720.591 262.137 720.757 262.156 720.928C262.175 721.099 262.159 721.272 262.111 721.437C262.025 721.701 261.855 721.931 261.625 722.092C261.396 722.252 261.121 722.335 260.84 722.327Z" fill="white"/>
<path d="M203.752 687.415C203.486 687.42 203.225 687.341 203.007 687.191C202.788 687.04 202.623 686.826 202.534 686.577C194.038 664.997 192.106 618.823 191.948 616.859C191.94 616.514 192.068 616.179 192.305 615.925C192.542 615.671 192.869 615.517 193.218 615.497C193.564 615.502 193.895 615.633 194.149 615.865C194.403 616.097 194.562 616.414 194.594 616.754C194.594 617.226 196.579 664.447 204.916 685.635C204.98 685.796 205.011 685.969 205.007 686.142C205.002 686.315 204.964 686.486 204.892 686.645C204.821 686.803 204.718 686.946 204.591 687.065C204.463 687.183 204.313 687.276 204.149 687.337C204.021 687.382 203.887 687.409 203.752 687.415Z" fill="white"/>
<path d="M203.54 718.451C201.1 718.47 198.661 718.347 196.235 718.084C196.061 718.064 195.893 718.009 195.741 717.924C195.588 717.84 195.454 717.726 195.346 717.59C195.238 717.453 195.158 717.297 195.111 717.131C195.063 716.964 195.05 716.79 195.071 716.618C195.092 716.446 195.146 716.279 195.232 716.128C195.318 715.977 195.433 715.845 195.571 715.738C195.708 715.631 195.866 715.552 196.034 715.505C196.203 715.458 196.379 715.445 196.553 715.465C196.791 715.465 221.431 718.241 232.733 706.849C232.85 706.711 232.995 706.599 233.159 706.519C233.323 706.439 233.501 706.394 233.683 706.386C233.865 706.377 234.047 706.406 234.218 706.471C234.388 706.536 234.543 706.634 234.673 706.761C234.803 706.888 234.905 707.04 234.972 707.207C235.04 707.375 235.072 707.554 235.066 707.735C235.061 707.915 235.017 708.092 234.939 708.255C234.861 708.418 234.749 708.564 234.612 708.682C226.434 717.037 212.168 718.451 203.54 718.451Z" fill="white"/>
<path d="M286.989 800.164L535.775 658.004C536.323 657.813 536.798 657.459 537.134 656.99C537.47 656.521 537.65 655.96 537.65 655.385C537.65 654.81 537.47 654.249 537.134 653.78C536.798 653.311 536.323 652.956 535.775 652.766L512.776 639.671C511.351 638.961 509.779 638.592 508.184 638.592C506.589 638.592 505.017 638.961 503.592 639.671L254.726 781.7C254.178 781.891 253.704 782.245 253.368 782.714C253.032 783.184 252.851 783.744 252.851 784.319C252.851 784.894 253.032 785.455 253.368 785.924C253.704 786.393 254.178 786.748 254.726 786.938L277.805 800.033C279.22 800.763 280.787 801.155 282.382 801.178C283.976 801.201 285.554 800.853 286.989 800.164Z" fill="#E0E0E0"/>
<path d="M528.947 109.136L304.616 237.31C301.281 239.464 298.506 242.365 296.515 245.777C294.524 249.19 293.373 253.018 293.156 256.953V783.56C293.156 790.788 298.29 793.722 304.616 790.107L528.947 661.932C532.286 659.783 535.065 656.884 537.056 653.47C539.048 650.057 540.196 646.226 540.407 642.29V115.683C540.407 108.455 535.299 105.521 528.947 109.136Z" fill="#455A64"/>
<path d="M304.616 237.31L528.947 109.135C534.611 105.888 539.295 107.905 540.248 113.535C539.719 109.995 538.438 106.606 536.491 103.591C534.543 100.575 531.972 98.002 528.947 96.0404L519.631 90.8023C516.079 89.0193 512.153 88.0901 508.171 88.0901C504.188 88.0901 500.262 89.0193 496.711 90.8023L272.353 218.872C268.974 220.969 266.188 223.88 264.254 227.332L296.517 245.665C298.45 242.24 301.238 239.363 304.616 237.31Z" fill="#37474F"/>
<path d="M260.84 765.122C261.057 769.057 262.208 772.885 264.199 776.298C266.19 779.71 268.965 782.611 272.3 784.765L281.643 790.003C284.877 791.603 288.415 792.51 292.028 792.664C295.64 792.817 299.244 792.214 302.605 790.893C297.311 792.936 293.103 789.924 293.103 783.455V256.953C293.236 253.002 294.393 249.151 296.464 245.77L264.201 227.437C262.159 230.792 261.003 234.602 260.84 238.515V765.122Z" fill="#263238"/>
<path d="M310.783 307.474L522.86 186.344C526.671 184.197 529.741 185.952 529.741 190.273V580.036C529.614 582.398 528.924 584.697 527.728 586.745C526.532 588.793 524.864 590.533 522.86 591.821L310.862 712.951C307.051 715.125 303.981 713.37 303.981 709.023V319.26C304.101 316.905 304.78 314.611 305.961 312.564C307.143 310.517 308.794 308.773 310.783 307.474Z" fill="white"/>
<path d="M416.782 193.18C415.611 193.94 414.637 194.962 413.938 196.163C413.24 197.364 412.835 198.71 412.759 200.094C412.759 202.713 414.558 203.682 416.782 202.399C417.957 201.643 418.934 200.622 419.633 199.42C420.332 198.219 420.734 196.87 420.804 195.485C420.804 192.944 419.005 191.923 416.782 193.18Z" fill="#37474F"/>
<path d="M416.782 671.02C412.155 674.016 408.306 678.047 405.547 682.788C402.788 687.53 401.197 692.847 400.902 698.311C400.902 708.341 408.021 712.427 416.782 707.399C421.407 704.402 425.254 700.37 428.013 695.629C430.772 690.888 432.364 685.571 432.661 680.108C432.714 670.078 425.568 665.992 416.782 671.02Z" fill="#37474F"/>
<path d="M378.696 233.722C376.37 235.25 374.439 237.298 373.06 239.7C371.681 242.102 370.892 244.791 370.756 247.551C370.756 252.632 374.356 254.701 378.696 252.16C381.047 250.647 383.003 248.606 384.406 246.203C385.808 243.8 386.618 241.103 386.768 238.332C386.768 233.251 383.169 231.182 378.696 233.722Z" fill="#37474F"/>
<path d="M398.467 231.994C398.467 235.399 401.113 236.682 404.21 234.875L457.143 204.573C458.783 203.559 460.158 202.177 461.156 200.539C462.154 198.901 462.747 197.052 462.886 195.144C462.886 191.766 460.24 190.482 457.143 192.29L404.21 222.592C402.574 223.602 401.201 224.98 400.203 226.614C399.205 228.247 398.61 230.091 398.467 231.994Z" fill="#37474F"/>
<path d="M278.732 324.341C280.61 325.551 282.173 327.183 283.295 329.103C284.417 331.023 285.066 333.178 285.19 335.393C285.19 339.478 282.305 341.128 278.732 339.086C276.86 337.871 275.303 336.237 274.186 334.318C273.068 332.398 272.423 330.245 272.3 328.033C272.3 323.974 275.185 322.324 278.732 324.341Z" fill="#37474F"/>
<path d="M278.732 373.526C280.61 374.736 282.173 376.368 283.295 378.288C284.417 380.208 285.066 382.363 285.19 384.578C285.19 388.637 282.305 390.287 278.732 388.271C276.86 387.056 275.303 385.422 274.186 383.503C273.068 381.583 272.423 379.43 272.3 377.218C272.3 373.133 275.185 371.483 278.732 373.526Z" fill="#37474F"/>
<path d="M276.72 325.336C278.598 326.547 280.162 328.178 281.284 330.098C282.406 332.019 283.055 334.173 283.178 336.388C283.178 340.448 280.293 342.098 276.72 340.081C274.842 338.87 273.278 337.239 272.156 335.319C271.035 333.398 270.386 331.243 270.262 329.029C270.289 324.943 273.174 323.372 276.72 325.336Z" fill="#455A64"/>
<path d="M276.72 374.495C278.602 375.708 280.168 377.344 281.29 379.269C282.412 381.194 283.059 383.354 283.178 385.573C283.178 389.633 280.293 391.283 276.72 389.24C274.838 388.034 273.271 386.403 272.148 384.482C271.026 382.561 270.379 380.404 270.262 378.188C270.289 374.128 273.174 372.478 276.72 374.495Z" fill="#455A64"/>
<path d="M572.67 202.608C572.67 198.261 569.6 196.506 565.789 198.68L540.407 213.163L353.791 319.81C351.786 321.098 350.118 322.838 348.922 324.886C347.726 326.934 347.037 329.233 346.91 331.595V721.253C346.91 725.601 349.98 727.356 353.791 725.182L540.486 618.509L565.789 604.052C567.793 602.763 569.461 601.024 570.657 598.976C571.853 596.928 572.543 594.629 572.67 592.267V202.608Z" fill="white"/>
<path d="M575.316 202.608C575.483 201.295 575.255 199.962 574.66 198.777C574.065 197.591 573.13 196.605 571.972 195.943C570.813 195.28 569.484 194.971 568.148 195.052C566.813 195.134 565.532 195.603 564.465 196.401L540.248 210.256L352.468 317.636C350.05 319.146 348.04 321.215 346.61 323.665C345.181 326.116 344.375 328.873 344.263 331.7V721.253C344.157 722.561 344.411 723.872 344.998 725.048C345.585 726.224 346.484 727.221 347.598 727.932C348.545 728.477 349.625 728.757 350.721 728.744C352.272 728.696 353.785 728.254 355.114 727.46L543.027 620.08L567.191 606.278C569.595 604.753 571.595 602.68 573.022 600.233C574.45 597.786 575.264 595.036 575.396 592.214L575.316 202.608ZM540.301 615.602L538.131 616.859L352.574 722.877C352.262 723.114 351.9 723.279 351.516 723.361C351.131 723.442 350.733 723.438 350.35 723.348C350.006 723.139 349.662 722.405 349.662 721.201V331.595C349.799 329.694 350.371 327.847 351.333 326.196C352.296 324.545 353.625 323.131 355.22 322.062L540.592 215.992L567.059 200.827C567.371 200.59 567.732 200.425 568.117 200.343C568.501 200.262 568.899 200.266 569.282 200.356C569.626 200.566 569.97 201.299 569.97 202.504V592.266C569.833 594.168 569.262 596.014 568.299 597.665C567.336 599.317 566.007 600.73 564.412 601.8L540.248 615.602H540.301Z" fill="#84CC16"/>
<path d="M459.79 293.148C483.61 279.581 502.798 290.529 502.798 317.74C502.798 344.952 483.53 377.978 459.79 391.44C436.049 404.902 416.782 394.059 416.782 366.873C416.782 339.688 436.049 306.741 459.79 293.148Z" fill="#84CC16"/>
<path d="M459.79 314.519C467.492 310.119 473.738 313.681 473.738 322.376C473.476 327.166 472.077 331.828 469.653 335.982C467.23 340.137 463.851 343.668 459.79 346.288C452.088 350.688 445.842 347.126 445.842 338.431C446.103 333.641 447.503 328.979 449.926 324.824C452.35 320.67 455.729 317.139 459.79 314.519Z" fill="#84CC16"/>
<path d="M486.971 361.452C486.971 346.995 476.728 341.128 464.051 348.357L456.111 352.888C443.46 360.116 433.191 377.716 433.191 392.173V396.076C440.522 398.459 449.732 397.176 459.657 391.44C470.652 384.729 479.95 375.618 486.839 364.804L486.971 361.452Z" fill="#84CC16"/>
<path opacity="0.7" d="M459.79 314.519C467.492 310.119 473.738 313.681 473.738 322.376C473.476 327.166 472.077 331.828 469.653 335.982C467.23 340.137 463.851 343.668 459.79 346.288C452.088 350.688 445.842 347.126 445.842 338.431C446.103 333.641 447.503 328.979 449.926 324.824C452.35 320.67 455.729 317.139 459.79 314.519Z" fill="white"/>
<path opacity="0.7" d="M486.971 361.452C486.971 346.995 476.728 341.128 464.051 348.357L456.111 352.888C443.46 360.116 433.191 377.716 433.191 392.173V396.076C440.522 398.459 449.732 397.176 459.657 391.44C470.652 384.729 479.95 375.618 486.839 364.804L486.971 361.452Z" fill="white"/>
<path d="M376.579 451.284L431.92 419.673C434.567 418.232 436.499 419.385 436.499 422.292V424.099C436.415 425.673 435.957 427.205 435.161 428.57C434.366 429.936 433.255 431.096 431.92 431.956L376.579 463.567C374.064 465.008 372 463.829 372 460.948V459.141C372.086 457.568 372.545 456.037 373.341 454.671C374.136 453.306 375.245 452.146 376.579 451.284Z" fill="#84CC16"/>
<path opacity="0.1" d="M376.579 451.284L431.92 419.673C434.567 418.232 436.499 419.385 436.499 422.292V424.099C436.415 425.673 435.957 427.205 435.161 428.57C434.366 429.936 433.255 431.096 431.92 431.956L376.579 463.567C374.064 465.008 372 463.829 372 460.948V459.141C372.086 457.568 372.545 456.037 373.341 454.671C374.136 453.306 375.245 452.146 376.579 451.284Z" fill="black"/>
<path d="M374.303 489.444L541.73 393.797C542.974 393.064 544.006 393.64 544.006 395.106V414.435C543.96 415.219 543.73 415.982 543.335 416.664C542.94 417.346 542.391 417.927 541.73 418.363L374.303 514.01C373.032 514.743 372 514.141 372 512.7V493.372C372.045 492.584 372.278 491.818 372.678 491.136C373.078 490.453 373.634 489.874 374.303 489.444Z" fill="#84CC16"/>
<path opacity="0.2" d="M374.303 489.444L541.73 393.797C542.974 393.064 544.006 393.64 544.006 395.106V414.435C543.96 415.219 543.73 415.982 543.335 416.664C542.94 417.346 542.391 417.927 541.73 418.363L374.303 514.01C373.032 514.743 372 514.141 372 512.7V493.372C372.045 492.584 372.278 491.818 372.678 491.136C373.078 490.453 373.634 489.874 374.303 489.444Z" fill="white"/>
<path d="M376.579 537.267L431.92 505.655C434.567 504.215 436.499 505.393 436.499 508.274V510.081C436.417 511.656 435.96 513.189 435.164 514.554C434.368 515.92 433.257 517.08 431.92 517.938L376.579 549.55C374.064 551.017 372 549.838 372 546.931V545.124C372.09 543.551 372.551 542.022 373.346 540.657C374.141 539.293 375.248 538.132 376.579 537.267Z" fill="#84CC16"/>
<path opacity="0.1" d="M376.579 537.267L431.92 505.655C434.567 504.215 436.499 505.393 436.499 508.274V510.081C436.417 511.656 435.96 513.189 435.164 514.554C434.368 515.92 433.257 517.08 431.92 517.938L376.579 549.55C374.064 551.017 372 549.838 372 546.931V545.124C372.09 543.551 372.551 542.022 373.346 540.657C374.141 539.293 375.248 538.132 376.579 537.267Z" fill="black"/>
<path d="M374.303 575.426L541.73 479.779C542.974 479.046 544.006 479.648 544.006 481.089V500.417C543.96 501.202 543.73 501.965 543.335 502.646C542.94 503.328 542.391 503.91 541.73 504.346L374.303 599.993C373.032 600.726 372 600.15 372 598.683V579.355C372.045 578.567 372.278 577.801 372.678 577.119C373.078 576.436 373.634 575.856 374.303 575.426Z" fill="#84CC16"/>
<path opacity="0.2" d="M374.303 575.426L541.73 479.779C542.974 479.046 544.006 479.648 544.006 481.089V500.417C543.96 501.202 543.73 501.965 543.335 502.646C542.94 503.328 542.391 503.91 541.73 504.346L374.303 599.993C373.032 600.726 372 600.15 372 598.683V579.355C372.045 578.567 372.278 577.801 372.678 577.119C373.078 576.436 373.634 575.856 374.303 575.426Z" fill="white"/>
<path d="M441.078 586.4L507.244 548.66C509.891 547.193 511.85 548.372 511.85 551.279V571.498C511.763 573.074 511.3 574.608 510.5 575.973C509.7 577.339 508.584 578.497 507.244 579.355L441.078 617.121C438.431 618.562 436.499 617.383 436.499 614.502V594.257C436.591 592.685 437.053 591.156 437.848 589.792C438.643 588.428 439.749 587.266 441.078 586.4Z" fill="#84CC16"/>
<path opacity="0.1" d="M441.078 586.4L507.244 548.66C509.891 547.193 511.85 548.372 511.85 551.279V571.498C511.763 573.074 511.3 574.608 510.5 575.973C509.7 577.339 508.584 578.497 507.244 579.355L441.078 617.121C438.431 618.562 436.499 617.383 436.499 614.502V594.257C436.591 592.685 437.053 591.156 437.848 589.792C438.643 588.428 439.749 587.266 441.078 586.4Z" fill="black"/>
<path d="M597.76 501.072C597.76 501.072 565.259 456.706 563.354 451.31C561.845 447.33 563.354 441.411 563.83 438.661C564.306 435.911 564.73 429.782 565.206 428.185C566 425.199 562.11 425.801 559.913 428.525C557.716 431.249 556.975 436.696 555.837 437.587C554.699 438.477 546.044 425.985 541.519 420.223C536.993 414.461 534.161 410.951 531.382 413.099C529.397 414.644 530.879 417.996 534.161 422.92C536.078 425.572 537.845 428.326 539.454 431.17C539.957 432.244 537.258 432.323 535.802 434.549C534.664 436.277 535.802 439.08 534.214 440.415C533.237 441.151 532.567 442.217 532.333 443.41C532.098 444.603 532.316 445.84 532.943 446.884C535.89 451.463 539.689 455.444 544.139 458.618C549.009 461.944 550.967 463.122 553.852 467.653C556.737 472.184 582.621 518.462 584.368 521.238C586.115 524.015 589.476 529.672 594.584 529.829C599.692 529.986 641.51 494.367 643.653 492.586C650.535 486.903 652.731 486.091 653.896 491.198C654.298 493.014 654.598 494.85 654.796 496.698C655.616 503.193 660.089 526.398 660.089 526.398C660.089 526.398 681.262 536.533 698.651 531.636C716.04 526.738 721.915 519.431 721.915 519.431L713.208 505.393C715.563 499.605 726.441 476.139 729.961 459.718L675.44 450.996C674.328 450.76 672.528 450.315 670.146 449.713C667.156 448.927 659.56 446.334 653.817 451.31C635.078 467.47 597.813 501.072 597.813 501.072" fill="#FFA8A7"/>
<path d="M705.85 773.293L696.084 786.729C700.522 788.779 705.372 789.809 710.27 789.741C719.03 790.055 721.439 787.122 721.756 786.545C723.238 783.402 720.936 777.745 720.301 772.874L705.85 773.293Z" fill="#37474F"/>
<path d="M696.639 780.286C696.639 780.286 684.782 779.526 676.604 778.531C668.426 777.536 661.942 781.464 663.847 784.791C665.753 788.117 670.279 790.893 677.319 793.224C683.327 795.24 690.552 796.681 696.798 798.462C703.044 800.243 707.385 802.574 711.011 801.317C715.06 799.929 716.807 798.331 716.463 795.398C715.579 791.225 714.484 787.099 713.181 783.036L696.639 780.286Z" fill="#37474F"/>
<path d="M721.756 759.805C721.756 759.805 720.274 772.01 720.168 774.629C720.062 777.248 708.126 778.086 705.85 773.293L705.479 758.365L721.756 759.805Z" fill="#F28F8F"/>
<path d="M709.74 767.295L714.002 785.838C714.002 785.838 714.399 788.09 704.659 789.531C694.919 790.971 679.621 784.476 677.001 783.167C674.381 781.857 674.09 779.212 683.671 779.736C693.252 780.26 696.639 780.286 696.639 780.286L693.516 772.088L709.74 767.295Z" fill="#FFA8A7"/>
<path d="M729.802 459.56L736.551 457.701C736.551 457.701 750.658 501.884 752.219 506.153C753.781 510.422 755.554 514.927 752.51 520.191C748.884 526.45 729.802 551.619 729.802 551.619L717.68 539.886L731.443 514.953L719.268 490.596L729.802 459.56Z" fill="#F28F8F"/>
<path d="M660.486 402.177C658.904 399.238 658.101 395.95 658.152 392.62C658.203 389.29 659.106 386.028 660.777 383.137C667.5 370.802 682.48 364.804 700.318 367.083C708.576 368.156 718.316 374.94 723.635 385.075C729.511 396.311 730.067 418.939 731.575 427.503L660.486 402.177Z" fill="#37474F"/>
<path d="M660.01 407.023C660.01 407.023 655.775 415.011 656.516 415.744C657.614 416.379 658.813 416.822 660.063 417.054L660.01 407.023Z" fill="#FFA8A7"/>
<path d="M672.872 381.776C668.267 384.735 660.327 390.183 659.983 408.123C659.613 426.456 662.259 432.506 665.012 434.628C666.864 436.068 677.742 435.335 682.4 434.261C687.058 433.187 700.477 426.613 705.32 416.635C711.011 404.902 709.846 387.826 701.403 382.588C697.106 380.073 692.234 378.679 687.244 378.537C682.254 378.395 677.309 379.51 672.872 381.776Z" fill="#FFA8A7"/>
<path d="M721.756 519.327C729.908 531.898 737.636 542.898 739.33 557.093C742.824 586.924 731.39 621.023 728.929 643.102C733.558 649.382 736.226 656.866 736.604 664.63C736.604 673.77 721.756 759.805 721.756 759.805C721.756 759.805 710.958 763.053 705.479 758.365L695.29 600.097L700.583 580.821L721.756 519.327Z" fill="#84CC16"/>
<path opacity="0.2" d="M721.756 519.327C729.908 531.898 737.636 542.898 739.33 557.093C742.824 586.924 731.39 621.023 728.929 643.102C733.558 649.382 736.226 656.866 736.604 664.63C736.604 673.77 721.756 759.805 721.756 759.805C721.756 759.805 710.958 763.053 705.479 758.365L695.29 600.097L700.583 580.821L721.756 519.327Z" fill="black"/>
<path d="M695.29 600.097L700.583 580.821C710.718 578.181 720.493 574.338 729.696 569.376C729.696 569.376 724.191 579.302 708.364 584.75L700.186 609.499L699.498 666.201L695.29 600.097Z" fill="#84CC16"/>
<path opacity="0.3" d="M695.29 600.097L700.583 580.821C710.718 578.181 720.493 574.338 729.696 569.376C729.696 569.376 724.191 579.302 708.364 584.75L700.186 609.499L699.498 666.201L695.29 600.097Z" fill="black"/>
<path d="M721.756 519.327C726.123 526.398 736.551 538.445 734.328 550.048C731.681 564.086 724.006 573.959 700.662 580.821L678.748 659.392C678.748 659.392 690.155 669.868 693.649 680.004C697.142 690.139 709.74 767.348 709.74 767.348C709.74 767.348 705.823 773.66 693.516 772.141C693.516 772.141 650.614 675.237 647.597 668.925C643.935 662.533 642.652 655.073 643.971 647.842C645.321 637.68 659.851 526.45 659.851 526.45L721.756 519.327Z" fill="#84CC16"/>
<path opacity="0.2" d="M721.756 519.327C726.123 526.398 736.551 538.445 734.328 550.048C731.681 564.086 724.006 573.959 700.662 580.821L678.748 659.392C678.748 659.392 690.155 669.868 693.649 680.004C697.142 690.139 709.74 767.348 709.74 767.348C709.74 767.348 705.823 773.66 693.516 772.141C693.516 772.141 650.614 675.237 647.597 668.925C643.935 662.533 642.652 655.073 643.971 647.842C645.321 637.68 659.851 526.45 659.851 526.45L721.756 519.327Z" fill="black"/>
<path d="M729.802 459.56L675.281 450.839C674.169 450.603 672.37 450.158 669.988 449.556C669.988 449.556 667.659 483.393 653.658 491.146C654.002 492.77 654.293 494.577 654.558 496.646C655.378 503.141 659.851 526.345 659.851 526.345C659.851 526.345 681.024 536.481 698.413 531.583C715.801 526.686 721.677 519.379 721.677 519.379L712.969 505.341C715.404 499.5 726.361 476.034 729.802 459.56Z" fill="#84CC16"/>
<path opacity="0.7" d="M729.802 459.56L675.281 450.839C674.169 450.603 672.37 450.158 669.988 449.556C669.988 449.556 667.659 483.393 653.658 491.146C654.002 492.77 654.293 494.577 654.558 496.646C655.378 503.141 659.851 526.345 659.851 526.345C659.851 526.345 681.024 536.481 698.413 531.583C715.801 526.686 721.677 519.379 721.677 519.379L712.969 505.341C715.404 499.5 726.361 476.034 729.802 459.56Z" fill="white"/>
<path d="M715.431 499.762C708.19 504.065 700.604 507.77 692.749 510.841C699.878 510.7 706.858 508.791 713.049 505.289L715.431 499.762Z" fill="#84CC16"/>
<path d="M671.523 382.666C671.523 382.666 668.876 399.689 675.122 409.694C675.122 409.694 677.451 402.911 683.247 404.194C689.044 405.477 689.361 413.046 685.285 417.289C684.249 418.479 682.895 419.356 681.378 419.82C679.862 420.283 678.244 420.314 676.71 419.908C676.71 419.908 675.784 432.218 675.281 442.537C674.778 452.856 672.026 475.353 683.75 484.441C695.475 493.529 724.906 496.724 738.695 477.658C746.37 467.051 736.181 448.298 731.443 427.268C727.076 407.939 724.615 379.287 703.891 374.678C683.168 370.068 671.523 382.666 671.523 382.666Z" fill="#37474F"/>
<path d="M167.127 163.894L162.76 166.514C163.126 164.976 163.33 163.405 163.369 161.825C163.369 153.052 157.149 149.516 149.474 153.968C147.138 155.363 145.053 157.133 143.307 159.206C143.307 147.421 134.943 142.628 124.621 148.521C119.182 152.031 114.656 156.761 111.409 162.326C108.163 167.891 106.288 174.135 105.936 180.551C105.936 181.154 105.936 181.73 105.936 182.306C103.277 181.975 100.586 182.588 98.3401 184.035C94.2957 186.643 90.9298 190.157 88.5156 194.294C86.1013 198.43 84.7067 203.072 84.4451 207.842C84.4437 208.95 84.5591 210.056 84.7892 211.142L82.4601 212.477C76.1346 216.092 71 223.137 71 228.191C71 233.246 76.1346 234.451 82.4601 230.81L167.153 182.49C173.479 178.875 178.613 171.83 178.613 166.775C178.613 161.721 173.452 160.254 167.127 163.894Z" fill="#EBEBEB"/>
</svg>
