<svg width="581" height="1024" viewBox="0 0 581 1024" fill="none" xmlns="http://www.w3.org/2000/svg">
<rect x="-176" y="-15" width="464" height="1061" rx="180" fill="#2F3C33"/>
<path d="M581 734.752H-86V735.085H581V734.752Z" fill="#E6E6E6"/>
<path d="M80.5099 754.935H36.3278V755.269H80.5099V754.935Z" fill="#E6E6E6"/>
<path d="M22.3475 754.935H-3.25195V755.269H22.3475V754.935Z" fill="#E6E6E6"/>
<path d="M194.874 759.844H169.274V760.178H194.874V759.844Z" fill="#E6E6E6"/>
<path d="M328.354 767.288H270.738V767.621H328.354V767.288Z" fill="#E6E6E6"/>
<path d="M258.866 767.288H250.421V767.621H258.866V767.288Z" fill="#E6E6E6"/>
<path d="M518.769 759.844H393.8V760.178H518.769V759.844Z" fill="#E6E6E6"/>
<path d="M230.158 675.255H-27.424C-29.4419 675.252 -31.3759 674.448 -32.8015 673.02C-34.2271 671.591 -35.0278 669.656 -35.0278 667.638V305.55C-35.0103 303.544 -34.2018 301.626 -32.7781 300.212C-31.3544 298.798 -29.4304 298.003 -27.424 298H230.158C232.178 298 234.116 298.803 235.544 300.231C236.973 301.659 237.775 303.597 237.775 305.617V667.638C237.775 669.658 236.973 671.596 235.544 673.024C234.116 674.453 232.178 675.255 230.158 675.255ZM-27.424 298.267C-29.3535 298.27 -31.2027 299.039 -32.5657 300.405C-33.9288 301.77 -34.6943 303.621 -34.6943 305.55V667.638C-34.6943 669.567 -33.9288 671.418 -32.5657 672.784C-31.2027 674.149 -29.3535 674.918 -27.424 674.922H230.158C232.089 674.918 233.939 674.15 235.304 672.784C236.67 671.419 237.438 669.569 237.442 667.638V305.55C237.438 303.62 236.67 301.769 235.304 300.404C233.939 299.039 232.089 298.27 230.158 298.267H-27.424Z" fill="#E6E6E6"/>
<path d="M518.716 675.255H261.12C259.101 675.252 257.166 674.448 255.738 673.02C254.31 671.593 253.507 669.657 253.503 667.638V305.55C253.524 303.543 254.335 301.625 255.761 300.211C257.187 298.798 259.112 298.003 261.12 298H518.716C520.72 298.007 522.64 298.803 524.061 300.217C525.482 301.63 526.288 303.546 526.306 305.55V667.638C526.306 669.654 525.507 671.587 524.084 673.015C522.662 674.442 520.731 675.248 518.716 675.255ZM261.12 298.267C259.189 298.27 257.339 299.039 255.974 300.404C254.609 301.769 253.84 303.62 253.836 305.55V667.638C253.84 669.569 254.609 671.419 255.974 672.784C257.339 674.15 259.189 674.918 261.12 674.922H518.716C520.646 674.918 522.497 674.15 523.862 672.784C525.227 671.419 525.996 669.569 525.999 667.638V305.55C525.996 303.62 525.227 301.769 523.862 300.404C522.497 299.039 520.646 298.27 518.716 298.267H261.12Z" fill="#E6E6E6"/>
<path d="M270.712 620.801H241.377V737.166H270.712V620.801Z" fill="#E0E0E0"/>
<path d="M265.135 737.166H270.712V721.318H259.293L265.135 737.166Z" fill="#FAFAFA"/>
<path d="M142.167 620.801H112.833V737.166H142.167V620.801Z" fill="#E0E0E0"/>
<path d="M270.712 620.801H137.312V727.441H270.712V620.801Z" fill="#FAFAFA"/>
<path d="M265.869 626.044V654.258H142.114V626.044H265.829M266.349 625.524H141.634V654.765H266.389V625.524H266.349Z" fill="#E0E0E0"/>
<path d="M142.874 737.166H137.312V721.318H148.717L142.874 737.166Z" fill="#FAFAFA"/>
<path d="M201.063 640.144C201.063 640.727 201.236 641.297 201.56 641.782C201.884 642.267 202.345 642.645 202.883 642.868C203.422 643.091 204.015 643.15 204.587 643.036C205.159 642.922 205.684 642.641 206.096 642.229C206.509 641.817 206.789 641.291 206.903 640.719C207.017 640.148 206.958 639.555 206.735 639.016C206.512 638.477 206.134 638.017 205.65 637.693C205.165 637.369 204.595 637.196 204.012 637.196C203.23 637.196 202.48 637.507 201.927 638.06C201.374 638.613 201.063 639.362 201.063 640.144Z" fill="#E6E6E6"/>
<path d="M265.869 660.008V688.222H142.114V660.008H265.829M266.349 659.501H141.634V688.742H266.389V659.514L266.349 659.501Z" fill="#E0E0E0"/>
<path d="M201.063 674.188C201.063 674.771 201.236 675.341 201.56 675.826C201.884 676.311 202.345 676.689 202.883 676.912C203.422 677.135 204.015 677.193 204.587 677.079C205.159 676.966 205.684 676.685 206.096 676.273C206.509 675.86 206.789 675.335 206.903 674.763C207.017 674.191 206.958 673.598 206.735 673.06C206.512 672.521 206.134 672.061 205.65 671.737C205.165 671.413 204.595 671.24 204.012 671.24C203.23 671.24 202.48 671.55 201.927 672.103C201.374 672.656 201.063 673.406 201.063 674.188Z" fill="#E6E6E6"/>
<path d="M265.869 693.985V722.212H142.114V693.985H265.829M266.349 693.464H141.634V722.719H266.389V693.464H266.349Z" fill="#E0E0E0"/>
<path d="M201.063 708.098C201.066 708.681 201.241 709.25 201.567 709.733C201.892 710.216 202.354 710.591 202.893 710.812C203.432 711.034 204.024 711.09 204.595 710.975C205.166 710.86 205.69 710.578 206.101 710.165C206.512 709.752 206.791 709.227 206.904 708.655C207.017 708.084 206.958 707.492 206.734 706.954C206.51 706.416 206.133 705.956 205.648 705.633C205.164 705.309 204.594 705.137 204.012 705.137C203.623 705.137 203.239 705.214 202.88 705.362C202.522 705.511 202.196 705.73 201.922 706.005C201.648 706.28 201.431 706.607 201.284 706.966C201.137 707.325 201.062 707.71 201.063 708.098Z" fill="#E6E6E6"/>
<path d="M124.252 553.221H94.9171V737.179H124.252V553.221Z" fill="#E0E0E0"/>
<path d="M118.676 737.166H124.252V721.318H112.846L118.676 737.166Z" fill="#FAFAFA"/>
<path d="M14.6237 553.221H-14.711V737.179H14.6237V553.221Z" fill="#E0E0E0"/>
<path d="M124.252 553.221H9.75452V727.455H124.252V553.221Z" fill="#FAFAFA"/>
<path d="M119.316 558.13V597.576H14.6904V558.13H119.316ZM119.93 557.53H14.05V598.15H119.903V557.543L119.93 557.53Z" fill="#E0E0E0"/>
<path d="M119.316 602.392V707.018H69.4777V602.392H119.316ZM119.93 601.779H68.8774V707.631H119.93V601.779Z" fill="#E0E0E0"/>
<path d="M64.5286 602.392V707.018H14.6904V602.392H64.5286ZM65.1289 601.779H14.05V707.631H65.1022V601.779H65.1289Z" fill="#E0E0E0"/>
<path d="M15.3306 737.166H9.75452V721.318H21.1736L15.3306 737.166Z" fill="#FAFAFA"/>
<path d="M64.0483 577.873C64.0457 578.46 64.2171 579.033 64.5409 579.522C64.8647 580.011 65.3263 580.393 65.8672 580.619C66.4081 580.845 67.004 580.906 67.5793 580.793C68.1547 580.68 68.6836 580.399 69.0991 579.985C69.5146 579.572 69.798 579.044 69.9134 578.469C70.0287 577.894 69.9708 577.298 69.7471 576.756C69.5233 576.214 69.1438 575.751 68.6565 575.425C68.1692 575.099 67.5961 574.925 67.0098 574.925C66.2267 574.925 65.4754 575.235 64.9204 575.788C64.3654 576.34 64.0518 577.09 64.0483 577.873Z" fill="#E6E6E6"/>
<path d="M74.6136 652.217C74.6136 652.803 74.7876 653.376 75.1137 653.864C75.4397 654.351 75.903 654.731 76.4449 654.954C76.9868 655.178 77.5829 655.236 78.1578 655.121C78.7326 655.005 79.2603 654.722 79.6739 654.306C80.0875 653.891 80.3685 653.362 80.4813 652.787C80.594 652.211 80.5335 651.615 80.3073 651.074C80.0811 650.534 79.6994 650.072 79.2107 649.748C78.7219 649.424 78.148 649.253 77.5618 649.256C77.1735 649.256 76.789 649.332 76.4305 649.481C76.0719 649.63 75.7463 649.849 75.4724 650.124C75.1984 650.399 74.9816 650.725 74.8342 651.085C74.6868 651.444 74.6119 651.829 74.6136 652.217Z" fill="#E6E6E6"/>
<path d="M53.4964 652.217C53.499 652.8 53.6741 653.368 53.9997 653.851C54.3252 654.334 54.7866 654.71 55.3255 654.931C55.8644 655.152 56.4568 655.209 57.0278 655.094C57.5988 654.978 58.1229 654.696 58.5338 654.284C58.9448 653.871 59.2243 653.345 59.3369 652.774C59.4496 652.202 59.3905 651.61 59.1669 651.072C58.9434 650.534 58.5655 650.075 58.081 649.751C57.5965 649.428 57.027 649.256 56.4445 649.256C56.0562 649.256 55.6718 649.332 55.3132 649.481C54.9547 649.63 54.6291 649.849 54.3551 650.124C54.0812 650.399 53.8643 650.726 53.7169 651.085C53.5696 651.444 53.4946 651.829 53.4964 652.217Z" fill="#E6E6E6"/>
<path d="M50.1613 501.929H37.7952C38.9348 507.927 39.6524 513.999 39.9429 520.098C39.9429 526.768 30.5249 553.221 43.9449 553.221C57.3649 553.221 47.9469 526.834 47.9469 520.098C48.2594 513.997 48.9993 507.926 50.1613 501.929Z" fill="#E0E0E0"/>
<path d="M3.11121 528.982V536.986C3.12527 541.277 4.83601 545.388 7.87007 548.422C10.9041 551.456 15.0152 553.167 19.306 553.181H27.31C31.6008 553.167 35.7118 551.456 38.7458 548.422C41.7799 545.388 43.4907 541.277 43.5047 536.986V528.982H3.11121Z" fill="#F5F5F5"/>
<path d="M175.024 603.833C175.024 613.171 185.469 620.801 198.235 620.801H209.761C222.528 620.801 232.973 613.171 232.973 603.833H175.024Z" fill="#E0E0E0"/>
<path d="M480.43 590.146C473.44 595.856 463.781 606.301 454.95 621.001C449.054 630.793 445.506 641.011 443.945 654.592C443.945 639.251 444.038 622.776 444.092 607.221C445.866 603.219 449.921 593.988 452.829 586.704C462.527 562.385 466.169 556.396 474.88 535.425C486.526 507.411 498.452 474.248 495.037 476.903C488.074 482.305 461.394 532.264 458.512 539.414C450.658 558.496 445.803 578.678 444.118 599.244C444.118 584.57 444.225 571.23 444.278 560.878C444.465 527.115 445.039 516.216 445.319 512.854C446.399 511.147 447.667 509.159 448.414 508.092C454.684 499.02 457.098 491.31 462.994 477.783C471.372 458.64 478.576 424.637 476.468 426.344C467.69 433.494 460.78 448.835 451.682 468.405C442.584 487.975 445.185 499.221 443.385 515.922C443.011 519.204 442.718 531.583 442.504 548.725C440.156 530.45 435.727 518.417 427.657 507.478C417.732 494.018 408.127 484.933 401.083 480.184C394.04 475.435 413.25 508.492 422.427 522.872C430.605 535.732 438.142 547.058 442.437 558.223C442.211 581.475 442.104 610.903 442.104 638.263C439.996 625.804 436.554 612.37 431.966 601.979C426.443 589.492 417.959 570.336 411.195 563.84C409.581 562.279 418.265 599.537 423.841 609.436C429.418 619.334 433.513 628.685 437.021 634.301C437.835 635.635 440.557 640.665 442.104 643.573C442.104 677.016 442.291 706.524 442.584 716.569H444.025C443.932 713.981 443.905 696.959 443.945 674.441C447.427 662.222 455.377 648.268 461.941 635.542C469.091 621.762 487.42 584.477 480.43 590.146Z" fill="#E0E0E0"/>
<path d="M464.195 737.166H422.387L419.226 696.186H467.357L464.195 737.166Z" fill="#F0F0F0"/>
<path d="M470.465 700.961H416.104L414.557 687.128H472.026L470.465 700.961Z" fill="#F5F5F5"/>
<path d="M79.7628 325.347H4.99213V407.455H79.7628V325.347Z" fill="#E0E0E0"/>
<path d="M87.8602 325.347H10.6216V407.455H87.8602V325.347Z" fill="#F5F5F5"/>
<path d="M81.3903 400.985V331.817H17.0915V400.985H81.3903Z" fill="white"/>
<path d="M65.7958 384.203V348.572H32.6726V384.203H65.7958Z" fill="#F5F5F5"/>
<path d="M461.007 334.912H391.545V411.19H461.007V334.912Z" fill="#E0E0E0"/>
<path d="M468.53 334.912H396.788V411.19H468.53V334.912Z" fill="#F5F5F5"/>
<path d="M462.527 405.174V340.928H402.804V405.174H462.527Z" fill="white"/>
<path d="M432.659 391.687C442.952 391.687 451.295 383.343 451.295 373.051C451.295 362.759 442.952 354.415 432.659 354.415C422.367 354.415 414.023 362.759 414.023 373.051C414.023 383.343 422.367 391.687 432.659 391.687Z" fill="#F5F5F5"/>
<path d="M157.442 374.305H101.974V435.215H157.442V374.305Z" fill="#E0E0E0"/>
<path d="M163.445 374.305H106.149V435.215H163.445V374.305Z" fill="#F5F5F5"/>
<path d="M158.642 430.413V379.107H110.952V430.413H158.642Z" fill="white"/>
<path d="M134.804 391.78L121.757 414.378H147.85L134.804 391.78Z" fill="#F5F5F5"/>
<path d="M247.5 794.995C390.348 794.995 506.149 788.234 506.149 779.894C506.149 771.554 390.348 764.793 247.5 764.793C104.652 764.793 -11.1492 771.554 -11.1492 779.894C-11.1492 788.234 104.652 794.995 247.5 794.995Z" fill="#F5F5F5"/>
<path d="M379.899 442.646L366.666 437.31C366.666 437.31 349.204 469.152 344.202 470.766C337.398 472.954 323.311 479.037 314.96 480.104C313.826 481.438 311.972 485.587 312.146 487.094C323.365 490.843 348.017 485.867 353.3 481.945C365.319 473.047 379.899 442.646 379.899 442.646Z" fill="#E58A7B"/>
<path d="M383.968 435.402C386.436 444.513 373.069 462.842 373.069 462.842L355.554 453.024C355.554 453.024 358.836 445.487 362.838 437.816C369.254 425.424 381.153 425.01 383.968 435.402Z" fill="#84CC16"/>
<path opacity="0.2" d="M383.968 435.402C386.436 444.513 373.069 462.842 373.069 462.842L355.554 453.024C355.554 453.024 358.836 445.487 362.838 437.816C369.254 425.424 381.153 425.01 383.968 435.402Z" fill="black"/>
<path opacity="0.2" d="M362.504 456.946L369.401 460.815L370.615 439.644C366.599 442.726 363.771 452.01 362.504 456.946Z" fill="black"/>
<path d="M372.442 428.545C372.442 428.545 358.809 458.88 366.76 515.362H420.48C421.334 507.118 418.505 466.884 428.737 428.038C422.844 426.887 416.882 426.124 410.888 425.757C403.286 425.317 395.665 425.317 388.064 425.757C382.794 426.292 377.572 427.224 372.442 428.545Z" fill="#84CC16"/>
<path opacity="0.2" d="M372.442 428.545C372.442 428.545 358.809 458.88 366.76 515.362H420.48C421.334 507.118 418.505 466.884 428.737 428.038C422.844 426.887 416.882 426.124 410.888 425.757C403.286 425.317 395.665 425.317 388.064 425.757C382.794 426.292 377.572 427.224 372.442 428.545Z" fill="black"/>
<g style="mix-blend-mode:multiply">
<path d="M359.983 781.095C359.903 782.535 380.273 783.696 405.472 783.696C430.672 783.696 451.188 782.535 451.269 781.095C451.349 779.654 430.992 778.507 405.779 778.507C380.567 778.507 360.076 779.667 359.983 781.095Z" fill="#E8ECF1"/>
</g>
<path d="M395.842 743.239L386.314 746.928L394.521 768.13L404.049 764.442L395.842 743.239Z" fill="#E58A7B"/>
<path d="M438.329 770.836H428.284L424.602 747.585H434.647L438.329 770.836Z" fill="#E58A7B"/>
<path d="M427.59 769.676H438.876C439.071 769.676 439.261 769.746 439.41 769.873C439.559 770 439.658 770.176 439.689 770.369L441.143 779.294C441.174 779.518 441.156 779.746 441.091 779.962C441.026 780.178 440.915 780.378 440.765 780.548C440.616 780.717 440.432 780.853 440.225 780.945C440.019 781.037 439.795 781.083 439.569 781.081C435.634 781.015 433.74 780.775 428.777 780.775C425.722 780.775 419.439 781.095 415.197 781.095C410.955 781.095 410.675 776.933 412.422 776.546C420.266 774.852 423.308 772.544 425.922 770.303C426.384 769.898 426.976 769.675 427.59 769.676Z" fill="#263238"/>
<path d="M394.24 766.234L404.912 763.112C405.102 763.059 405.306 763.072 405.487 763.149C405.669 763.227 405.819 763.365 405.912 763.539L409.914 771.543C410.007 771.746 410.055 771.967 410.054 772.191C410.052 772.414 410.002 772.634 409.907 772.836C409.812 773.038 409.674 773.217 409.502 773.36C409.331 773.503 409.13 773.607 408.914 773.664C405.032 774.731 402.431 775.385 397.575 776.799C394.227 777.773 390.812 779.36 387.503 780.414C385.209 781.148 379.819 781.175 377.031 781.175C372.909 781.175 371.989 776.826 373.763 776.626C378.232 776.132 378.832 776.359 381.3 775.118C385.338 773.353 388.998 770.826 392.079 767.675C392.66 767.012 393.405 766.516 394.24 766.234Z" fill="#263238"/>
<path d="M316.641 480.051L305.596 475.422L301.047 487.668C305.574 488.358 310.18 488.358 314.707 487.668L316.641 480.051Z" fill="#E58A7B"/>
<path d="M297.378 475.102L297.085 483.239L301.047 487.641L305.596 475.395L297.378 475.102Z" fill="#E58A7B"/>
<path d="M397.149 745.04L387.591 748.73L391.824 759.694L401.381 756.004L397.149 745.04Z" fill="#CF6F64"/>
<path d="M434.647 747.585H424.602L426.509 759.577H436.554L434.647 747.585Z" fill="#CF6F64"/>
<path opacity="0.2" d="M365.052 500.088C365.252 502.502 365.479 504.97 365.772 507.505L405.712 494.538C411.95 492.69 417.37 488.77 421.08 483.426C421.24 479.864 421.44 476.116 421.747 472.207C421.88 470.313 422.041 468.365 422.214 466.391C422.387 464.416 422.628 462.229 422.881 460.121L365.052 500.088Z" fill="black"/>
<path d="M378.099 456.332L376.765 456.172C377.552 449.502 382.527 444.246 387.77 444.38V445.714C383.181 445.62 378.806 450.356 378.099 456.332Z" fill="white"/>
<path d="M385.209 468.645H384.982V467.311C389.571 467.485 393.88 462.696 394.587 456.733L395.921 456.893C395.214 463.416 390.398 468.645 385.209 468.645Z" fill="white"/>
<path d="M410.141 400.051C408.26 407.401 406.046 420.861 410.888 425.757C410.888 425.757 407.5 433.214 393.853 433.214C381.38 433.214 388.064 425.757 388.064 425.757C396.361 423.809 396.508 417.753 395.414 412.017L410.141 400.051Z" fill="#E58A7B"/>
<path d="M404.138 404.933L395.427 412.017C395.697 413.335 395.853 414.674 395.894 416.019C398.442 418.553 403.551 412.137 404.072 408.855C404.336 407.563 404.359 406.234 404.138 404.933Z" fill="#CF6F64"/>
<path d="M380.446 399.958C381.053 401.008 381.869 401.922 382.844 402.643C383.82 403.364 384.934 403.876 386.116 404.146C389.318 404.853 390.918 401.905 390.038 398.944C389.251 396.276 386.623 392.687 383.368 393.301C382.671 393.445 382.018 393.753 381.465 394.201C380.911 394.649 380.473 395.222 380.187 395.874C379.901 396.526 379.775 397.237 379.82 397.947C379.865 398.658 380.08 399.347 380.446 399.958Z" fill="#CF6F64"/>
<path d="M385.742 376.439C380.753 378.72 378.992 398.544 385.262 401.478C391.532 404.413 395.187 372.104 385.742 376.439Z" fill="#263238"/>
<path d="M411.662 388.992C410.461 398.944 410.328 404.8 404.992 409.896C403.339 411.587 401.25 412.788 398.957 413.367C396.663 413.946 394.255 413.88 391.997 413.176C389.739 412.472 387.72 411.158 386.162 409.378C384.603 407.599 383.567 405.424 383.168 403.093C381.554 394.155 383.781 379.387 393.76 375.425C395.856 374.501 398.162 374.153 400.438 374.42C402.714 374.686 404.877 375.557 406.703 376.941C408.529 378.325 409.952 380.172 410.824 382.291C411.696 384.41 411.985 386.724 411.662 388.992Z" fill="#E58A7B"/>
<path d="M395.267 381.588C402.658 379.707 408.087 378.427 406.139 384.577C403.565 392.794 400.47 400.745 404.619 401.105C407.153 401.332 418.359 396.583 416.931 391.767C415.691 387.578 420.933 386.431 421.867 384.31C425.322 376.626 415.437 377.64 417.198 372.971C418.959 368.302 409.194 360.778 403.858 364.527C395.174 370.583 380.273 370.49 388.104 360.525C393.72 353.414 383.701 354.868 383.701 354.868C383.701 354.868 389.758 358.457 379.566 364.006C368.787 369.929 378.672 385.844 395.267 381.588Z" fill="#263238"/>
<path d="M415.584 399.958C414.125 402.069 411.933 403.562 409.434 404.146C406.139 404.853 404.872 401.905 406.113 398.944C407.22 396.276 410.261 392.687 413.41 393.301C416.558 393.915 417.278 397.343 415.584 399.958Z" fill="#E58A7B"/>
<path d="M366.76 515.362C366.76 515.362 357.742 596.069 357.035 626.698C356.314 658.553 387.597 757.95 387.597 757.95L403.605 751.28C403.605 751.28 384.929 660.461 387.597 629.179C390.425 595.068 402.111 515.415 402.111 515.415L366.76 515.362Z" fill="#84CC16"/>
<path opacity="0.2" d="M389.171 537.52C381.981 552.434 386.823 581.928 390.718 599.404C392.199 587.064 393.96 573.671 395.627 561.278C395.467 542.229 393.987 527.515 389.171 537.52Z" fill="black"/>
<path d="M402.898 745.997C402.978 745.997 404.792 751.093 404.792 751.093L386.329 758.857L383.421 753.441L402.898 745.997Z" fill="#84CC16"/>
<path d="M385.822 515.362C385.822 515.362 392.719 592.12 397.282 620.868C402.297 652.364 421.961 757.256 421.961 757.256H440.356C440.356 757.256 429.338 654.912 427.256 623.723C424.989 589.893 420.48 515.362 420.48 515.362H385.822Z" fill="#84CC16"/>
<path d="M440.637 752.467C440.717 752.467 441.25 757.603 441.25 757.603H421.027L419.586 751.707L440.637 752.467Z" fill="#84CC16"/>
<path opacity="0.2" d="M433.593 746.384C433.551 746.384 433.511 746.37 433.479 746.343C433.447 746.316 433.426 746.278 433.42 746.237C433.313 745.303 423.375 652.857 421.507 624.843C419.479 594.455 415.397 527.048 415.357 526.367C415.355 526.345 415.358 526.323 415.365 526.302C415.373 526.281 415.384 526.262 415.399 526.245C415.414 526.229 415.432 526.216 415.453 526.207C415.473 526.198 415.495 526.194 415.517 526.194C415.561 526.194 415.603 526.21 415.635 526.24C415.668 526.27 415.687 526.31 415.691 526.354C415.691 527.034 419.813 594.388 421.84 624.83C423.708 652.844 433.646 745.223 433.74 746.224C433.743 746.246 433.743 746.269 433.737 746.29C433.732 746.312 433.722 746.332 433.708 746.35C433.694 746.367 433.677 746.382 433.657 746.392C433.637 746.403 433.615 746.409 433.593 746.411V746.384Z" fill="black"/>
<path d="M396.401 391.767C396.401 392.581 395.894 393.234 395.361 393.234C394.827 393.234 394.44 392.581 394.493 391.767C394.547 390.953 395 390.299 395.534 390.299C396.068 390.299 396.454 390.966 396.401 391.767Z" fill="#263238"/>
<path d="M387.25 391.767C387.25 392.581 386.73 393.234 386.209 393.234C385.689 393.234 385.289 392.581 385.329 391.767C385.369 390.953 385.849 390.299 386.383 390.299C386.916 390.299 387.303 390.966 387.25 391.767Z" fill="#263238"/>
<path d="M390.131 392.18C389.018 394.665 387.583 396.993 385.862 399.104C387.196 400.438 389.691 399.824 389.691 399.824L390.131 392.18Z" fill="#DF5753"/>
<path d="M390.371 403.226C390.34 403.226 390.31 403.22 390.281 403.207C390.253 403.195 390.227 403.177 390.206 403.155C390.185 403.132 390.168 403.106 390.158 403.077C390.147 403.048 390.143 403.017 390.145 402.986C390.148 402.921 390.176 402.86 390.223 402.815C390.271 402.77 390.333 402.746 390.398 402.746C391.418 402.753 392.427 402.531 393.351 402.097C394.274 401.663 395.088 401.028 395.734 400.238C395.78 400.197 395.839 400.175 395.901 400.175C395.962 400.175 396.021 400.197 396.068 400.238C396.111 400.283 396.135 400.342 396.135 400.404C396.135 400.467 396.111 400.526 396.068 400.571C395.376 401.411 394.506 402.085 393.52 402.545C392.535 403.004 391.459 403.237 390.371 403.226Z" fill="#263238"/>
<path d="M398.029 389.312C397.965 389.345 397.894 389.362 397.822 389.362C397.75 389.362 397.679 389.345 397.615 389.312C397.116 388.99 396.548 388.789 395.957 388.726C395.366 388.664 394.769 388.741 394.213 388.952C394.159 388.979 394.1 388.995 394.04 388.999C393.979 389.003 393.919 388.995 393.861 388.975C393.804 388.955 393.752 388.924 393.707 388.883C393.662 388.843 393.625 388.793 393.6 388.739C393.55 388.62 393.549 388.486 393.596 388.367C393.644 388.247 393.736 388.151 393.853 388.098C394.551 387.813 395.306 387.701 396.057 387.771C396.807 387.84 397.529 388.09 398.162 388.498C398.213 388.533 398.257 388.578 398.291 388.63C398.324 388.681 398.347 388.739 398.359 388.8C398.37 388.861 398.369 388.923 398.356 388.984C398.342 389.044 398.317 389.101 398.282 389.152C398.215 389.229 398.127 389.284 398.029 389.312Z" fill="#263238"/>
<path d="M383.715 386.644C383.644 386.627 383.579 386.59 383.528 386.537C383.484 386.494 383.448 386.442 383.424 386.385C383.4 386.328 383.388 386.266 383.388 386.204C383.388 386.142 383.4 386.08 383.424 386.023C383.448 385.966 383.484 385.914 383.528 385.87C384.039 385.297 384.676 384.849 385.389 384.562C386.101 384.275 386.871 384.157 387.637 384.216C387.698 384.226 387.757 384.248 387.809 384.281C387.862 384.314 387.907 384.357 387.942 384.409C387.977 384.46 388.001 384.518 388.013 384.579C388.025 384.64 388.024 384.703 388.01 384.763C387.982 384.887 387.909 384.996 387.806 385.069C387.703 385.143 387.576 385.176 387.45 385.163C386.844 385.125 386.237 385.225 385.675 385.457C385.114 385.688 384.612 386.044 384.208 386.497C384.148 386.565 384.069 386.614 383.982 386.64C383.895 386.666 383.803 386.667 383.715 386.644Z" fill="#263238"/>
<path d="M433.9 441.165L420.026 437.47C420.026 437.47 406.419 470.966 401.604 473.141C395.067 476.129 378.512 486.481 371.469 491.377C371.082 493.044 371.389 497.46 372.269 498.674C384.275 496.486 407.26 487.641 412.062 483.146C423.014 472.887 433.9 441.165 433.9 441.165Z" fill="#E58A7B"/>
<path d="M424.215 771.436C423.538 771.49 422.863 771.306 422.307 770.916C422.136 770.761 422.007 770.564 421.935 770.344C421.862 770.124 421.848 769.889 421.894 769.662C421.902 769.521 421.949 769.384 422.029 769.266C422.108 769.149 422.219 769.055 422.347 768.995C423.468 768.422 426.603 770.409 426.963 770.636C427.003 770.66 427.033 770.697 427.05 770.74C427.067 770.784 427.069 770.831 427.056 770.876C427.045 770.923 427.022 770.966 426.989 771.001C426.956 771.036 426.915 771.062 426.87 771.076C426 771.29 425.11 771.411 424.215 771.436ZM422.881 769.355C422.78 769.333 422.675 769.333 422.574 769.355C422.523 769.381 422.481 769.422 422.452 769.472C422.424 769.521 422.41 769.578 422.414 769.636C422.378 769.791 422.384 769.953 422.431 770.105C422.478 770.257 422.564 770.394 422.681 770.503C423.201 770.97 424.508 771.023 426.229 770.689C425.205 770.015 424.051 769.56 422.841 769.355H422.881Z" fill="#84CC16"/>
<path d="M426.803 771.076C426.768 771.088 426.731 771.088 426.696 771.076C425.696 770.516 423.815 768.315 424.095 767.194C424.137 767.017 424.237 766.858 424.38 766.745C424.523 766.631 424.699 766.569 424.882 766.567C425.061 766.543 425.243 766.558 425.416 766.611C425.588 766.664 425.748 766.754 425.882 766.874C426.99 767.821 427.056 770.729 427.056 770.876C427.063 770.92 427.055 770.965 427.033 771.003C427.011 771.042 426.977 771.072 426.936 771.09C426.892 771.099 426.845 771.094 426.803 771.076ZM425.015 767.008H424.922C424.615 767.008 424.575 767.181 424.562 767.248C424.402 767.901 425.589 769.569 426.576 770.356C426.572 769.229 426.223 768.13 425.576 767.208C425.421 767.073 425.221 767.001 425.015 767.008Z" fill="#84CC16"/>
<path d="M388.797 769.769C387.981 770.054 387.092 770.054 386.276 769.769C386.091 769.669 385.934 769.523 385.819 769.346C385.705 769.169 385.637 768.966 385.622 768.755C385.606 768.623 385.622 768.489 385.671 768.366C385.72 768.242 385.8 768.133 385.902 768.048C386.97 767.088 391.332 768.048 391.825 768.235C391.872 768.247 391.914 768.275 391.943 768.314C391.972 768.352 391.987 768.4 391.986 768.448C391.988 768.498 391.975 768.548 391.949 768.591C391.922 768.633 391.884 768.667 391.839 768.688C390.857 769.132 389.839 769.493 388.797 769.769ZM386.623 768.182C386.47 768.212 386.328 768.281 386.209 768.382C386.167 768.413 386.134 768.457 386.115 768.506C386.096 768.556 386.092 768.61 386.103 768.662C386.111 768.802 386.155 768.937 386.23 769.056C386.304 769.175 386.407 769.273 386.529 769.342C387.236 769.716 388.877 769.422 390.998 768.528C389.57 768.168 388.09 768.051 386.623 768.182Z" fill="#84CC16"/>
<path d="M391.799 768.689H391.692C390.358 768.448 387.69 766.914 387.61 765.767C387.61 765.5 387.73 765.127 388.37 764.913C388.587 764.836 388.816 764.804 389.046 764.817C389.275 764.831 389.499 764.891 389.704 764.993C391.145 765.7 391.905 768.262 391.946 768.382C391.955 768.422 391.954 768.464 391.942 768.504C391.93 768.544 391.909 768.58 391.879 768.608C391.859 768.641 391.831 768.669 391.799 768.689ZM388.637 765.313H388.504C388.09 765.46 388.09 765.634 388.09 765.687C388.09 766.381 390.025 767.648 391.372 768.075C391.062 767.003 390.405 766.065 389.504 765.407C389.236 765.271 388.928 765.237 388.637 765.313Z" fill="#84CC16"/>
<path d="M372.603 490.589L358.689 496.993L357.075 500.995L362.211 504.45C362.211 504.45 371.815 503.409 374.55 497.233L372.603 490.589Z" fill="#E58A7B"/>
<path d="M373.189 498.9C372.879 496.227 371.996 493.652 370.602 491.35L372.803 489.696C374.458 492.348 375.515 495.33 375.897 498.433L373.189 498.9Z" fill="#263238"/>
<path d="M375.564 492.484C375.858 492.946 376.003 493.488 375.978 494.036C375.953 494.584 375.76 495.11 375.425 495.545C375.09 495.979 374.63 496.299 374.107 496.462C373.583 496.626 373.022 496.624 372.5 496.457C371.978 496.29 371.52 495.966 371.188 495.529C370.857 495.093 370.667 494.565 370.646 494.017C370.626 493.469 370.774 492.928 371.071 492.468C371.369 492.007 371.801 491.649 372.309 491.443C372.879 491.153 373.541 491.099 374.151 491.294C374.76 491.489 375.268 491.916 375.564 492.484Z" fill="#263238"/>
<path d="M349.284 502.169L351.139 504.036L363.625 498.7L358.689 496.993L349.284 502.169Z" fill="#E58A7B"/>
<path opacity="0.2" d="M402.898 745.997C402.978 745.997 404.792 751.093 404.792 751.093L386.329 758.857L383.421 753.441L402.898 745.997Z" fill="black"/>
<path opacity="0.2" d="M440.637 752.467C440.717 752.467 441.25 757.603 441.25 757.603H421.027L419.586 751.707L440.637 752.467Z" fill="black"/>
<path d="M437.515 437.323C441.183 449.155 426.843 465.337 426.843 465.337L407.033 457.253C409.381 450.414 412.088 443.703 415.144 437.149C421.227 424.036 433.806 425.384 437.515 437.323Z" fill="#84CC16"/>
<path opacity="0.2" d="M437.515 437.323C441.183 449.155 426.843 465.337 426.843 465.337L407.033 457.253C409.381 450.414 412.088 443.703 415.144 437.149C421.227 424.036 433.806 425.384 437.515 437.323Z" fill="black"/>
<path d="M240.67 318.77H232.146V320.144H240.67V318.77Z" fill="#84CC16"/>
<path d="M351.016 373.153L349.984 396.048L351.357 396.11L352.389 373.215L351.016 373.153Z" fill="#84CC16"/>
<path d="M348.364 324.933H190.952L176.304 652.724H333.716L348.364 324.933Z" fill="#84CC16"/>
<path opacity="0.56" d="M343.668 329.442H186.256L171.609 657.233H329.021L343.668 329.442Z" fill="#FAFAFA"/>
<path opacity="0.07" d="M338.972 333.938H181.56L166.9 661.728H324.312L338.972 333.938Z" fill="#84CC16"/>
<path d="M321.057 476.903H186.696L185.576 501.982H319.936L321.057 476.903Z" fill="white"/>
<path d="M260.587 458.6H187.51L187.016 469.819H260.093L260.587 458.6Z" fill="#84CC16"/>
<path d="M318.029 544.59H183.668L182.548 569.669H316.908L318.029 544.59Z" fill="white"/>
<path opacity="0.47" d="M293.39 603.539H203.038L201.69 633.594H292.042L293.39 603.539Z" fill="#84CC16"/>
<path d="M287.347 638.263H196.995C196.955 638.274 196.914 638.274 196.875 638.263C196.861 638.224 196.861 638.182 196.875 638.143L198.209 608.075C198.209 608.054 198.213 608.034 198.221 608.015C198.229 607.997 198.241 607.98 198.256 607.966C198.271 607.952 198.289 607.942 198.308 607.935C198.328 607.929 198.348 607.926 198.369 607.928H288.721C288.737 607.92 288.755 607.916 288.774 607.916C288.792 607.916 288.811 607.92 288.827 607.928C288.837 607.944 288.842 607.963 288.842 607.982C288.842 608 288.837 608.019 288.827 608.035L287.52 638.17C287.504 638.201 287.479 638.227 287.448 638.244C287.417 638.26 287.382 638.267 287.347 638.263ZM197.155 637.943H287.186L288.52 608.195H198.489L197.155 637.943Z" fill="white"/>
<path d="M244.805 526.287H184.482L183.988 537.52H244.298L244.805 526.287Z" fill="#84CC16"/>
<path d="M291.669 395.889C291.324 403.188 288.728 410.201 284.238 415.966C280.915 420.32 276.637 423.855 271.735 426.299C266.833 428.743 261.435 430.032 255.958 430.066C251.531 430.1 247.144 429.227 243.068 427.501C238.991 425.775 235.311 423.233 232.254 420.031C229.197 416.83 226.828 413.036 225.293 408.884C223.758 404.732 223.089 400.309 223.328 395.889C223.797 386.716 227.753 378.07 234.386 371.717C241.019 365.364 249.828 361.785 259.012 361.712C263.442 361.671 267.834 362.538 271.915 364.261C275.997 365.984 279.682 368.525 282.742 371.728C285.803 374.931 288.174 378.728 289.709 382.883C291.245 387.039 291.911 391.465 291.669 395.889Z" fill="white"/>
<path d="M294.884 368.862C294.797 370.803 294.106 372.668 292.909 374.198C292.023 375.355 290.885 376.294 289.581 376.943C288.277 377.593 286.842 377.936 285.386 377.947C283.974 377.955 282.582 377.618 281.331 376.965C280.08 376.311 279.008 375.361 278.209 374.198C277.15 372.626 276.626 370.755 276.715 368.862C276.844 366.427 277.897 364.132 279.659 362.447C281.422 360.761 283.761 359.811 286.199 359.791C287.376 359.78 288.542 360.01 289.626 360.468C290.71 360.925 291.689 361.599 292.503 362.449C293.316 363.299 293.947 364.306 294.357 365.409C294.766 366.512 294.946 367.687 294.884 368.862Z" fill="#84CC16"/>
<path d="M201.17 489.442C201.106 490.517 200.637 491.528 199.857 492.271C199.077 493.013 198.045 493.433 196.968 493.444C196.448 493.451 195.932 493.35 195.453 493.149C194.973 492.948 194.54 492.651 194.18 492.276C193.82 491.901 193.541 491.456 193.359 490.968C193.178 490.481 193.099 489.962 193.126 489.442C193.184 488.365 193.651 487.351 194.432 486.607C195.214 485.863 196.25 485.446 197.328 485.44C197.848 485.436 198.362 485.538 198.841 485.74C199.32 485.941 199.752 486.239 200.112 486.613C200.471 486.988 200.751 487.432 200.933 487.919C201.115 488.405 201.196 488.924 201.17 489.442Z" fill="#263238"/>
<path d="M219.152 489.442C219.092 490.518 218.623 491.531 217.843 492.274C217.062 493.018 216.028 493.436 214.95 493.444C214.432 493.449 213.917 493.347 213.439 493.145C212.961 492.943 212.53 492.646 212.171 492.271C211.813 491.896 211.534 491.452 211.354 490.965C211.173 490.479 211.094 489.96 211.122 489.442C211.179 488.367 211.645 487.355 212.423 486.611C213.202 485.868 214.234 485.449 215.311 485.44C215.83 485.434 216.346 485.535 216.826 485.736C217.305 485.937 217.738 486.234 218.099 486.609C218.459 486.984 218.738 487.429 218.919 487.916C219.1 488.404 219.18 488.923 219.152 489.442Z" fill="#263238"/>
<path d="M237.148 489.442C237.087 490.518 236.619 491.531 235.838 492.274C235.058 493.018 234.024 493.436 232.946 493.444C232.427 493.449 231.912 493.347 231.433 493.145C230.955 492.943 230.522 492.646 230.163 492.271C229.803 491.897 229.523 491.453 229.341 490.966C229.159 490.48 229.079 489.961 229.104 489.442C229.165 488.366 229.633 487.354 230.414 486.61C231.194 485.867 232.228 485.449 233.306 485.44C233.826 485.434 234.342 485.535 234.821 485.736C235.301 485.937 235.734 486.234 236.094 486.609C236.454 486.984 236.734 487.429 236.915 487.916C237.096 488.404 237.176 488.923 237.148 489.442Z" fill="#263238"/>
<path d="M198.142 557.13C198.078 558.204 197.609 559.215 196.829 559.958C196.049 560.7 195.017 561.12 193.94 561.132C193.421 561.136 192.906 561.034 192.427 560.832C191.948 560.631 191.516 560.333 191.156 559.959C190.797 559.584 190.517 559.14 190.335 558.653C190.153 558.167 190.073 557.648 190.098 557.13C190.159 556.053 190.627 555.041 191.408 554.298C192.188 553.554 193.222 553.136 194.3 553.128C194.819 553.123 195.334 553.225 195.813 553.427C196.291 553.628 196.724 553.926 197.084 554.3C197.443 554.675 197.723 555.119 197.905 555.606C198.087 556.092 198.167 556.611 198.142 557.13Z" fill="#263238"/>
<path d="M216.124 557.13C216.063 558.203 215.597 559.214 214.819 559.957C214.042 560.7 213.011 561.12 211.936 561.132C211.416 561.138 210.9 561.037 210.42 560.836C209.941 560.635 209.508 560.338 209.148 559.963C208.787 559.588 208.508 559.143 208.327 558.655C208.146 558.168 208.066 557.649 208.094 557.13C208.155 556.053 208.623 555.041 209.403 554.298C210.184 553.554 211.218 553.136 212.296 553.128C212.815 553.123 213.329 553.225 213.807 553.427C214.285 553.629 214.716 553.926 215.075 554.301C215.434 554.676 215.712 555.12 215.892 555.607C216.073 556.093 216.152 556.611 216.124 557.13Z" fill="#263238"/>
<path d="M234.16 557.13C234.099 558.206 233.631 559.218 232.85 559.961C232.07 560.705 231.036 561.123 229.958 561.132C229.439 561.134 228.925 561.031 228.447 560.828C227.97 560.626 227.538 560.329 227.179 559.954C226.819 559.58 226.54 559.137 226.357 558.651C226.175 558.166 226.092 557.648 226.116 557.13C226.18 556.055 226.649 555.044 227.429 554.301C228.209 553.559 229.241 553.139 230.318 553.128C230.838 553.121 231.354 553.222 231.833 553.423C232.313 553.624 232.746 553.921 233.106 554.296C233.466 554.671 233.745 555.116 233.927 555.604C234.108 556.091 234.187 556.61 234.16 557.13Z" fill="#263238"/>
<path d="M252.116 557.13C252.052 558.204 251.582 559.215 250.802 559.958C250.023 560.7 248.99 561.12 247.913 561.132C247.395 561.134 246.881 561.031 246.403 560.828C245.925 560.626 245.494 560.329 245.134 559.954C244.775 559.58 244.496 559.137 244.313 558.651C244.13 558.165 244.048 557.648 244.072 557.13C244.136 556.055 244.605 555.044 245.385 554.301C246.164 553.559 247.197 553.139 248.274 553.128C248.793 553.123 249.308 553.225 249.786 553.427C250.265 553.628 250.697 553.926 251.057 554.3C251.417 554.675 251.696 555.119 251.878 555.606C252.06 556.092 252.141 556.611 252.116 557.13Z" fill="#263238"/>
<path d="M270.178 557.13C270.114 558.204 269.645 559.215 268.865 559.958C268.085 560.7 267.053 561.12 265.976 561.132C265.456 561.138 264.94 561.037 264.461 560.836C263.981 560.635 263.548 560.338 263.188 559.963C262.828 559.588 262.549 559.143 262.367 558.655C262.186 558.168 262.107 557.649 262.134 557.13C262.195 556.053 262.663 555.041 263.444 554.298C264.224 553.554 265.258 553.136 266.336 553.128C266.855 553.123 267.37 553.225 267.849 553.427C268.327 553.628 268.76 553.926 269.12 554.3C269.479 554.675 269.759 555.119 269.941 555.606C270.123 556.092 270.203 556.611 270.178 557.13Z" fill="#263238"/>
<path d="M267.448 394.109C273.031 388.649 273.328 379.897 268.11 374.561C262.891 369.225 254.135 369.326 248.552 374.786C242.968 380.246 242.672 388.998 247.89 394.334C253.108 399.67 261.864 399.569 267.448 394.109Z" fill="#84CC16"/>
<path d="M284.238 415.966C280.915 420.32 276.637 423.855 271.735 426.299C266.833 428.744 261.435 430.032 255.958 430.066C250.646 430.111 245.404 428.848 240.696 426.389C235.987 423.93 231.956 420.351 228.957 415.966C235.441 409.509 245.699 405.294 257.065 405.294C268.43 405.294 278.329 409.509 284.238 415.966Z" fill="#84CC16"/>
<path opacity="0.1" d="M267.448 394.109C273.031 388.649 273.328 379.897 268.11 374.561C262.891 369.225 254.135 369.326 248.552 374.786C242.968 380.246 242.672 388.998 247.89 394.334C253.108 399.67 261.864 399.569 267.448 394.109Z" fill="white"/>
<path opacity="0.1" d="M284.238 415.966C280.915 420.32 276.637 423.855 271.735 426.299C266.833 428.744 261.435 430.032 255.958 430.066C250.646 430.111 245.404 428.848 240.696 426.389C235.987 423.93 231.956 420.351 228.957 415.966C235.441 409.509 245.699 405.294 257.065 405.294C268.43 405.294 278.329 409.509 284.238 415.966Z" fill="white"/>
<path d="M87.9669 508.025C86.6996 510.8 85.3656 513.855 84.205 516.816C83.0444 519.777 81.8572 522.832 80.83 525.874C78.7327 531.868 77.1354 538.025 76.0543 544.283L75.7608 546.244C75.7328 546.58 75.7644 546.919 75.8542 547.245C76.169 548.35 76.6649 549.396 77.3216 550.339C79.0347 552.782 81.022 555.02 83.2446 557.009C85.5878 559.189 88.0459 561.242 90.6082 563.159C93.1695 565.134 95.8642 567.054 98.5189 568.869L96.0243 573.551C89.6854 570.789 83.6686 567.34 78.082 563.266C75.1015 561.092 72.4116 558.546 70.078 555.689C68.6947 553.988 67.6161 552.061 66.8897 549.993C66.4674 548.701 66.2513 547.35 66.2494 545.991C66.2494 545.67 66.2494 545.204 66.2494 544.977V544.323L66.3828 542.989C67.1476 536.039 68.609 529.183 70.745 522.526C71.7855 519.244 72.8927 515.976 74.16 512.787C75.4273 509.599 76.7346 506.478 78.3488 503.236L87.9669 508.025Z" fill="#E58A7B"/>
<path d="M96.6379 568.042L106.069 563.266L103.628 573.618C103.628 573.618 97.1582 575.432 94.1567 572.284L96.6379 568.042Z" fill="#E58A7B"/>
<path d="M114.7 564.96L112.192 573.524L103.628 573.618L106.069 563.266L114.7 564.96Z" fill="#E58A7B"/>
<path d="M128.014 458.08C128.518 459.929 129.22 461.718 130.108 463.416C129.849 463.71 129.515 463.929 129.141 464.048C128.768 464.168 128.369 464.185 127.987 464.096L128.014 458.08Z" fill="#DF5753"/>
<path d="M127.733 458.16C128.286 458.16 128.734 457.473 128.734 456.626C128.734 455.779 128.286 455.092 127.733 455.092C127.181 455.092 126.733 455.779 126.733 456.626C126.733 457.473 127.181 458.16 127.733 458.16Z" fill="#263238"/>
<path d="M127.44 455.145L129.468 454.572C129.468 454.572 128.48 456.146 127.44 455.145Z" fill="#263238"/>
<path d="M101.961 467.872C103.174 474.075 104.388 485.454 100.04 489.602C100.04 489.602 101.747 495.899 113.286 495.899C125.973 495.899 119.343 489.602 119.343 489.602C112.419 487.948 112.593 482.812 113.806 477.983L101.961 467.872Z" fill="#E58A7B"/>
<path d="M98.5856 453.731C99.2259 464.096 99.2793 468.499 104.509 473.821C112.392 481.825 124.985 478.784 127.453 468.485C129.681 459.147 128.267 443.78 118.115 439.657C115.887 438.739 113.461 438.405 111.068 438.686C108.674 438.967 106.392 439.854 104.436 441.263C102.481 442.672 100.918 444.556 99.8939 446.738C98.8701 448.92 98.4198 451.327 98.5856 453.731Z" fill="#E58A7B"/>
<path d="M99.6127 442.072C94.4101 443.966 87.4733 442.552 90.1947 458.6C93.0761 475.595 88.6472 481.185 88.6472 481.185C88.6472 481.185 108.377 485.387 128.52 480.931C128.52 480.931 122.371 470.179 124.092 462.255C126.293 452.25 124.558 448.555 124.558 448.555C124.558 448.555 106.923 439.404 99.6127 442.072Z" fill="#263238"/>
<path d="M121.624 459.134C121.629 461.105 122.193 463.034 123.251 464.697C124.665 466.858 126.333 466.031 126.746 463.736C127.12 461.722 126.84 458.16 125.039 456.773C123.238 455.385 121.65 456.746 121.624 459.134Z" fill="#E58A7B"/>
<path d="M95.0905 443.82C93.5964 439.617 100.72 433.148 115.794 435.816C130.868 438.484 131.522 451.036 131.522 451.036L128.48 447.408L128.614 451.223L113.126 454.198L95.0905 443.82Z" fill="#263238"/>
<path d="M96.3711 490.309C96.2821 489.7 96.4345 489.081 96.7959 488.582C97.1572 488.084 97.6988 487.746 98.3054 487.641C103.001 486.868 113.673 485.294 119.036 486.041C123.038 486.601 124.078 488.922 124.252 490.83C124.279 491.164 124.234 491.5 124.121 491.815C124.007 492.13 123.828 492.418 123.594 492.658C123.36 492.898 123.077 493.085 122.765 493.207C122.453 493.329 122.118 493.383 121.784 493.364L98.5989 492.324C98.0523 492.296 97.532 492.081 97.1261 491.714C96.7201 491.347 96.4534 490.851 96.3711 490.309Z" fill="#84CC16"/>
<path opacity="0.6" d="M96.3711 490.309C96.2821 489.7 96.4345 489.081 96.7959 488.582C97.1572 488.084 97.6988 487.746 98.3054 487.641C103.001 486.868 113.673 485.294 119.036 486.041C123.038 486.601 124.078 488.922 124.252 490.83C124.279 491.164 124.234 491.5 124.121 491.815C124.007 492.13 123.828 492.418 123.594 492.658C123.36 492.898 123.077 493.085 122.765 493.207C122.453 493.329 122.118 493.383 121.784 493.364L98.5989 492.324C98.0523 492.296 97.532 492.081 97.1261 491.714C96.7201 491.347 96.4534 490.851 96.3711 490.309Z" fill="black"/>
<path d="M109.778 723.359L118.382 729.336L132.776 709.819L124.172 703.856L109.778 723.359Z" fill="#E58A7B"/>
<path d="M89.7145 722.972L98.799 728.148L111.539 707.511L102.454 702.335L89.7145 722.972Z" fill="#E58A7B"/>
<path d="M132.763 709.819L125.346 719.877L116.741 713.915L124.158 703.856L132.763 709.819Z" fill="#CF6F64"/>
<path d="M102.441 702.335L111.539 707.525L104.975 718.157L95.8776 712.967L102.441 702.335Z" fill="#CF6F64"/>
<path d="M117.035 555.462C117.035 555.462 150.625 597.79 144.315 638.277C139.232 670.973 109.751 715.249 109.751 715.249L95.8908 708.365C105.66 688.789 113.997 668.53 120.837 647.748C122.946 641.296 123.561 634.449 122.637 627.724C121.712 620.999 119.272 614.573 115.501 608.929C98.4788 584.076 71.2118 598.87 89.5543 555.462H117.035Z" fill="#84CC16"/>
<path opacity="0.6" d="M117.035 555.462C117.035 555.462 150.625 597.79 144.315 638.277C139.232 670.973 109.751 715.249 109.751 715.249L95.8908 708.365C105.66 688.789 113.997 668.53 120.837 647.748C122.946 641.296 123.561 634.449 122.637 627.724C121.712 620.999 119.272 614.573 115.501 608.929C98.4788 584.076 71.2118 598.87 89.5543 555.462H117.035Z" fill="black"/>
<path opacity="0.4" d="M133.51 582.649L128.627 577.793C128.627 578.18 138.085 636.569 140.74 652.977C142.307 648.184 143.506 643.279 144.328 638.303C147.45 618.44 140.927 598.15 133.51 582.649Z" fill="black"/>
<path d="M132.029 555.462C132.029 555.462 172.476 608.662 173.623 640.558C174.57 667.238 129.601 718.93 129.601 718.93L116.528 710.473C116.528 710.473 142.848 673.761 149.478 643.773C146.916 614.051 92.756 555.462 92.756 555.462H132.029Z" fill="#84CC16"/>
<path opacity="0.6" d="M132.029 555.462C132.029 555.462 172.476 608.662 173.623 640.558C174.57 667.238 129.601 718.93 129.601 718.93L116.528 710.473C116.528 710.473 142.848 673.761 149.478 643.773C146.916 614.051 92.756 555.462 92.756 555.462H132.029Z" fill="black"/>
<path d="M81.9906 491.977C77.6685 493.004 73.5197 508.719 73.5197 508.719L90.4215 520.004C90.4215 520.004 96.051 507.571 94.0767 502.129C92.0356 496.459 87.42 490.683 81.9906 491.977Z" fill="#84CC16"/>
<path opacity="0.2" d="M85.2989 502.102L84.125 515.802L90.4081 520.018C92.143 516.112 93.4275 512.021 94.2367 507.825L85.2989 502.102Z" fill="black"/>
<path d="M137.031 492.284C137.031 492.284 142.021 494.031 132.029 555.449H89.5277C90.2481 538.107 90.2614 527.435 81.9906 491.977C87.9417 490.751 93.9738 489.957 100.04 489.602C106.466 489.142 112.917 489.142 119.343 489.602C127.64 490.363 137.031 492.284 137.031 492.284Z" fill="#84CC16"/>
<path d="M141.354 502.102C142.314 504.77 143.328 507.638 144.395 510.4C145.462 513.161 146.476 516.002 147.557 518.804L150.825 527.181L151.652 529.276L152.079 530.316L152.279 530.836C152.279 530.93 152.279 530.93 152.279 530.916C152.035 530.573 151.716 530.29 151.345 530.089C150.818 529.779 150.223 529.6 149.611 529.569C149.103 529.553 148.598 529.649 148.13 529.849C147.517 530.129 147.517 530.249 147.53 530.236C147.641 530.147 147.74 530.044 147.823 529.929C148.562 528.96 149.201 527.918 149.731 526.821C150.358 525.594 150.958 524.286 151.559 522.966C152.733 520.298 153.813 517.536 154.894 514.748C155.974 511.96 157.001 509.146 158.002 506.304L161.043 497.793L166.179 499.127C165.165 505.21 163.858 511.133 162.284 517.163C161.524 520.164 160.63 523.139 159.616 526.141C159.109 527.648 158.549 529.142 157.909 530.676C157.241 532.341 156.419 533.94 155.454 535.452C155.099 535.961 154.707 536.442 154.28 536.893C153.599 537.629 152.772 538.215 151.852 538.614C151.036 538.964 150.152 539.128 149.264 539.094C148.27 539.057 147.301 538.768 146.449 538.253C145.445 537.626 144.61 536.76 144.022 535.732C143.821 535.385 143.648 535.038 143.528 534.785L143.275 534.278L142.768 533.238L141.754 531.17C140.42 528.395 139.086 525.594 137.925 522.779C136.765 519.964 135.537 517.11 134.39 514.241C133.243 511.373 132.216 508.505 131.242 505.41L141.354 502.102Z" fill="#E58A7B"/>
<path d="M137.031 492.284C142.141 493.498 147.89 508.599 147.89 508.599L132.696 521.525C132.696 521.525 122.864 505.064 124.852 499.634C126.92 493.978 130.361 490.696 137.031 492.284Z" fill="#84CC16"/>
<path d="M163.458 493.017L168.794 488.562L172.503 494.338L169.768 499.154C169.768 499.154 165.419 503.156 161.577 501.115C160.967 499.744 160.821 498.212 161.16 496.751C161.5 495.29 162.306 493.979 163.458 493.017Z" fill="#E58A7B"/>
<path d="M178.425 488.575L178.025 490.029L169.581 491.443L168.754 488.562L178.425 488.575Z" fill="#E58A7B"/>
<path d="M130.642 719.611L115.407 709.766L118.142 705.017L135.257 715.542L130.642 719.611Z" fill="#84CC16"/>
<path d="M104.762 727.455C103.425 727.291 102.141 726.836 101 726.121C100.953 726.104 100.912 726.074 100.883 726.033C100.854 725.992 100.839 725.944 100.839 725.894C100.839 725.844 100.854 725.795 100.883 725.755C100.912 725.714 100.953 725.683 101 725.667C101.414 725.534 105.002 724.426 106.043 725.28C106.16 725.377 106.248 725.504 106.3 725.647C106.352 725.79 106.364 725.944 106.336 726.094C106.318 726.334 106.238 726.566 106.105 726.766C105.972 726.967 105.79 727.131 105.576 727.241C105.326 727.378 105.047 727.451 104.762 727.455ZM101.76 725.987C103.428 726.841 104.762 727.148 105.402 726.828C105.542 726.75 105.659 726.639 105.743 726.503C105.827 726.368 105.875 726.213 105.883 726.054C105.883 725.841 105.883 725.747 105.762 725.694C105.202 725.24 103.201 725.587 101.734 725.987H101.76Z" fill="#263238"/>
<path d="M101.093 726.214C101.023 726.213 100.956 726.184 100.907 726.134C100.887 726.097 100.876 726.056 100.876 726.014C100.876 725.972 100.887 725.931 100.907 725.894C100.907 725.774 101.774 722.879 103.134 722.225C103.308 722.146 103.497 722.105 103.688 722.105C103.879 722.105 104.068 722.146 104.242 722.225C104.429 722.285 104.591 722.405 104.702 722.567C104.814 722.729 104.867 722.923 104.855 723.119C104.762 724.32 102.321 725.974 101.2 726.254L101.093 726.214ZM103.681 722.572C103.552 722.576 103.424 722.608 103.308 722.666C102.481 723.066 101.8 724.627 101.467 725.574C102.641 725.08 104.255 723.773 104.308 723.039C104.308 722.919 104.308 722.772 104.002 722.639C103.902 722.585 103.793 722.549 103.681 722.532V722.572Z" fill="#263238"/>
<path d="M123.798 733.217C122.291 733.217 120.196 731.283 119.049 730.096C119.02 730.055 119.004 730.006 119.004 729.956C119.004 729.906 119.02 729.857 119.049 729.816C119.075 729.773 119.113 729.738 119.158 729.714C119.202 729.691 119.252 729.68 119.303 729.682C119.836 729.682 124.465 730.376 125.119 731.683C125.188 731.801 125.225 731.934 125.225 732.07C125.225 732.206 125.188 732.34 125.119 732.457C125.021 732.661 124.873 732.836 124.688 732.967C124.504 733.097 124.289 733.179 124.065 733.204L123.798 733.217ZM119.93 730.283C121.61 731.91 123.091 732.817 123.932 732.711C124.079 732.691 124.219 732.636 124.34 732.55C124.461 732.464 124.559 732.35 124.625 732.217C124.655 732.171 124.671 732.118 124.671 732.064C124.671 732.009 124.655 731.956 124.625 731.91C124.278 731.19 121.81 730.576 119.93 730.283Z" fill="#263238"/>
<path d="M120.076 730.216C119.777 730.225 119.477 730.202 119.183 730.149C119.141 730.143 119.102 730.126 119.07 730.101C119.037 730.075 119.011 730.041 118.996 730.003C118.976 729.963 118.965 729.92 118.965 729.876C118.965 729.832 118.976 729.788 118.996 729.749C119.076 729.656 120.877 727.481 122.584 727.335C123.068 727.297 123.546 727.45 123.918 727.761C124.438 728.215 124.412 728.615 124.278 728.869C123.945 729.776 121.637 730.216 120.076 730.216ZM119.729 729.722C121.224 729.802 123.611 729.309 123.918 728.655C123.918 728.655 124.025 728.442 123.678 728.148C123.54 728.028 123.379 727.938 123.204 727.883C123.03 727.828 122.846 727.809 122.664 727.828C121.514 728.149 120.49 728.815 119.729 729.736V729.722Z" fill="#263238"/>
<path d="M101.454 724.773L90.1413 721.572C89.9463 721.513 89.7364 721.528 89.5517 721.614C89.3671 721.7 89.2208 721.851 89.1408 722.039L85.3256 730.616C85.236 730.836 85.1939 731.072 85.2021 731.309C85.2103 731.546 85.2687 731.779 85.3732 731.992C85.4778 732.205 85.6263 732.393 85.8089 732.545C85.9915 732.696 86.2042 732.807 86.4328 732.871C90.4348 733.911 92.3557 734.205 97.3316 735.632C100.4 736.486 104.775 738.073 109.004 739.274C113.233 740.474 114.647 736.352 113.006 735.472C105.589 731.55 105.002 728.802 102.974 725.867C102.611 725.336 102.073 724.949 101.454 724.773Z" fill="#84CC16"/>
<path d="M119.356 728.535L109.698 721.865C109.534 721.746 109.332 721.691 109.131 721.711C108.929 721.73 108.741 721.823 108.604 721.972L102.201 728.855C102.045 729.033 101.928 729.242 101.859 729.469C101.79 729.695 101.77 729.934 101.801 730.168C101.831 730.403 101.911 730.628 102.035 730.83C102.159 731.031 102.325 731.204 102.521 731.337C105.923 733.618 107.683 734.538 111.939 737.486C114.607 739.301 119.769 743.329 123.371 745.837C126.973 748.345 129.654 744.903 128.374 743.543C122.638 737.42 121.384 733.578 120.436 730.096C120.272 729.464 119.889 728.911 119.356 728.535Z" fill="#84CC16"/>
<path d="M111.525 716.129L94.1166 707.471L95.9175 702.749L114.513 711.873L111.525 716.129Z" fill="#84CC16"/>
<path d="M88.8874 552.954L87.42 556.796C87.2733 557.089 87.6201 557.396 88.1137 557.396H132.242C132.629 557.396 132.949 557.21 132.976 556.969L133.35 553.154C133.35 552.901 133.043 552.674 132.629 552.674H89.5811C89.4515 552.662 89.3209 552.681 89.2002 552.73C89.0794 552.778 88.9722 552.855 88.8874 552.954Z" fill="#84CC16"/>
<path opacity="0.4" d="M88.8874 552.954L87.42 556.796C87.2733 557.089 87.6201 557.396 88.1137 557.396H132.242C132.629 557.396 132.949 557.21 132.976 556.969L133.35 553.154C133.35 552.901 133.043 552.674 132.629 552.674H89.5811C89.4515 552.662 89.3209 552.681 89.2002 552.73C89.0794 552.778 88.9722 552.855 88.8874 552.954Z" fill="white"/>
<path d="M95.8375 557.77H94.677C94.4502 557.77 94.2767 557.65 94.2901 557.503L94.837 552.554C94.837 552.42 95.0505 552.3 95.2773 552.3H96.4378C96.6646 552.3 96.838 552.42 96.8247 552.554L96.2778 557.503C96.2644 557.65 96.0643 557.77 95.8375 557.77Z" fill="#84CC16"/>
<path d="M123.051 557.77H121.904C121.677 557.77 121.504 557.65 121.517 557.503L122.051 552.554C122.051 552.42 122.277 552.3 122.504 552.3H123.651C123.878 552.3 124.065 552.42 124.038 552.554L123.505 557.503C123.438 557.65 123.291 557.77 123.051 557.77Z" fill="#84CC16"/>
<g style="mix-blend-mode:multiply">
<path d="M94.8237 783.683C114.561 783.683 130.562 782.524 130.562 781.095C130.562 779.665 114.561 778.507 94.8237 778.507C75.0862 778.507 59.0858 779.665 59.0858 781.095C59.0858 782.524 75.0862 783.683 94.8237 783.683Z" fill="#F5F5F5"/>
</g>
<path d="M116.595 777.44C110.271 775.599 103.255 773.237 99.0124 770.77C98.8923 770.69 98.7589 770.65 98.6389 770.583V741.955H111.432C112.403 741.898 113.316 741.471 113.983 740.763C114.65 740.055 115.022 739.119 115.022 738.147C115.022 737.174 114.65 736.238 113.983 735.53C113.316 734.822 112.403 734.396 111.432 734.338H98.7056V603.846H91.0217V734.338H78.3087C77.7896 734.307 77.2697 734.383 76.7809 734.561C76.2921 734.738 75.8448 735.014 75.4664 735.37C75.0879 735.727 74.7864 736.157 74.5804 736.635C74.3743 737.112 74.268 737.627 74.268 738.147C74.268 738.667 74.3743 739.181 74.5804 739.659C74.7864 740.136 75.0879 740.566 75.4664 740.923C75.8448 741.28 76.2921 741.555 76.7809 741.733C77.2697 741.91 77.7896 741.986 78.3087 741.955H91.0217V770.543C90.9017 770.543 90.7816 770.649 90.6615 770.73C86.3527 773.237 79.3892 775.599 73.0661 777.4C72.6389 777.529 72.2722 777.807 72.0322 778.183C71.7922 778.559 71.6948 779.009 71.7577 779.45C71.8205 779.892 72.0395 780.297 72.375 780.591C72.7104 780.885 73.1401 781.05 73.5863 781.055H116.074C116.501 781.026 116.904 780.851 117.217 780.561C117.531 780.27 117.735 779.88 117.796 779.457C117.857 779.034 117.771 778.603 117.552 778.236C117.333 777.869 116.995 777.588 116.595 777.44Z" fill="#E0E0E0"/>
<path d="M118.556 590.56H71.1185C67.3021 590.56 64.2084 593.653 64.2084 597.47V611.57C64.2084 615.386 67.3021 618.48 71.1185 618.48H118.556C122.372 618.48 125.466 615.386 125.466 611.57V597.47C125.466 593.653 122.372 590.56 118.556 590.56Z" fill="#84CC16"/>
<path d="M70.6783 618.494V620.921C70.6783 622.922 72.8527 624.55 75.5207 624.55H114.207C116.875 624.55 119.049 622.922 119.049 620.921V618.494H70.6783Z" fill="#84CC16"/>
<path opacity="0.3" d="M70.6783 618.494V620.921C70.6783 622.922 72.8527 624.55 75.5207 624.55H114.207C116.875 624.55 119.049 622.922 119.049 620.921V618.494H70.6783Z" fill="white"/>
</svg>
