<svg width="852" height="1080" viewBox="0 0 852 1080" fill="none" xmlns="http://www.w3.org/2000/svg">
<rect x="-136" y="-15" width="790" height="1131" rx="180" fill="#2F3C33"/>
<path d="M852 796.544H70V796.972H852V796.544Z" fill="#E6E6E6"/>
<path d="M265.219 822.494H213.419V822.923H265.219V822.494Z" fill="#E6E6E6"/>
<path d="M197.028 822.494H167.015V822.923H197.028V822.494Z" fill="#E6E6E6"/>
<path d="M399.3 828.805H369.287V829.235H399.3V828.805Z" fill="#E6E6E6"/>
<path d="M555.794 838.376H488.245V838.805H555.794V838.376Z" fill="#E6E6E6"/>
<path d="M474.326 838.376H464.425V838.805H474.326V838.376Z" fill="#E6E6E6"/>
<path d="M779.039 828.805H632.524V829.235H779.039V828.805Z" fill="#E6E6E6"/>
<path d="M440.668 720.047H138.675C136.309 720.043 134.042 719.009 132.371 717.173C130.699 715.336 129.76 712.848 129.76 710.254V244.707C129.781 242.128 130.729 239.662 132.398 237.844C134.067 236.026 136.323 235.004 138.675 235H440.668C443.036 235 445.308 236.032 446.982 237.868C448.658 239.704 449.598 242.196 449.598 244.793V710.254C449.598 712.851 448.658 715.343 446.982 717.179C445.308 719.016 443.036 720.047 440.668 720.047ZM138.675 235.343C136.413 235.347 134.245 236.336 132.647 238.092C131.049 239.847 130.151 242.227 130.151 244.707V710.254C130.151 712.734 131.049 715.114 132.647 716.87C134.245 718.625 136.413 719.614 138.675 719.619H440.668C442.932 719.614 445.101 718.626 446.701 716.87C448.303 715.115 449.203 712.736 449.208 710.254V244.707C449.203 242.226 448.303 239.846 446.701 238.091C445.101 236.336 442.932 235.347 440.668 235.343H138.675Z" fill="#E6E6E6"/>
<path d="M778.977 720.047H476.968C474.601 720.043 472.332 719.009 470.658 717.173C468.984 715.339 468.042 712.849 468.038 710.254V244.707C468.062 242.127 469.013 239.661 470.685 237.843C472.357 236.026 474.614 235.004 476.968 235H778.977C781.327 235.009 783.578 236.032 785.244 237.85C786.91 239.667 787.855 242.131 787.876 244.707V710.254C787.876 712.846 786.939 715.331 785.271 717.167C783.603 719.002 781.34 720.038 778.977 720.047ZM476.968 235.343C474.704 235.347 472.535 236.336 470.935 238.091C469.334 239.846 468.433 242.226 468.428 244.707V710.254C468.433 712.736 469.334 715.115 470.935 716.87C472.535 718.626 474.704 719.614 476.968 719.619H778.977C781.24 719.614 783.41 718.626 785.01 716.87C786.611 715.115 787.512 712.736 787.516 710.254V244.707C787.512 242.226 786.611 239.846 785.01 238.091C783.41 236.336 781.24 235.347 778.977 235.343H476.968Z" fill="#E6E6E6"/>
<path d="M488.214 650.034H453.821V799.648H488.214V650.034Z" fill="#E0E0E0"/>
<path d="M481.675 799.648H488.214V779.271H474.826L481.675 799.648Z" fill="#FAFAFA"/>
<path d="M337.506 650.034H303.115V799.648H337.506V650.034Z" fill="#E0E0E0"/>
<path d="M488.214 650.034H331.814V787.144H488.214V650.034Z" fill="#FAFAFA"/>
<path d="M482.536 656.775V693.051H337.444V656.775H482.489M483.099 656.107H336.881V693.703H483.146V656.107H483.099Z" fill="#E0E0E0"/>
<path d="M338.335 799.648H331.814V779.271H345.185L338.335 799.648Z" fill="#FAFAFA"/>
<path d="M406.556 674.904C406.556 675.653 406.759 676.386 407.139 677.01C407.519 677.633 408.059 678.119 408.69 678.406C409.322 678.693 410.017 678.769 410.688 678.622C411.359 678.476 411.974 678.114 412.457 677.585C412.941 677.055 413.27 676.379 413.403 675.643C413.537 674.909 413.468 674.147 413.206 673.454C412.945 672.761 412.502 672.169 411.934 671.753C411.366 671.336 410.697 671.114 410.014 671.114C409.097 671.114 408.218 671.513 407.569 672.224C406.921 672.935 406.556 673.898 406.556 674.904Z" fill="#E6E6E6"/>
<path d="M482.536 700.443V736.719H337.444V700.443H482.489M483.099 699.792H336.881V737.387H483.146V699.808L483.099 699.792Z" fill="#E0E0E0"/>
<path d="M406.556 718.675C406.556 719.425 406.759 720.158 407.139 720.781C407.519 721.405 408.059 721.891 408.69 722.177C409.322 722.464 410.017 722.539 410.688 722.392C411.359 722.247 411.974 721.886 412.457 721.356C412.941 720.825 413.27 720.15 413.403 719.414C413.537 718.679 413.468 717.917 413.206 717.225C412.945 716.532 412.502 715.94 411.934 715.524C411.366 715.107 410.697 714.885 410.014 714.885C409.097 714.885 408.218 715.283 407.569 715.994C406.921 716.705 406.556 717.67 406.556 718.675Z" fill="#E6E6E6"/>
<path d="M482.536 744.129V780.421H337.444V744.129H482.489M483.099 743.459H336.881V781.073H483.146V743.459H483.099Z" fill="#E0E0E0"/>
<path d="M406.556 762.274C406.56 763.024 406.765 763.755 407.147 764.376C407.528 764.997 408.07 765.48 408.702 765.764C409.334 766.049 410.028 766.121 410.697 765.973C411.367 765.825 411.981 765.463 412.463 764.932C412.945 764.401 413.272 763.726 413.404 762.99C413.537 762.256 413.468 761.495 413.205 760.803C412.943 760.112 412.501 759.52 411.932 759.105C411.364 758.688 410.696 758.467 410.014 758.467C409.558 758.467 409.108 758.566 408.687 758.757C408.267 758.948 407.885 759.23 407.564 759.583C407.242 759.937 406.988 760.357 406.816 760.819C406.643 761.28 406.555 761.775 406.556 762.274Z" fill="#E6E6E6"/>
<path d="M316.502 563.145H282.11V799.664H316.502V563.145Z" fill="#E0E0E0"/>
<path d="M309.965 799.648H316.502V779.271H303.13L309.965 799.648Z" fill="#FAFAFA"/>
<path d="M187.972 563.145H153.58V799.664H187.972V563.145Z" fill="#E0E0E0"/>
<path d="M316.502 563.145H182.264V787.162H316.502V563.145Z" fill="#FAFAFA"/>
<path d="M310.715 569.456V620.173H188.051V569.456H310.715ZM311.435 568.685H187.3V620.911H311.404V568.702L311.435 568.685Z" fill="#E0E0E0"/>
<path d="M310.715 626.365V760.886H252.284V626.365H310.715ZM311.435 625.577H251.581V761.674H311.435V625.577Z" fill="#E0E0E0"/>
<path d="M246.482 626.365V760.886H188.051V626.365H246.482ZM247.186 625.577H187.3V761.674H247.154V625.577H247.186Z" fill="#E0E0E0"/>
<path d="M188.801 799.648H182.264V779.271H195.652L188.801 799.648Z" fill="#FAFAFA"/>
<path d="M245.919 594.84C245.916 595.595 246.117 596.332 246.496 596.961C246.876 597.589 247.417 598.08 248.051 598.371C248.685 598.662 249.384 598.74 250.058 598.595C250.733 598.449 251.353 598.088 251.84 597.556C252.327 597.025 252.66 596.346 252.795 595.607C252.93 594.867 252.862 594.101 252.6 593.404C252.338 592.707 251.893 592.112 251.321 591.693C250.75 591.274 250.078 591.05 249.391 591.05C248.473 591.05 247.592 591.449 246.941 592.16C246.29 592.869 245.923 593.834 245.919 594.84Z" fill="#E6E6E6"/>
<path d="M258.306 690.426C258.306 691.18 258.51 691.917 258.892 692.544C259.274 693.17 259.817 693.659 260.453 693.946C261.088 694.234 261.787 694.308 262.461 694.16C263.135 694.011 263.754 693.647 264.238 693.112C264.723 692.579 265.053 691.899 265.185 691.159C265.317 690.419 265.246 689.652 264.981 688.957C264.716 688.263 264.268 687.669 263.695 687.252C263.122 686.835 262.449 686.616 261.762 686.619C261.307 686.619 260.856 686.717 260.436 686.909C260.015 687.1 259.634 687.382 259.313 687.735C258.991 688.089 258.737 688.508 258.564 688.971C258.392 689.433 258.304 689.928 258.306 690.426Z" fill="#E6E6E6"/>
<path d="M233.548 690.426C233.551 691.176 233.756 691.906 234.138 692.527C234.519 693.148 235.06 693.632 235.692 693.916C236.324 694.2 237.018 694.273 237.688 694.125C238.357 693.976 238.972 693.614 239.453 693.084C239.935 692.553 240.263 691.877 240.395 691.143C240.527 690.407 240.458 689.646 240.196 688.954C239.934 688.263 239.491 687.672 238.923 687.256C238.355 686.841 237.687 686.619 237.004 686.619C236.549 686.619 236.098 686.717 235.678 686.909C235.257 687.1 234.876 687.382 234.554 687.735C234.233 688.089 233.979 688.509 233.806 688.971C233.633 689.433 233.545 689.928 233.548 690.426Z" fill="#E6E6E6"/>
<path d="M229.637 497.197H215.139C216.475 504.909 217.316 512.716 217.657 520.557C217.657 529.133 206.615 563.145 222.349 563.145C238.083 563.145 227.041 529.218 227.041 520.557C227.407 512.713 228.275 504.908 229.637 497.197Z" fill="#E0E0E0"/>
<path d="M174.475 531.98V542.271C174.492 547.788 176.497 553.073 180.054 556.974C183.612 560.875 188.431 563.075 193.462 563.093H202.846C207.877 563.075 212.696 560.875 216.254 556.974C219.811 553.073 221.817 547.788 221.833 542.271V531.98H174.475Z" fill="#F5F5F5"/>
<path d="M376.028 628.218C376.028 640.224 388.274 650.034 403.241 650.034H416.754C431.722 650.034 443.968 640.224 443.968 628.218H376.028Z" fill="#E0E0E0"/>
<path d="M734.09 610.62C725.895 617.961 714.571 631.391 704.217 650.291C697.305 662.881 693.145 676.018 691.315 693.48C691.315 673.755 691.424 652.573 691.487 632.574C693.567 627.428 698.321 615.56 701.731 606.194C713.101 574.927 717.371 567.227 727.583 540.264C741.237 504.245 755.22 461.607 751.216 465.02C743.052 471.966 711.772 536.199 708.393 545.392C699.185 569.927 693.493 595.875 691.518 622.317C691.518 603.451 691.643 586.299 691.705 572.989C691.925 529.579 692.597 515.566 692.926 511.243C694.192 509.049 695.679 506.493 696.554 505.121C703.905 493.457 706.736 483.544 713.648 466.152C723.471 441.539 731.917 397.82 729.445 400.015C719.154 409.208 711.052 428.932 700.386 454.094C689.719 479.256 692.769 493.715 690.658 515.188C690.22 519.408 689.876 535.324 689.625 557.364C686.873 533.867 681.68 518.396 672.219 504.331C660.582 487.025 649.321 475.345 641.063 469.239C632.806 463.133 655.328 505.635 666.087 524.124C675.675 540.658 684.511 555.22 689.547 569.576C689.282 599.471 689.156 637.308 689.156 672.485C686.685 656.466 682.65 639.194 677.27 625.834C670.795 609.779 660.848 585.15 652.918 576.798C651.026 574.791 661.207 622.694 667.745 635.421C674.283 648.148 679.084 660.17 683.197 667.391C684.151 669.106 687.343 675.573 689.156 679.312C689.156 722.311 689.376 760.25 689.719 773.165H691.409C691.3 769.838 691.268 747.952 691.315 719C695.397 703.29 704.718 685.349 712.414 668.987C720.796 651.269 742.286 603.331 734.09 610.62Z" fill="#E0E0E0"/>
<path d="M715.056 799.648H666.04L662.334 746.958H718.763L715.056 799.648Z" fill="#F0F0F0"/>
<path d="M722.407 753.098H658.674L656.86 735.312H724.237L722.407 753.098Z" fill="#F5F5F5"/>
<path d="M264.342 270.161H176.68V375.729H264.342V270.161Z" fill="#E0E0E0"/>
<path d="M273.836 270.161H183.28V375.729H273.836V270.161Z" fill="#F5F5F5"/>
<path d="M266.251 367.411V278.479H190.866V367.411H266.251Z" fill="white"/>
<path d="M247.967 345.833V300.022H209.133V345.833H247.967Z" fill="#F5F5F5"/>
<path d="M711.319 282.459H629.88V380.532H711.319V282.459Z" fill="#E0E0E0"/>
<path d="M720.139 282.459H636.027V380.532H720.139V282.459Z" fill="#F5F5F5"/>
<path d="M713.101 372.797V290.194H643.081V372.797H713.101Z" fill="white"/>
<path d="M678.083 355.456C690.151 355.456 699.932 344.728 699.932 331.495C699.932 318.262 690.151 307.534 678.083 307.534C666.016 307.534 656.234 318.262 656.234 331.495C656.234 344.728 666.016 355.456 678.083 355.456Z" fill="#F5F5F5"/>
<path d="M355.414 333.107H290.383V411.421H355.414V333.107Z" fill="#E0E0E0"/>
<path d="M362.453 333.107H295.278V411.421H362.453V333.107Z" fill="#F5F5F5"/>
<path d="M356.821 405.247V339.281H300.909V405.247H356.821Z" fill="white"/>
<path d="M328.874 355.575L313.577 384.63H344.169L328.874 355.575Z" fill="#F5F5F5"/>
<path d="M461 874C628.477 874 764.244 865.307 764.244 854.584C764.244 843.861 628.477 835.168 461 835.168C293.523 835.168 157.756 843.861 157.756 854.584C157.756 865.307 293.523 874 461 874Z" fill="#F5F5F5"/>
<path d="M616.226 420.975L600.712 414.115C600.712 414.115 580.239 455.055 574.375 457.13C566.398 459.943 549.882 467.764 540.091 469.136C538.761 470.851 536.588 476.186 536.792 478.123C549.945 482.944 578.847 476.546 585.041 471.503C599.133 460.063 616.226 420.975 616.226 420.975Z" fill="#E58A7B"/>
<path d="M620.997 411.662C623.89 423.376 608.219 446.942 608.219 446.942L587.684 434.319C587.684 434.319 591.532 424.628 596.224 414.765C603.746 398.833 617.697 398.3 620.997 411.662Z" fill="#84CC16"/>
<path opacity="0.2" d="M620.997 411.662C623.89 423.376 608.219 446.942 608.219 446.942L587.684 434.319C587.684 434.319 591.532 424.628 596.224 414.765C603.746 398.833 617.697 398.3 620.997 411.662Z" fill="black"/>
<path opacity="0.2" d="M595.832 439.361L603.918 444.336L605.341 417.116C600.633 421.078 597.317 433.015 595.832 439.361Z" fill="black"/>
<path d="M607.484 402.845C607.484 402.845 591.5 441.848 600.822 514.468H663.804C664.805 503.869 661.489 452.139 673.485 402.193C666.576 400.714 659.586 399.733 652.558 399.261C643.646 398.695 634.711 398.695 625.799 399.261C619.621 399.949 613.498 401.147 607.484 402.845Z" fill="#84CC16"/>
<path opacity="0.2" d="M607.484 402.845C607.484 402.845 591.5 441.848 600.822 514.468H663.804C664.805 503.869 661.489 452.139 673.485 402.193C666.576 400.714 659.586 399.733 652.558 399.261C643.646 398.695 634.711 398.695 625.799 399.261C619.621 399.949 613.498 401.147 607.484 402.845Z" fill="black"/>
<g style="mix-blend-mode:multiply">
<path d="M592.876 856.128C592.783 857.98 616.665 859.473 646.208 859.473C675.753 859.473 699.806 857.98 699.901 856.128C699.995 854.276 676.128 852.801 646.568 852.801C617.009 852.801 592.985 854.292 592.876 856.128Z" fill="#E8ECF1"/>
</g>
<path d="M634.918 807.456L623.747 812.199L633.369 839.459L644.54 834.717L634.918 807.456Z" fill="#E58A7B"/>
<path d="M684.73 842.938H672.954L668.637 813.044H680.414L684.73 842.938Z" fill="#E58A7B"/>
<path d="M672.14 841.447H685.372C685.6 841.447 685.823 841.537 685.998 841.7C686.172 841.863 686.289 842.09 686.325 842.338L688.03 853.813C688.066 854.101 688.045 854.394 687.969 854.672C687.892 854.949 687.762 855.207 687.586 855.425C687.412 855.642 687.196 855.817 686.953 855.936C686.712 856.054 686.449 856.113 686.184 856.11C681.571 856.026 679.35 855.717 673.532 855.717C669.95 855.717 662.584 856.128 657.61 856.128C652.637 856.128 652.308 850.777 654.357 850.28C663.553 848.102 667.12 845.134 670.184 842.253C670.726 841.732 671.42 841.445 672.14 841.447Z" fill="#263238"/>
<path d="M633.04 837.021L645.552 833.007C645.775 832.939 646.014 832.956 646.226 833.055C646.44 833.155 646.615 833.332 646.724 833.556L651.416 843.847C651.526 844.108 651.582 844.392 651.581 844.68C651.578 844.967 651.52 845.25 651.408 845.509C651.297 845.769 651.135 845.999 650.933 846.183C650.733 846.367 650.497 846.501 650.244 846.574C645.693 847.946 642.643 848.787 636.95 850.605C633.025 851.857 629.021 853.898 625.142 855.253C622.452 856.196 616.133 856.231 612.864 856.231C608.031 856.231 606.953 850.639 609.033 850.382C614.272 849.747 614.976 850.039 617.869 848.443C622.603 846.174 626.894 842.925 630.507 838.874C631.188 838.021 632.061 837.384 633.04 837.021Z" fill="#263238"/>
<path d="M542.062 469.068L529.112 463.116L523.779 478.861C529.087 479.748 534.487 479.748 539.794 478.861L542.062 469.068Z" fill="#E58A7B"/>
<path d="M519.478 462.705L519.134 473.167L523.779 478.827L529.112 463.082L519.478 462.705Z" fill="#E58A7B"/>
<path d="M636.451 809.771L625.245 814.516L630.207 828.613L641.412 823.868L636.451 809.771Z" fill="#CF6F64"/>
<path d="M680.414 813.044H668.637L670.873 828.462H682.649L680.414 813.044Z" fill="#CF6F64"/>
<path opacity="0.2" d="M598.819 494.83C599.054 497.934 599.32 501.107 599.664 504.366L646.49 487.694C653.803 485.318 660.158 480.278 664.507 473.407C664.695 468.827 664.929 464.009 665.289 458.983C665.445 456.547 665.634 454.043 665.837 451.505C666.04 448.966 666.322 446.154 666.619 443.443L598.819 494.83Z" fill="black"/>
<path d="M614.116 438.572L612.552 438.366C613.475 429.79 619.307 423.032 625.454 423.205V424.92C620.074 424.799 614.945 430.888 614.116 438.572Z" fill="white"/>
<path d="M622.452 454.403H622.185V452.688C627.566 452.912 632.618 446.754 633.447 439.087L635.011 439.293C634.182 447.68 628.535 454.403 622.452 454.403Z" fill="white"/>
<path d="M651.682 366.21C649.477 375.66 646.881 392.966 652.558 399.261C652.558 399.261 648.586 408.848 632.586 408.848C617.963 408.848 625.799 399.261 625.799 399.261C635.527 396.756 635.699 388.97 634.416 381.595L651.682 366.21Z" fill="#E58A7B"/>
<path d="M644.644 372.487L634.431 381.595C634.748 383.289 634.931 385.011 634.979 386.74C637.966 389.998 643.956 381.749 644.567 377.529C644.876 375.868 644.903 374.159 644.644 372.487Z" fill="#CF6F64"/>
<path d="M616.868 366.09C617.579 367.44 618.536 368.615 619.679 369.542C620.823 370.469 622.129 371.128 623.515 371.475C627.269 372.384 629.145 368.594 628.113 364.787C627.191 361.356 624.11 356.742 620.293 357.531C619.476 357.716 618.711 358.112 618.062 358.688C617.413 359.264 616.899 360.001 616.564 360.839C616.229 361.678 616.081 362.592 616.134 363.505C616.186 364.419 616.438 365.305 616.868 366.09Z" fill="#CF6F64"/>
<path d="M623.077 335.851C617.228 338.784 615.163 364.272 622.514 368.044C629.865 371.818 634.15 330.277 623.077 335.851Z" fill="#263238"/>
<path d="M653.466 351.991C652.058 364.787 651.902 372.316 645.646 378.868C643.708 381.042 641.259 382.586 638.57 383.331C635.881 384.075 633.058 383.99 630.41 383.085C627.763 382.18 625.396 380.49 623.569 378.202C621.741 375.914 620.527 373.118 620.059 370.121C618.167 358.629 620.778 339.642 632.477 334.547C634.935 333.359 637.638 332.912 640.307 333.255C642.975 333.597 645.511 334.717 647.652 336.497C649.793 338.276 651.461 340.651 652.483 343.375C653.506 346.1 653.844 349.075 653.466 351.991Z" fill="#E58A7B"/>
<path d="M634.244 342.471C642.909 340.053 649.274 338.407 646.991 346.314C643.973 356.879 640.344 367.102 645.208 367.565C648.179 367.857 661.317 361.751 659.643 355.559C658.189 350.173 664.335 348.698 665.43 345.971C669.481 336.092 657.892 337.395 659.956 331.392C662.021 325.389 650.572 315.715 644.316 320.536C634.135 328.322 616.665 328.202 625.846 315.39C632.43 306.247 620.684 308.117 620.684 308.117C620.684 308.117 627.785 312.731 615.836 319.866C603.199 327.481 614.788 347.943 634.244 342.471Z" fill="#263238"/>
<path d="M658.064 366.09C656.353 368.804 653.783 370.724 650.854 371.475C646.991 372.384 645.505 368.594 646.96 364.787C648.258 361.356 651.823 356.742 655.515 357.531C659.206 358.321 660.05 362.728 658.064 366.09Z" fill="#E58A7B"/>
<path d="M600.822 514.468C600.822 514.468 590.249 618.235 589.42 657.616C588.575 698.573 625.252 826.37 625.252 826.37L644.02 817.795C644.02 817.795 622.124 701.026 625.252 660.806C628.567 616.948 642.268 514.536 642.268 514.536L600.822 514.468Z" fill="#84CC16"/>
<path opacity="0.2" d="M627.097 542.958C618.667 562.133 624.344 600.054 628.911 622.523C630.647 606.658 632.712 589.438 634.666 573.504C634.478 549.012 632.743 530.094 627.097 542.958Z" fill="black"/>
<path d="M643.191 811.002C643.284 811.002 645.411 817.554 645.411 817.554L623.765 827.536L620.355 820.573L643.191 811.002Z" fill="#84CC16"/>
<path d="M623.171 514.468C623.171 514.468 631.257 613.158 636.606 650.12C642.486 690.615 665.54 825.478 665.54 825.478H687.107C687.107 825.478 674.189 693.892 671.748 653.791C669.091 610.295 663.804 514.468 663.804 514.468H623.171Z" fill="#84CC16"/>
<path d="M687.436 819.32C687.53 819.32 688.155 825.924 688.155 825.924H664.445L662.756 818.343L687.436 819.32Z" fill="#84CC16"/>
<path opacity="0.2" d="M679.178 811.499C679.128 811.499 679.082 811.481 679.044 811.447C679.007 811.412 678.982 811.363 678.975 811.31C678.849 810.109 667.198 691.249 665.008 655.231C662.63 616.16 657.844 529.493 657.798 528.617C657.795 528.589 657.799 528.561 657.807 528.534C657.816 528.507 657.829 528.482 657.847 528.461C657.864 528.44 657.886 528.423 657.91 528.412C657.934 528.4 657.959 528.395 657.985 528.395C658.037 528.395 658.086 528.416 658.124 528.454C658.162 528.493 658.185 528.544 658.189 528.601C658.189 529.475 663.022 616.074 665.398 655.214C667.588 691.232 679.24 810.007 679.35 811.294C679.354 811.322 679.354 811.351 679.347 811.378C679.341 811.407 679.329 811.432 679.313 811.456C679.296 811.477 679.276 811.497 679.253 811.51C679.229 811.524 679.204 811.531 679.178 811.534V811.499Z" fill="black"/>
<path d="M635.574 355.559C635.574 356.605 634.979 357.445 634.354 357.445C633.728 357.445 633.275 356.605 633.337 355.559C633.4 354.512 633.931 353.671 634.557 353.671C635.183 353.671 635.636 354.529 635.574 355.559Z" fill="#263238"/>
<path d="M624.845 355.559C624.845 356.605 624.235 357.445 623.624 357.445C623.015 357.445 622.546 356.605 622.592 355.559C622.639 354.512 623.202 353.671 623.828 353.671C624.453 353.671 624.907 354.529 624.845 355.559Z" fill="#263238"/>
<path d="M628.223 356.09C626.918 359.285 625.235 362.278 623.218 364.992C624.782 366.707 627.707 365.918 627.707 365.918L628.223 356.09Z" fill="#DF5753"/>
<path d="M628.504 370.292C628.467 370.292 628.432 370.284 628.398 370.267C628.365 370.252 628.335 370.229 628.31 370.201C628.286 370.171 628.266 370.138 628.254 370.1C628.241 370.063 628.236 370.023 628.239 369.983C628.242 369.9 628.275 369.821 628.33 369.763C628.386 369.706 628.459 369.675 628.535 369.675C629.731 369.684 630.914 369.398 631.997 368.84C633.08 368.282 634.034 367.466 634.791 366.45C634.845 366.397 634.914 366.369 634.987 366.369C635.059 366.369 635.128 366.397 635.183 366.45C635.233 366.508 635.261 366.584 635.261 366.664C635.261 366.745 635.233 366.82 635.183 366.878C634.372 367.958 633.352 368.825 632.196 369.416C631.041 370.006 629.779 370.306 628.504 370.292Z" fill="#263238"/>
<path d="M637.482 352.402C637.407 352.445 637.324 352.467 637.24 352.467C637.155 352.467 637.072 352.445 636.997 352.402C636.412 351.988 635.746 351.73 635.053 351.649C634.36 351.569 633.66 351.668 633.008 351.94C632.945 351.974 632.876 351.995 632.806 352C632.734 352.005 632.664 351.995 632.596 351.969C632.529 351.943 632.468 351.904 632.415 351.851C632.362 351.799 632.319 351.735 632.29 351.666C632.231 351.513 632.23 351.34 632.285 351.187C632.341 351.033 632.449 350.91 632.586 350.841C633.405 350.475 634.29 350.331 635.17 350.421C636.05 350.51 636.896 350.831 637.638 351.356C637.698 351.401 637.75 351.459 637.79 351.526C637.828 351.591 637.855 351.666 637.869 351.744C637.882 351.822 637.881 351.902 637.866 351.981C637.849 352.058 637.82 352.131 637.779 352.197C637.7 352.296 637.597 352.366 637.482 352.402Z" fill="#263238"/>
<path d="M620.7 348.972C620.617 348.95 620.541 348.903 620.481 348.834C620.43 348.779 620.387 348.712 620.359 348.639C620.331 348.566 620.317 348.486 620.317 348.406C620.317 348.327 620.331 348.247 620.359 348.174C620.387 348.1 620.43 348.033 620.481 347.977C621.08 347.24 621.827 346.664 622.663 346.295C623.498 345.926 624.4 345.774 625.299 345.85C625.37 345.863 625.439 345.891 625.5 345.934C625.562 345.976 625.615 346.032 625.656 346.098C625.697 346.164 625.725 346.239 625.739 346.317C625.753 346.395 625.752 346.476 625.736 346.554C625.703 346.713 625.617 346.853 625.497 346.947C625.376 347.042 625.227 347.085 625.079 347.068C624.369 347.019 623.657 347.148 622.998 347.446C622.341 347.743 621.752 348.201 621.278 348.783C621.208 348.87 621.115 348.933 621.013 348.967C620.911 349 620.804 349.002 620.7 348.972Z" fill="#263238"/>
<path d="M679.538 419.071L663.272 414.32C663.272 414.32 647.319 457.387 641.674 460.183C634.01 464.025 614.6 477.335 606.343 483.63C605.889 485.773 606.249 491.451 607.281 493.012C621.357 490.199 648.305 478.827 653.935 473.047C666.775 459.857 679.538 419.071 679.538 419.071Z" fill="#E58A7B"/>
<path d="M668.183 843.709C667.389 843.779 666.598 843.542 665.946 843.041C665.746 842.841 665.594 842.588 665.51 842.305C665.424 842.022 665.408 841.72 665.462 841.428C665.471 841.247 665.526 841.071 665.62 840.919C665.713 840.769 665.843 840.648 665.993 840.571C667.307 839.834 670.983 842.389 671.405 842.681C671.452 842.712 671.487 842.759 671.507 842.814C671.527 842.871 671.529 842.931 671.514 842.989C671.501 843.05 671.474 843.105 671.435 843.15C671.397 843.195 671.348 843.228 671.296 843.246C670.276 843.522 669.232 843.677 668.183 843.709ZM666.619 841.034C666.501 841.005 666.377 841.005 666.259 841.034C666.199 841.067 666.15 841.12 666.116 841.184C666.083 841.247 666.067 841.32 666.071 841.395C666.029 841.594 666.036 841.803 666.091 841.998C666.146 842.193 666.247 842.37 666.384 842.51C666.994 843.11 668.526 843.178 670.544 842.749C669.344 841.882 667.991 841.297 666.572 841.034H666.619Z" fill="#84CC16"/>
<path d="M671.217 843.247C671.176 843.262 671.133 843.262 671.092 843.247C669.919 842.527 667.714 839.697 668.042 838.255C668.092 838.028 668.209 837.823 668.376 837.678C668.544 837.532 668.75 837.452 668.965 837.449C669.175 837.418 669.388 837.438 669.591 837.506C669.793 837.574 669.98 837.69 670.137 837.844C671.436 839.062 671.514 842.8 671.514 842.989C671.522 843.046 671.513 843.104 671.487 843.153C671.461 843.203 671.421 843.242 671.373 843.265C671.322 843.276 671.266 843.27 671.217 843.247ZM669.121 838.016H669.012C668.652 838.016 668.605 838.239 668.59 838.325C668.402 839.164 669.794 841.309 670.951 842.321C670.946 840.872 670.537 839.459 669.779 838.273C669.597 838.1 669.362 838.007 669.121 838.016Z" fill="#84CC16"/>
<path d="M626.659 841.566C625.702 841.932 624.66 841.932 623.703 841.566C623.486 841.437 623.302 841.25 623.167 841.022C623.033 840.795 622.954 840.534 622.936 840.262C622.917 840.093 622.936 839.92 622.994 839.762C623.051 839.603 623.145 839.463 623.264 839.353C624.517 838.119 629.631 839.353 630.209 839.594C630.264 839.609 630.313 839.645 630.347 839.695C630.381 839.744 630.399 839.806 630.397 839.868C630.4 839.932 630.384 839.996 630.354 840.051C630.322 840.105 630.278 840.149 630.225 840.176C629.074 840.747 627.88 841.211 626.659 841.566ZM624.11 839.526C623.93 839.564 623.764 839.653 623.624 839.783C623.575 839.823 623.536 839.879 623.514 839.942C623.492 840.006 623.487 840.076 623.5 840.143C623.509 840.323 623.561 840.496 623.649 840.649C623.736 840.802 623.856 840.928 624 841.017C624.828 841.498 626.752 841.12 629.239 839.971C627.565 839.508 625.83 839.357 624.11 839.526Z" fill="#84CC16"/>
<path d="M630.178 840.178H630.053C628.489 839.868 625.361 837.895 625.267 836.421C625.267 836.077 625.407 835.598 626.158 835.323C626.412 835.224 626.681 835.182 626.95 835.199C627.219 835.217 627.482 835.294 627.722 835.425C629.411 836.334 630.302 839.629 630.35 839.783C630.361 839.834 630.36 839.888 630.346 839.94C630.332 839.991 630.307 840.037 630.272 840.073C630.248 840.116 630.216 840.152 630.178 840.178ZM626.471 835.837H626.315C625.83 836.026 625.83 836.25 625.83 836.318C625.83 837.21 628.098 838.839 629.677 839.388C629.314 838.01 628.544 836.804 627.487 835.958C627.173 835.783 626.812 835.739 626.471 835.837Z" fill="#84CC16"/>
<path d="M607.672 482.617L591.359 490.851L589.467 495.996L595.488 500.438C595.488 500.438 606.748 499.1 609.955 491.159L607.672 482.617Z" fill="#E58A7B"/>
<path d="M608.359 493.303C607.996 489.866 606.961 486.555 605.326 483.595L607.907 481.469C609.847 484.878 611.086 488.713 611.534 492.702L608.359 493.303Z" fill="#263238"/>
<path d="M611.144 485.053C611.489 485.647 611.659 486.344 611.629 487.049C611.6 487.753 611.374 488.43 610.981 488.989C610.588 489.547 610.049 489.958 609.436 490.168C608.821 490.379 608.164 490.376 607.552 490.161C606.94 489.947 606.403 489.53 606.014 488.968C605.625 488.408 605.403 487.729 605.378 487.024C605.355 486.32 605.528 485.624 605.876 485.033C606.226 484.44 606.732 483.98 607.328 483.715C607.996 483.342 608.772 483.273 609.487 483.523C610.201 483.774 610.797 484.323 611.144 485.053Z" fill="#263238"/>
<path d="M580.333 497.506L582.508 499.906L597.147 493.046L591.36 490.851L580.333 497.506Z" fill="#E58A7B"/>
<path opacity="0.2" d="M643.191 811.002C643.284 811.002 645.411 817.554 645.411 817.554L623.765 827.536L620.355 820.573L643.191 811.002Z" fill="black"/>
<path opacity="0.2" d="M687.436 819.32C687.53 819.32 688.155 825.924 688.155 825.924H664.445L662.756 818.343L687.436 819.32Z" fill="black"/>
<path d="M683.776 414.131C688.077 429.344 671.264 450.15 671.264 450.15L648.039 439.756C650.792 430.963 653.965 422.334 657.548 413.907C664.68 397.048 679.428 398.781 683.776 414.131Z" fill="#84CC16"/>
<path opacity="0.2" d="M683.776 414.131C688.077 429.344 671.264 450.15 671.264 450.15L648.039 439.756C650.792 430.963 653.965 422.334 657.548 413.907C664.68 397.048 679.428 398.781 683.776 414.131Z" fill="black"/>
<path d="M452.992 261.704H442.999V263.471H452.992V261.704Z" fill="#84CC16"/>
<path d="M582.363 331.626L581.154 361.063L582.763 361.143L583.973 331.706L582.363 331.626Z" fill="#84CC16"/>
<path d="M579.254 269.628H394.702L377.529 691.078H562.081L579.254 269.628Z" fill="#84CC16"/>
<path opacity="0.56" d="M573.749 275.426H389.197L372.024 696.876H556.576L573.749 275.426Z" fill="#FAFAFA"/>
<path opacity="0.07" d="M568.243 281.207H383.691L366.503 702.655H551.055L568.243 281.207Z" fill="#84CC16"/>
<path d="M547.239 465.021H389.712L388.399 497.265H545.925L547.239 465.021Z" fill="white"/>
<path d="M476.343 441.488H390.667L390.088 455.912H475.764L476.343 441.488Z" fill="#84CC16"/>
<path d="M543.689 552.047H386.162L384.849 584.292H542.375L543.689 552.047Z" fill="white"/>
<path opacity="0.47" d="M514.802 627.84H408.872L407.292 666.482H513.222L514.802 627.84Z" fill="#84CC16"/>
<path d="M507.717 672.485H401.787C401.74 672.499 401.692 672.499 401.647 672.485C401.63 672.435 401.63 672.381 401.647 672.331L403.211 633.672C403.211 633.645 403.215 633.619 403.225 633.595C403.234 633.571 403.248 633.55 403.266 633.532C403.283 633.514 403.305 633.501 403.327 633.492C403.35 633.484 403.374 633.48 403.398 633.483H509.328C509.347 633.472 509.368 633.467 509.39 633.467C509.411 633.467 509.434 633.472 509.452 633.483C509.464 633.503 509.47 633.528 509.47 633.552C509.47 633.575 509.464 633.6 509.452 633.62L507.92 672.366C507.901 672.405 507.872 672.439 507.836 672.461C507.799 672.481 507.758 672.49 507.717 672.485ZM401.975 672.074H507.529L509.093 633.826H403.539L401.975 672.074Z" fill="white"/>
<path d="M457.84 528.515H387.117L386.538 542.958H457.246L457.84 528.515Z" fill="#84CC16"/>
<path d="M512.784 360.858C512.38 370.243 509.336 379.26 504.072 386.672C500.176 392.27 495.16 396.815 489.413 399.957C483.666 403.1 477.337 404.757 470.916 404.801C465.726 404.844 460.582 403.722 455.804 401.503C451.024 399.284 446.709 396.015 443.125 391.898C439.541 387.783 436.764 382.905 434.964 377.566C433.164 372.228 432.38 366.541 432.66 360.858C433.21 349.064 437.848 337.948 445.625 329.78C453.401 321.612 463.729 317.01 474.497 316.916C479.69 316.863 484.84 317.978 489.624 320.193C494.41 322.409 498.73 325.676 502.318 329.794C505.907 333.912 508.687 338.794 510.486 344.136C512.287 349.48 513.068 355.17 512.784 360.858Z" fill="white"/>
<path d="M516.554 326.109C516.452 328.605 515.641 331.003 514.238 332.97C513.199 334.457 511.865 335.665 510.336 336.499C508.807 337.335 507.125 337.776 505.418 337.79C503.762 337.8 502.13 337.367 500.664 336.527C499.197 335.687 497.94 334.465 497.004 332.97C495.762 330.949 495.148 328.543 495.252 326.109C495.403 322.978 496.638 320.028 498.704 317.861C500.77 315.693 503.513 314.472 506.371 314.446C507.751 314.432 509.118 314.728 510.389 315.317C511.66 315.904 512.808 316.771 513.762 317.864C514.715 318.957 515.455 320.251 515.936 321.67C516.415 323.088 516.626 324.598 516.554 326.109Z" fill="#84CC16"/>
<path d="M406.682 481.142C406.607 482.524 406.057 483.824 405.143 484.78C404.228 485.734 403.018 486.274 401.756 486.288C401.146 486.297 400.541 486.167 399.979 485.908C399.417 485.65 398.909 485.268 398.487 484.786C398.065 484.304 397.738 483.732 397.524 483.104C397.312 482.478 397.22 481.811 397.251 481.142C397.319 479.757 397.867 478.454 398.782 477.497C399.699 476.541 400.914 476.004 402.178 475.997C402.787 475.992 403.39 476.123 403.952 476.382C404.513 476.641 405.02 477.024 405.442 477.505C405.863 477.987 406.191 478.558 406.404 479.184C406.618 479.809 406.713 480.476 406.682 481.142Z" fill="#263238"/>
<path d="M427.764 481.142C427.694 482.526 427.144 483.828 426.23 484.783C425.314 485.74 424.102 486.277 422.838 486.288C422.23 486.294 421.627 486.163 421.066 485.903C420.506 485.643 420 485.262 419.58 484.779C419.16 484.297 418.833 483.726 418.622 483.1C418.41 482.475 418.317 481.808 418.35 481.142C418.417 479.76 418.963 478.459 419.875 477.502C420.788 476.547 421.998 476.008 423.261 475.997C423.869 475.989 424.474 476.119 425.037 476.377C425.599 476.636 426.106 477.018 426.53 477.5C426.952 477.982 427.279 478.554 427.491 479.18C427.703 479.808 427.797 480.475 427.764 481.142Z" fill="#263238"/>
<path d="M448.863 481.142C448.792 482.526 448.243 483.828 447.328 484.783C446.413 485.74 445.201 486.277 443.937 486.288C443.328 486.294 442.725 486.163 442.163 485.903C441.603 485.643 441.095 485.262 440.674 484.779C440.252 484.299 439.924 483.728 439.71 483.102C439.497 482.477 439.403 481.809 439.432 481.142C439.504 479.759 440.053 478.458 440.968 477.501C441.883 476.546 443.095 476.008 444.359 475.997C444.969 475.989 445.574 476.119 446.135 476.377C446.698 476.636 447.206 477.018 447.628 477.5C448.05 477.982 448.378 478.554 448.59 479.18C448.802 479.808 448.896 480.475 448.863 481.142Z" fill="#263238"/>
<path d="M403.132 568.171C403.057 569.551 402.507 570.851 401.593 571.807C400.678 572.761 399.468 573.301 398.206 573.316C397.597 573.321 396.993 573.19 396.432 572.93C395.87 572.672 395.364 572.289 394.942 571.808C394.521 571.326 394.192 570.755 393.979 570.129C393.766 569.504 393.672 568.837 393.701 568.171C393.773 566.786 394.321 565.485 395.237 564.529C396.152 563.573 397.364 563.035 398.628 563.025C399.236 563.019 399.84 563.15 400.402 563.41C400.962 563.668 401.47 564.051 401.892 564.532C402.313 565.014 402.641 565.585 402.854 566.211C403.068 566.836 403.161 567.503 403.132 568.171Z" fill="#263238"/>
<path d="M424.214 568.171C424.143 569.55 423.596 570.85 422.684 571.805C421.773 572.761 420.565 573.301 419.304 573.316C418.695 573.324 418.09 573.194 417.527 572.936C416.965 572.677 416.458 572.295 416.036 571.813C415.612 571.331 415.285 570.759 415.073 570.131C414.861 569.505 414.767 568.838 414.8 568.171C414.871 566.786 415.42 565.485 416.335 564.529C417.25 563.573 418.462 563.035 419.726 563.025C420.335 563.019 420.937 563.15 421.498 563.41C422.058 563.669 422.564 564.051 422.984 564.533C423.405 565.015 423.731 565.586 423.942 566.212C424.155 566.837 424.247 567.503 424.214 568.171Z" fill="#263238"/>
<path d="M445.36 568.17C445.288 569.554 444.74 570.855 443.824 571.81C442.909 572.767 441.697 573.304 440.433 573.316C439.825 573.318 439.222 573.186 438.662 572.925C438.102 572.665 437.596 572.283 437.175 571.801C436.753 571.32 436.426 570.751 436.211 570.126C435.998 569.502 435.901 568.836 435.929 568.17C436.004 566.788 436.554 565.488 437.468 564.533C438.383 563.579 439.593 563.039 440.855 563.025C441.465 563.016 442.07 563.146 442.632 563.404C443.194 563.663 443.702 564.044 444.124 564.527C444.546 565.009 444.873 565.581 445.087 566.208C445.299 566.834 445.391 567.502 445.36 568.17Z" fill="#263238"/>
<path d="M466.412 568.171C466.337 569.551 465.786 570.851 464.871 571.807C463.958 572.761 462.747 573.301 461.484 573.316C460.877 573.319 460.274 573.186 459.714 572.925C459.153 572.666 458.648 572.284 458.226 571.801C457.805 571.321 457.478 570.751 457.263 570.126C457.049 569.501 456.953 568.837 456.981 568.171C457.056 566.788 457.606 565.489 458.52 564.533C459.433 563.579 460.645 563.039 461.907 563.025C462.516 563.019 463.12 563.15 463.68 563.41C464.242 563.668 464.748 564.051 465.17 564.532C465.592 565.014 465.919 565.585 466.133 566.211C466.346 566.836 466.441 567.503 466.412 568.171Z" fill="#263238"/>
<path d="M487.588 568.171C487.513 569.551 486.963 570.851 486.049 571.807C485.134 572.761 483.924 573.301 482.661 573.316C482.052 573.324 481.447 573.194 480.885 572.936C480.323 572.677 479.815 572.295 479.393 571.813C478.971 571.331 478.644 570.759 478.43 570.131C478.218 569.505 478.125 568.838 478.157 568.171C478.229 566.786 478.777 565.485 479.693 564.529C480.607 563.573 481.82 563.035 483.084 563.025C483.692 563.019 484.296 563.15 484.857 563.41C485.418 563.668 485.925 564.051 486.348 564.532C486.768 565.014 487.097 565.585 487.31 566.211C487.523 566.836 487.617 567.503 487.588 568.171Z" fill="#263238"/>
<path d="M484.387 358.57C490.933 351.55 491.281 340.297 485.163 333.437C479.044 326.576 468.779 326.706 462.233 333.726C455.686 340.746 455.339 351.999 461.457 358.859C467.575 365.72 477.84 365.59 484.387 358.57Z" fill="#84CC16"/>
<path d="M504.072 386.672C500.176 392.27 495.16 396.815 489.413 399.957C483.666 403.101 477.337 404.757 470.916 404.801C464.688 404.859 458.542 403.235 453.023 400.073C447.502 396.911 442.776 392.31 439.26 386.672C446.862 378.37 458.888 372.951 472.214 372.951C485.538 372.951 497.144 378.37 504.072 386.672Z" fill="#84CC16"/>
<path opacity="0.1" d="M484.387 358.57C490.933 351.55 491.281 340.297 485.163 333.437C479.044 326.576 468.779 326.706 462.233 333.726C455.686 340.746 455.339 351.999 461.457 358.859C467.575 365.72 477.84 365.59 484.387 358.57Z" fill="white"/>
<path opacity="0.1" d="M504.072 386.672C500.176 392.27 495.16 396.815 489.413 399.957C483.666 403.101 477.337 404.757 470.916 404.801C464.688 404.859 458.542 403.235 453.023 400.073C447.502 396.911 442.776 392.31 439.26 386.672C446.862 378.37 458.888 372.951 472.214 372.951C485.538 372.951 497.144 378.37 504.072 386.672Z" fill="white"/>
<path d="M273.961 505.035C272.475 508.603 270.911 512.531 269.551 516.338C268.19 520.145 266.798 524.073 265.594 527.984C263.135 535.69 261.262 543.607 259.995 551.653L259.65 554.174C259.618 554.606 259.655 555.042 259.76 555.461C260.129 556.882 260.71 558.227 261.48 559.439C263.489 562.58 265.819 565.458 268.425 568.015C271.172 570.818 274.054 573.457 277.058 575.922C280.061 578.461 283.22 580.93 286.332 583.264L283.408 589.283C275.976 585.732 268.922 581.298 262.372 576.06C258.877 573.264 255.724 569.991 252.988 566.318C251.366 564.131 250.101 561.653 249.25 558.994C248.755 557.333 248.501 555.596 248.499 553.849C248.499 553.436 248.499 552.837 248.499 552.545V551.704L248.656 549.989C249.552 541.053 251.266 532.238 253.77 523.679C254.99 519.459 256.288 515.258 257.774 511.157C259.259 507.059 260.792 503.046 262.685 498.877L273.961 505.035Z" fill="#E58A7B"/>
<path d="M284.127 582.2L295.184 576.06L292.322 589.369C292.322 589.369 284.737 591.702 281.218 587.654L284.127 582.2Z" fill="#E58A7B"/>
<path d="M305.303 578.238L302.363 589.249L292.322 589.369L295.184 576.06L305.303 578.238Z" fill="#E58A7B"/>
<path d="M320.913 440.819C321.504 443.196 322.327 445.497 323.368 447.68C323.064 448.058 322.673 448.339 322.234 448.492C321.797 448.647 321.329 448.668 320.881 448.554L320.913 440.819Z" fill="#DF5753"/>
<path d="M320.583 440.922C321.232 440.922 321.757 440.039 321.757 438.95C321.757 437.861 321.232 436.978 320.583 436.978C319.936 436.978 319.411 437.861 319.411 438.95C319.411 440.039 319.936 440.922 320.583 440.922Z" fill="#263238"/>
<path d="M320.24 437.046L322.618 436.309C322.618 436.309 321.459 438.333 320.24 437.046Z" fill="#263238"/>
<path d="M290.368 453.409C291.79 461.384 293.214 476.015 288.116 481.348C288.116 481.348 290.117 489.444 303.646 489.444C318.52 489.444 310.747 481.348 310.747 481.348C302.629 479.221 302.833 472.618 304.255 466.409L290.368 453.409Z" fill="#E58A7B"/>
<path d="M286.41 435.228C287.161 448.554 287.224 454.215 293.355 461.058C302.597 471.349 317.361 467.439 320.255 454.197C322.867 442.191 321.209 422.434 309.307 417.133C306.695 415.952 303.851 415.523 301.045 415.884C298.238 416.245 295.563 417.386 293.27 419.197C290.977 421.009 289.145 423.431 287.944 426.237C286.744 429.042 286.216 432.137 286.41 435.228Z" fill="#E58A7B"/>
<path d="M287.615 420.237C281.515 422.672 273.382 420.854 276.573 441.488C279.951 463.339 274.759 470.526 274.759 470.526C274.759 470.526 297.89 475.929 321.506 470.199C321.506 470.199 314.297 456.375 316.315 446.187C318.895 433.323 316.861 428.573 316.861 428.573C316.861 428.573 296.186 416.807 287.615 420.237Z" fill="#263238"/>
<path d="M313.421 442.174C313.427 444.709 314.088 447.189 315.329 449.327C316.987 452.105 318.942 451.042 319.426 448.091C319.865 445.502 319.537 440.922 317.425 439.139C315.314 437.354 313.452 439.104 313.421 442.174Z" fill="#E58A7B"/>
<path d="M282.313 422.485C280.561 417.081 288.913 408.763 306.586 412.194C324.259 415.624 325.026 431.762 325.026 431.762L321.459 427.098L321.617 432.003L303.458 435.828L282.313 422.485Z" fill="#263238"/>
<path d="M283.814 482.257C283.71 481.474 283.889 480.678 284.313 480.036C284.736 479.396 285.371 478.962 286.082 478.827C291.587 477.833 304.099 475.809 310.387 476.769C315.079 477.489 316.298 480.474 316.502 482.927C316.534 483.356 316.481 483.788 316.349 484.193C316.215 484.598 316.005 484.968 315.731 485.277C315.457 485.586 315.125 485.826 314.759 485.983C314.393 486.14 314.001 486.209 313.609 486.185L286.426 484.848C285.786 484.812 285.176 484.535 284.7 484.063C284.224 483.591 283.911 482.954 283.814 482.257Z" fill="#84CC16"/>
<path opacity="0.6" d="M283.814 482.257C283.71 481.474 283.889 480.678 284.313 480.036C284.736 479.396 285.371 478.962 286.082 478.827C291.587 477.833 304.099 475.809 310.387 476.769C315.079 477.489 316.298 480.474 316.502 482.927C316.534 483.356 316.481 483.788 316.349 484.193C316.215 484.598 316.005 484.968 315.731 485.277C315.457 485.586 315.125 485.826 314.759 485.983C314.393 486.14 314.001 486.209 313.609 486.185L286.426 484.848C285.786 484.812 285.176 484.535 284.7 484.063C284.224 483.591 283.911 482.954 283.814 482.257Z" fill="black"/>
<path d="M299.533 781.896L309.62 789.58L326.496 764.487L316.408 756.82L299.533 781.896Z" fill="#E58A7B"/>
<path d="M276.01 781.398L286.661 788.053L301.597 761.519L290.946 754.865L276.01 781.398Z" fill="#E58A7B"/>
<path d="M326.481 764.487L317.785 777.419L307.696 769.753L316.392 756.82L326.481 764.487Z" fill="#CF6F64"/>
<path d="M290.931 754.865L301.597 761.537L293.902 775.207L283.236 768.534L290.931 754.865Z" fill="#CF6F64"/>
<path d="M308.041 566.026C308.041 566.026 347.422 620.448 340.025 672.503C334.065 714.542 299.501 771.468 299.501 771.468L283.251 762.617C294.705 737.448 304.479 711.4 312.499 684.681C314.971 676.385 315.692 667.582 314.609 658.935C313.524 650.289 310.664 642.027 306.243 634.77C286.286 602.816 254.317 621.837 275.822 566.026H308.041Z" fill="#84CC16"/>
<path opacity="0.6" d="M308.041 566.026C308.041 566.026 347.422 620.448 340.025 672.503C334.065 714.542 299.501 771.468 299.501 771.468L283.251 762.617C294.705 737.448 304.479 711.4 312.499 684.681C314.971 676.385 315.692 667.582 314.609 658.935C313.524 650.289 310.664 642.027 306.243 634.77C286.286 602.816 254.317 621.837 275.822 566.026H308.041Z" fill="black"/>
<path opacity="0.4" d="M327.357 600.981L321.632 594.738C321.632 595.235 332.721 670.307 335.833 691.404C337.67 685.241 339.076 678.935 340.04 672.537C343.7 646.998 336.053 620.911 327.357 600.981Z" fill="black"/>
<path d="M325.62 566.026C325.62 566.026 373.041 634.427 374.385 675.436C375.496 709.739 322.773 776.201 322.773 776.201L307.446 765.328C307.446 765.328 338.304 718.126 346.077 679.57C343.074 641.355 279.576 566.026 279.576 566.026H325.62Z" fill="#84CC16"/>
<path opacity="0.6" d="M325.62 566.026C325.62 566.026 373.041 634.427 374.385 675.436C375.496 709.739 322.773 776.201 322.773 776.201L307.446 765.328C307.446 765.328 338.304 718.126 346.077 679.57C343.074 641.355 279.576 566.026 279.576 566.026H325.62Z" fill="black"/>
<path d="M266.954 484.402C261.887 485.722 257.023 505.927 257.023 505.927L276.839 520.437C276.839 520.437 283.439 504.451 281.124 497.454C278.731 490.164 273.32 482.738 266.954 484.402Z" fill="#84CC16"/>
<path opacity="0.2" d="M270.833 497.419L269.457 515.034L276.823 520.455C278.857 515.432 280.363 510.173 281.312 504.778L270.833 497.419Z" fill="black"/>
<path d="M331.484 484.796C331.484 484.796 337.335 487.042 325.62 566.009H275.791C276.636 543.712 276.651 529.991 266.954 484.401C273.931 482.825 281.004 481.804 288.116 481.348C295.65 480.756 303.213 480.756 310.747 481.348C320.474 482.326 331.484 484.796 331.484 484.796Z" fill="#84CC16"/>
<path d="M336.553 497.42C337.679 500.85 338.867 504.537 340.118 508.089C341.369 511.638 342.558 515.291 343.826 518.894L347.657 529.664L348.627 532.358L349.127 533.695L349.362 534.364C349.362 534.485 349.362 534.485 349.362 534.467C349.076 534.026 348.702 533.662 348.267 533.403C347.649 533.005 346.951 532.774 346.234 532.735C345.638 532.714 345.046 532.838 344.497 533.095C343.779 533.455 343.779 533.609 343.794 533.592C343.924 533.478 344.04 533.345 344.137 533.198C345.004 531.952 345.753 530.612 346.374 529.201C347.109 527.624 347.813 525.942 348.518 524.245C349.894 520.815 351.16 517.263 352.428 513.679C353.694 510.094 354.898 506.476 356.071 502.822L359.637 491.879L365.658 493.595C364.469 501.416 362.937 509.031 361.092 516.784C360.201 520.642 359.153 524.467 357.964 528.327C357.369 530.265 356.713 532.186 355.962 534.158C355.179 536.299 354.215 538.355 353.084 540.299C352.668 540.953 352.208 541.571 351.708 542.151C350.909 543.098 349.94 543.851 348.861 544.364C347.904 544.814 346.868 545.025 345.827 544.981C344.661 544.934 343.525 544.562 342.527 543.9C341.349 543.094 340.37 541.98 339.681 540.659C339.445 540.212 339.243 539.766 339.102 539.441L338.805 538.789L338.211 537.452L337.022 534.793C335.458 531.225 333.894 527.624 332.533 524.005C331.173 520.385 329.733 516.716 328.388 513.027C327.044 509.34 325.84 505.652 324.698 501.673L336.553 497.42Z" fill="#E58A7B"/>
<path d="M331.485 484.796C337.476 486.357 344.216 505.773 344.216 505.773L326.402 522.392C326.402 522.392 314.875 501.228 317.206 494.246C319.63 486.974 323.665 482.754 331.485 484.796Z" fill="#84CC16"/>
<path d="M362.468 485.739L368.724 480.011L373.073 487.437L369.866 493.629C369.866 493.629 364.767 498.775 360.263 496.15C359.548 494.388 359.376 492.418 359.774 490.54C360.172 488.661 361.117 486.976 362.468 485.739Z" fill="#E58A7B"/>
<path d="M380.016 480.027L379.547 481.897L369.647 483.715L368.677 480.011L380.016 480.027Z" fill="#E58A7B"/>
<path d="M323.994 777.077L306.132 764.419L309.339 758.313L329.405 771.845L323.994 777.077Z" fill="#84CC16"/>
<path d="M293.652 787.162C292.085 786.951 290.579 786.366 289.241 785.447C289.186 785.425 289.138 785.386 289.104 785.334C289.07 785.281 289.053 785.219 289.053 785.155C289.053 785.091 289.07 785.028 289.104 784.976C289.138 784.923 289.186 784.884 289.241 784.863C289.727 784.692 293.933 783.267 295.154 784.365C295.291 784.49 295.394 784.653 295.455 784.837C295.516 785.021 295.53 785.219 295.497 785.412C295.476 785.721 295.383 786.019 295.227 786.276C295.071 786.534 294.857 786.745 294.606 786.887C294.313 787.063 293.986 787.157 293.652 787.162ZM290.133 785.274C292.088 786.372 293.652 786.767 294.402 786.356C294.567 786.255 294.704 786.113 294.802 785.938C294.901 785.764 294.957 785.565 294.966 785.361C294.966 785.087 294.966 784.966 294.825 784.898C294.168 784.314 291.822 784.76 290.102 785.274H290.133Z" fill="#263238"/>
<path d="M289.35 785.566C289.268 785.565 289.19 785.528 289.132 785.463C289.109 785.416 289.096 785.363 289.096 785.309C289.096 785.255 289.109 785.202 289.132 785.155C289.132 785.001 290.149 781.278 291.743 780.437C291.947 780.336 292.169 780.283 292.393 780.283C292.617 780.283 292.838 780.336 293.042 780.437C293.262 780.515 293.451 780.669 293.582 780.877C293.713 781.086 293.775 781.335 293.761 781.587C293.652 783.131 290.79 785.258 289.476 785.618L289.35 785.566ZM292.385 780.884C292.233 780.889 292.083 780.93 291.947 781.005C290.978 781.519 290.179 783.526 289.789 784.743C291.165 784.108 293.058 782.428 293.12 781.484C293.12 781.33 293.12 781.141 292.761 780.97C292.644 780.9 292.516 780.854 292.385 780.832V780.884Z" fill="#263238"/>
<path d="M315.97 794.57C314.203 794.57 311.747 792.084 310.402 790.557C310.368 790.505 310.349 790.442 310.349 790.377C310.349 790.313 310.368 790.25 310.402 790.197C310.433 790.142 310.477 790.097 310.53 790.066C310.582 790.037 310.64 790.023 310.7 790.025C311.325 790.025 316.752 790.917 317.519 792.598C317.6 792.75 317.643 792.921 317.643 793.096C317.643 793.27 317.6 793.443 317.519 793.593C317.404 793.855 317.23 794.08 317.013 794.249C316.798 794.416 316.546 794.521 316.283 794.553L315.97 794.57ZM311.435 790.798C313.405 792.89 315.141 794.056 316.127 793.92C316.299 793.894 316.464 793.823 316.605 793.713C316.747 793.602 316.862 793.455 316.94 793.284C316.975 793.225 316.993 793.157 316.993 793.088C316.993 793.017 316.975 792.949 316.94 792.89C316.533 791.964 313.639 791.175 311.435 790.798Z" fill="#263238"/>
<path d="M311.606 790.712C311.256 790.723 310.904 790.694 310.559 790.626C310.51 790.618 310.464 790.596 310.427 790.564C310.388 790.53 310.358 790.487 310.34 790.438C310.317 790.386 310.304 790.331 310.304 790.275C310.304 790.218 310.317 790.161 310.34 790.111C310.434 789.992 312.545 787.195 314.547 787.008C315.114 786.959 315.675 787.155 316.111 787.555C316.72 788.139 316.69 788.653 316.533 788.98C316.142 790.146 313.437 790.712 311.606 790.712ZM311.2 790.077C312.952 790.179 315.751 789.546 316.111 788.705C316.111 788.705 316.236 788.431 315.829 788.053C315.668 787.899 315.479 787.783 315.274 787.712C315.07 787.641 314.854 787.617 314.641 787.641C313.292 788.054 312.092 788.91 311.2 790.095V790.077Z" fill="#263238"/>
<path d="M289.774 783.714L276.511 779.598C276.282 779.522 276.036 779.542 275.819 779.652C275.603 779.763 275.431 779.957 275.338 780.199L270.865 791.226C270.76 791.509 270.71 791.813 270.72 792.117C270.729 792.422 270.798 792.721 270.92 792.995C271.043 793.269 271.217 793.511 271.431 793.706C271.645 793.9 271.895 794.043 272.163 794.125C276.855 795.463 279.107 795.841 284.941 797.675C288.538 798.773 293.667 800.814 298.625 802.358C303.584 803.901 305.241 798.601 303.317 797.47C294.622 792.427 293.933 788.894 291.556 785.12C291.13 784.438 290.499 783.94 289.774 783.714Z" fill="#84CC16"/>
<path d="M310.762 788.55L299.439 779.975C299.247 779.822 299.01 779.751 298.774 779.777C298.538 779.801 298.317 779.921 298.156 780.112L290.65 788.962C290.467 789.191 290.329 789.459 290.249 789.751C290.168 790.042 290.144 790.349 290.181 790.65C290.216 790.952 290.31 791.242 290.455 791.501C290.6 791.76 290.795 791.982 291.025 792.153C295.013 795.086 297.077 796.269 302.067 800.059C305.195 802.393 311.247 807.571 315.47 810.796C319.693 814.021 322.836 809.595 321.335 807.847C314.61 799.974 313.14 795.034 312.028 790.557C311.836 789.745 311.387 789.034 310.762 788.55Z" fill="#84CC16"/>
<path d="M301.581 772.6L281.171 761.468L283.283 755.397L305.084 767.128L301.581 772.6Z" fill="#84CC16"/>
<path d="M275.04 562.801L273.32 567.741C273.148 568.118 273.555 568.512 274.133 568.512H325.87C326.324 568.512 326.699 568.273 326.73 567.963L327.169 563.058C327.169 562.733 326.809 562.441 326.324 562.441H275.854C275.702 562.426 275.549 562.45 275.407 562.513C275.265 562.575 275.14 562.674 275.04 562.801Z" fill="#84CC16"/>
<path opacity="0.4" d="M275.04 562.801L273.32 567.741C273.148 568.118 273.555 568.512 274.133 568.512H325.87C326.324 568.512 326.699 568.273 326.73 567.963L327.169 563.058C327.169 562.733 326.809 562.441 326.324 562.441H275.854C275.702 562.426 275.549 562.45 275.407 562.513C275.265 562.575 275.14 562.674 275.04 562.801Z" fill="white"/>
<path d="M283.189 568.993H281.828C281.562 568.993 281.359 568.839 281.375 568.65L282.016 562.287C282.016 562.115 282.266 561.96 282.532 561.96H283.892C284.158 561.96 284.362 562.115 284.346 562.287L283.705 568.65C283.689 568.839 283.455 568.993 283.189 568.993Z" fill="#84CC16"/>
<path d="M315.094 568.993H313.749C313.483 568.993 313.28 568.839 313.296 568.65L313.922 562.287C313.922 562.115 314.187 561.96 314.453 561.96H315.798C316.064 561.96 316.283 562.115 316.251 562.287L315.626 568.65C315.548 568.839 315.376 568.993 315.094 568.993Z" fill="#84CC16"/>
<g style="mix-blend-mode:multiply">
<path d="M282 859.456C305.14 859.456 323.9 857.966 323.9 856.128C323.9 854.29 305.14 852.801 282 852.801C258.86 852.801 240.101 854.29 240.101 856.128C240.101 857.966 258.86 859.456 282 859.456Z" fill="#F5F5F5"/>
</g>
<path d="M307.525 851.429C300.111 849.062 291.885 846.025 286.911 842.853C286.77 842.75 286.614 842.699 286.473 842.613V805.805H301.472C302.61 805.732 303.681 805.183 304.463 804.273C305.245 803.362 305.681 802.159 305.681 800.909C305.681 799.658 305.245 798.455 304.463 797.544C303.681 796.634 302.61 796.086 301.472 796.012H286.551V628.235H277.543V796.012H262.638C262.029 795.972 261.42 796.07 260.846 796.298C260.273 796.526 259.749 796.881 259.305 797.339C258.862 797.798 258.508 798.35 258.267 798.965C258.025 799.578 257.9 800.24 257.9 800.909C257.9 801.578 258.025 802.238 258.267 802.853C258.508 803.466 258.862 804.019 259.305 804.478C259.749 804.937 260.273 805.291 260.846 805.52C261.42 805.747 262.029 805.845 262.638 805.805H277.543V842.562C277.402 842.562 277.261 842.698 277.12 842.802C272.069 846.025 263.904 849.062 256.491 851.378C255.99 851.544 255.56 851.901 255.279 852.384C254.998 852.868 254.883 853.446 254.957 854.013C255.031 854.582 255.288 855.102 255.681 855.48C256.074 855.858 256.578 856.071 257.101 856.077H306.914C307.415 856.04 307.887 855.815 308.254 855.442C308.622 855.068 308.862 854.566 308.933 854.022C309.005 853.479 308.904 852.924 308.647 852.453C308.39 851.981 307.994 851.619 307.525 851.429Z" fill="#E0E0E0"/>
<path d="M309.824 611.152H254.208C249.733 611.152 246.106 615.129 246.106 620.037V638.165C246.106 643.072 249.733 647.05 254.208 647.05H309.824C314.298 647.05 317.925 643.072 317.925 638.165V620.037C317.925 615.129 314.298 611.152 309.824 611.152Z" fill="#84CC16"/>
<path d="M253.692 647.068V650.188C253.692 652.761 256.241 654.854 259.369 654.854H304.725C307.853 654.854 310.402 652.761 310.402 650.188V647.068H253.692Z" fill="#84CC16"/>
<path opacity="0.3" d="M253.692 647.068V650.188C253.692 652.761 256.241 654.854 259.369 654.854H304.725C307.853 654.854 310.402 652.761 310.402 650.188V647.068H253.692Z" fill="white"/>
</svg>
