<svg width="815" height="1080" viewBox="0 0 815 1080" fill="none" xmlns="http://www.w3.org/2000/svg">
<rect x="-1" width="642" height="1086" fill="#2F3C33"/>
<path d="M815 674.126H544.925V498.622H815V674.126ZM546.573 672.276H813.352V500.473H546.573V672.276Z" fill="#E0E0E0"/>
<path d="M759.284 592.203H581.097V598.069H759.284V592.203Z" fill="#F0F0F0"/>
<path d="M771.561 614.077H581.097V620.479H771.561V614.077Z" fill="#F0F0F0"/>
<path d="M771.561 636.209H581.097V642.612H771.561V636.209Z" fill="#F0F0F0"/>
<path d="M643.371 560.43H581.097V575.66H643.371V560.43Z" fill="#F0F0F0"/>
<path d="M814.176 499.547H545.799V527.49H814.176V499.547Z" fill="#E0E0E0"/>
<path d="M793.528 523.308C793.182 522.938 796.642 518.256 801.24 512.853C805.838 507.449 809.875 503.359 810.205 503.711C810.534 504.063 807.09 508.763 802.492 514.185C797.895 519.607 793.857 523.678 793.528 523.308Z" fill="white"/>
<path d="M810.238 523.308C809.908 523.679 805.887 519.607 801.273 514.185C796.659 508.763 793.215 504.081 793.561 503.711C793.907 503.341 797.911 507.412 802.525 512.853C807.139 518.294 810.551 522.938 810.238 523.308Z" fill="white"/>
<path d="M482.668 152H214.29V325.672H482.668V152Z" fill="#E6E6E6"/>
<path d="M427.793 244.674H249.605V250.54H427.793V244.674Z" fill="#F0F0F0"/>
<path d="M440.069 266.547H249.605V272.95H440.069V266.547Z" fill="#F0F0F0"/>
<path d="M440.069 288.68H249.605V295.083H440.069V288.68Z" fill="#F0F0F0"/>
<path d="M311.879 212.901H249.605V228.131H311.879V212.901Z" fill="#F0F0F0"/>
<path d="M482.668 152H214.29V179.943H482.668V152Z" fill="#E0E0E0"/>
<path d="M461.113 175.631C460.767 175.28 464.228 170.579 468.825 165.176C473.423 159.772 477.46 155.682 477.79 156.053C478.12 156.423 474.675 161.104 470.078 166.508C465.48 171.912 461.443 175.964 461.113 175.631Z" fill="white"/>
<path d="M477.79 175.631C477.46 176.001 473.439 171.93 468.825 166.508C464.211 161.086 460.767 156.423 461.113 156.053C461.459 155.683 465.464 159.754 470.078 165.176C474.692 170.598 478.136 175.28 477.79 175.631Z" fill="white"/>
<path d="M381.025 474.621H111V299.099H381.025V474.621ZM112.648 472.771H379.377V300.949H112.648V472.771Z" fill="#E0E0E0"/>
<path d="M325.326 392.698H147.138V398.564H325.326V392.698Z" fill="#F0F0F0"/>
<path d="M337.603 414.571H147.138V420.974H337.603V414.571Z" fill="#F0F0F0"/>
<path d="M337.603 436.704H147.138V443.106H337.603V436.704Z" fill="#F0F0F0"/>
<path d="M209.413 360.924H147.138V376.154H209.413V360.924Z" fill="#F0F0F0"/>
<path d="M380.201 300.023H111.824V327.966H380.201V300.023Z" fill="#E0E0E0"/>
<path d="M692.66 514.833H375.768V833.42H692.66V514.833Z" fill="#E6E6E6"/>
<path d="M391.703 414.479H143.464V704.104H391.703V414.479Z" fill="#F0F0F0"/>
<path d="M391.703 414.479H143.464V446.03H391.703V414.479Z" fill="#E0E0E0"/>
<path d="M163.964 429.93C163.918 431.075 163.575 432.179 162.976 433.106C162.377 434.033 161.549 434.742 160.594 435.145C159.64 435.548 158.601 435.627 157.606 435.373C156.612 435.119 155.706 434.543 155 433.716C154.295 432.889 153.821 431.847 153.638 430.72C153.455 429.594 153.571 428.431 153.971 427.378C154.371 426.324 155.038 425.426 155.889 424.794C156.739 424.162 157.736 423.825 158.756 423.824C160.167 423.863 161.506 424.527 162.482 425.671C163.457 426.815 163.99 428.347 163.964 429.93Z" fill="white"/>
<path d="M185.106 429.93C185.064 431.08 184.722 432.19 184.122 433.123C183.523 434.056 182.692 434.77 181.734 435.177C180.775 435.584 179.731 435.665 178.732 435.411C177.733 435.157 176.822 434.578 176.114 433.747C175.405 432.916 174.93 431.869 174.747 430.737C174.564 429.605 174.681 428.438 175.085 427.38C175.488 426.323 176.16 425.422 177.016 424.789C177.872 424.157 178.874 423.821 179.899 423.824C181.309 423.863 182.648 424.527 183.624 425.671C184.6 426.815 185.133 428.347 185.106 429.93Z" fill="white"/>
<path d="M206.249 429.93C206.207 431.08 205.865 432.19 205.265 433.123C204.665 434.056 203.835 434.77 202.876 435.177C201.918 435.584 200.874 435.665 199.875 435.411C198.875 435.157 197.965 434.578 197.256 433.747C196.548 432.916 196.072 431.869 195.889 430.737C195.706 429.605 195.824 428.438 196.227 427.38C196.631 426.323 197.302 425.422 198.158 424.789C199.014 424.157 200.017 423.821 201.041 423.824C202.452 423.863 203.791 424.527 204.767 425.671C205.742 426.815 206.275 428.347 206.249 429.93Z" fill="white"/>
<path d="M779.554 215.344H462.662V570.016H779.554V215.344Z" fill="#F0F0F0"/>
<path d="M779.554 215.344H462.662V256.888H779.554V215.344Z" fill="#E0E0E0"/>
<path d="M489.655 235.699C489.597 237.21 489.145 238.667 488.355 239.892C487.566 241.116 486.473 242.053 485.214 242.587C483.954 243.12 482.583 243.226 481.27 242.892C479.957 242.557 478.76 241.797 477.829 240.706C476.897 239.615 476.272 238.24 476.03 236.753C475.788 235.266 475.94 233.732 476.468 232.341C476.995 230.95 477.875 229.764 478.998 228.93C480.121 228.096 481.437 227.651 482.783 227.649C484.644 227.698 486.411 228.572 487.699 230.081C488.987 231.59 489.69 233.61 489.655 235.699Z" fill="white"/>
<path d="M515.477 230.259C516.391 231.373 516.992 232.764 517.207 234.26C517.421 235.755 517.239 237.288 516.683 238.668C516.127 240.047 515.222 241.213 514.08 242.019C512.938 242.825 511.61 243.236 510.262 243.201C508.914 243.165 507.605 242.685 506.498 241.82C505.391 240.955 504.535 239.744 504.037 238.336C503.538 236.929 503.42 235.388 503.696 233.906C503.973 232.423 504.631 231.065 505.59 230C506.933 228.565 508.728 227.786 510.581 227.835C512.435 227.883 514.195 228.755 515.477 230.259Z" fill="white"/>
<path d="M545.321 235.699C545.263 237.21 544.811 238.667 544.021 239.892C543.232 241.116 542.139 242.053 540.88 242.587C539.62 243.12 538.249 243.226 536.936 242.892C535.623 242.557 534.426 241.797 533.495 240.706C532.563 239.615 531.938 238.24 531.696 236.753C531.454 235.266 531.606 233.732 532.134 232.341C532.661 230.95 533.541 229.764 534.664 228.93C535.787 228.096 537.103 227.651 538.449 227.649C540.31 227.698 542.077 228.572 543.365 230.081C544.653 231.59 545.356 233.61 545.321 235.699Z" fill="white"/>
<path d="M711.1 927.519C711.1 927.778 596.67 928 455.56 928C314.45 928 199.97 927.778 199.97 927.519C199.97 927.26 314.384 927.038 455.56 927.038C596.735 927.038 711.1 927.278 711.1 927.519Z" fill="black"/>
<path d="M599.603 700.977C574.143 681.01 568.375 643.944 569.38 610.616C569.545 605.064 569.001 599.18 571.358 594.313C573.714 589.446 579.218 586.097 583.651 588.428C587.326 590.371 588.924 595.183 590.984 599.161C593.733 604.46 597.76 608.778 602.602 611.615C605.749 613.466 609.655 614.576 612.77 612.652C617.054 610.005 617.548 603.399 617.515 597.847C617.515 587.521 617.461 577.208 617.351 566.907C617.055 561.375 617.555 555.826 618.834 550.474C620.366 545.218 623.777 540.352 628.441 538.871C633.105 537.391 638.922 540.444 639.976 545.848C640.158 548.136 640.207 550.436 640.125 552.732C640.256 555.045 641.212 557.58 643.14 558.283C645.068 558.986 647.079 557.376 648.562 555.748C653.637 550.196 657.098 542.961 660.311 535.818C663.525 528.675 666.672 521.328 671.286 515.24C675.901 509.152 682.278 504.322 689.413 503.859C696.549 503.396 703.981 508.319 705.761 516.091C707.54 523.863 703.503 531.802 699.169 538.112C692.629 547.479 684.92 555.737 676.28 562.632C674.593 563.666 673.247 565.281 672.44 567.24C671.369 570.941 674.483 574.642 677.73 575.808C681.405 577.177 685.393 576.751 689.265 577.269C693.138 577.788 697.257 579.675 698.724 583.746C700.734 589.409 696.516 595.331 692.38 599.217C684.074 606.989 674.643 613.104 664.497 617.296C660.872 618.777 657.065 620.091 654.132 622.941C651.199 625.79 649.452 630.768 651.215 634.673C652.978 638.577 657.51 639.817 661.317 639.022C665.123 638.226 668.502 635.931 672.127 634.395C678.9 631.527 687.634 632.045 691.902 638.615C693.224 640.877 694.061 643.454 694.347 646.141C694.633 648.829 694.36 651.554 693.55 654.103C691.9 659.176 689.362 663.826 686.085 667.779C675.292 682.26 661.268 693.263 645.447 699.663C629.743 705.77 615.192 707.436 599.586 701.014" fill="#84CC16"/>
<path d="M698.51 508.43C698.51 508.43 698.362 508.615 698.032 508.948L696.565 510.41C695.28 511.705 693.385 513.593 690.995 516.091C684.221 523.155 677.93 530.782 672.176 538.908C668.502 544.034 664.695 549.844 660.641 556.155C656.587 562.465 652.402 569.275 648.249 576.511C643.822 584.141 639.767 592.036 636.104 600.16C634.192 604.398 632.511 608.821 630.781 613.336L625.673 627.122C618.939 644.488 613.074 662.262 608.106 680.362C604.104 695.171 601.346 710.369 599.866 725.756C598.908 736.139 598.754 746.597 599.405 757.011C599.669 760.712 599.916 763.543 600.147 765.468C600.246 766.393 600.311 767.133 600.377 767.67V768.429C600.306 768.188 600.257 767.94 600.229 767.689C600.147 767.152 600.048 766.43 599.916 765.505C599.619 763.654 599.306 760.731 599.01 757.029C598.215 746.596 598.27 736.103 599.174 725.682C600.562 710.229 603.26 694.961 607.233 680.085C612.159 661.934 618.008 644.115 624.75 626.715L629.99 612.984C631.72 608.488 633.418 604.028 635.346 599.772C639.035 591.622 643.122 583.709 647.59 576.066C651.808 568.664 656.06 561.965 660.064 555.711C664.069 549.456 667.941 543.608 671.6 538.501C677.412 530.396 683.787 522.822 690.666 515.85C693.105 513.389 695.049 511.539 696.368 510.299L697.9 508.911C698.088 508.727 698.292 508.566 698.51 508.43Z" fill="black"/>
<path d="M635.56 599.735C635.327 598.973 635.167 598.185 635.082 597.385C634.818 595.849 634.522 593.684 634.176 590.871C633.467 585.319 632.742 577.714 631.968 569.294C631.193 560.874 630.32 553.25 629.595 547.754C629.216 545.015 628.886 542.813 628.655 541.277C628.475 540.491 628.381 539.683 628.375 538.871C628.659 539.612 628.864 540.389 628.985 541.184C629.347 542.702 629.759 544.885 630.221 547.643C631.16 553.194 632.083 560.744 632.857 569.183C633.632 577.621 634.291 585.023 634.802 590.778C635.049 593.369 635.263 595.571 635.428 597.329C635.556 598.123 635.6 598.93 635.56 599.735Z" fill="black"/>
<path d="M698.971 586.448C698.169 586.644 697.353 586.756 696.532 586.781C694.884 586.948 692.544 587.17 689.644 587.54C683.844 588.243 675.868 589.538 667.117 591.389C658.367 593.239 650.506 595.331 644.854 596.941C642.036 597.755 639.762 598.495 638.263 598.995C637.462 599.314 636.633 599.537 635.791 599.661C636.552 599.231 637.346 598.878 638.164 598.606C639.713 597.995 641.954 597.144 644.755 596.237C650.375 594.387 658.235 592.185 667.018 590.297C674.459 588.7 681.966 587.526 689.512 586.781C692.429 586.504 694.786 586.393 696.433 586.356C697.28 586.291 698.13 586.322 698.971 586.448Z" fill="black"/>
<path d="M608.04 678.789C607.864 678.521 607.72 678.229 607.612 677.919L606.524 675.347C605.585 673.108 604.316 669.796 602.8 665.743C599.735 657.601 595.829 646.201 591.676 633.544C587.524 620.886 583.7 609.487 580.8 601.252C579.383 597.255 578.213 593.979 577.34 591.537L576.417 588.891C576.289 588.585 576.2 588.261 576.153 587.928C576.329 588.196 576.473 588.488 576.582 588.798L577.669 591.37C578.592 593.609 579.877 596.922 581.393 600.974C584.459 609.117 588.364 620.516 592.517 633.174C596.669 645.831 600.493 657.23 603.393 665.465C604.81 669.462 605.98 672.738 606.837 675.181C607.216 676.235 607.529 677.031 607.776 677.827C607.904 678.132 607.993 678.456 608.04 678.789Z" fill="black"/>
<path d="M692.215 648.311C691.951 648.481 691.668 648.612 691.374 648.7L688.936 649.625L679.922 652.9C672.308 655.676 661.795 659.636 650.259 664.004C638.724 668.371 628.161 672.257 620.498 674.848C616.675 676.161 613.56 677.161 611.402 677.827L608.913 678.549C608.624 678.652 608.326 678.72 608.024 678.752C608.287 678.582 608.57 678.451 608.864 678.364L611.303 677.438L620.317 674.163C627.93 671.387 638.444 667.427 649.979 663.06C661.514 658.692 672.061 654.806 679.724 652.216C683.563 650.902 686.661 649.902 688.837 649.236L691.325 648.515C691.614 648.411 691.913 648.343 692.215 648.311Z" fill="black"/>
<path d="M657.873 199.429L649.386 202.834L645.744 190.38C639.054 167.415 617.73 155.22 598.136 162.974C578.543 170.727 568.111 195.913 574.802 218.878L578.444 231.332L569.924 234.756C566.675 236.171 564.037 238.937 562.558 242.48C561.079 246.023 560.872 250.07 561.981 253.779L585.596 334.814C586.086 336.65 586.9 338.357 587.989 339.833C589.078 341.309 590.42 342.524 591.936 343.407C593.452 344.289 595.11 344.82 596.812 344.968C598.514 345.116 600.225 344.879 601.844 344.27L689.792 308.943C693.084 307.531 695.76 304.74 697.256 301.157C698.753 297.575 698.954 293.48 697.818 289.735L674.187 208.7C673.684 206.869 672.858 205.17 671.757 203.706C670.657 202.241 669.305 201.04 667.783 200.175C666.26 199.31 664.598 198.798 662.895 198.669C661.193 198.541 659.484 198.8 657.873 199.429ZM590.836 212.383C589.032 206.412 589.356 199.888 591.74 194.179C594.123 188.47 598.382 184.018 603.624 181.757C606.212 180.762 608.952 180.363 611.68 180.584C614.409 180.805 617.07 181.64 619.504 183.041C621.939 184.442 624.097 186.379 625.851 188.736C627.604 191.094 628.917 193.825 629.71 196.764L633.335 209.218L594.461 224.837L590.836 212.383ZM640.273 284.294L646.304 304.983C646.415 305.398 646.379 305.845 646.204 306.231C646.029 306.617 645.729 306.912 645.365 307.056L636.911 310.442C636.575 310.547 636.215 310.501 635.908 310.315C635.601 310.129 635.37 309.816 635.263 309.443L629.183 288.847C625.83 288.641 622.613 287.291 619.962 284.976C617.311 282.661 615.354 279.492 614.351 275.893C612.918 271.135 613.18 265.939 615.081 261.393C616.982 256.847 620.376 253.303 624.552 251.503C626.614 250.712 628.796 250.395 630.969 250.571C633.142 250.748 635.262 251.413 637.201 252.529C639.14 253.644 640.859 255.187 642.256 257.064C643.653 258.942 644.699 261.116 645.332 263.457C646.392 267.113 646.48 271.037 645.584 274.748C644.689 278.459 642.849 281.796 640.289 284.35L640.273 284.294Z" fill="#84CC16"/>
<path d="M649.007 202.612C649.007 202.871 633.269 209.515 613.692 217.416C594.115 225.318 578.147 231.665 578.065 231.48C577.982 231.295 593.802 224.596 613.396 216.676C632.989 208.756 648.925 202.371 649.007 202.612Z" fill="black"/>
<path d="M667.694 206.017C667.767 206.178 667.827 206.345 667.875 206.517C668.007 206.887 668.156 207.368 668.353 207.96C668.782 209.311 669.375 211.18 670.117 213.512L676.444 234.201C679.081 242.972 682.229 253.372 685.722 264.919C687.37 270.712 689.315 276.744 691.127 283.092C692.097 286.362 692.517 289.808 692.363 293.251C692.223 295.042 691.77 296.784 691.028 298.377C690.236 299.965 689.179 301.366 687.914 302.504C685.368 304.591 682.542 306.208 679.543 307.296L671.056 310.72L654.989 317.178L627.782 328.059L609.408 335.313L604.464 337.164L603.146 337.645C603.005 337.715 602.855 337.759 602.701 337.775C602.701 337.775 602.833 337.775 603.113 337.553L604.398 336.979L609.342 334.888L627.617 327.338L654.775 316.234L670.809 309.721L679.295 306.279C682.21 305.235 684.953 303.666 687.419 301.634C688.597 300.578 689.581 299.278 690.32 297.803C691.018 296.33 691.438 294.711 691.556 293.047C691.707 289.73 691.305 286.41 690.369 283.258C688.59 276.966 686.711 270.878 685.014 265.086C681.586 253.52 678.422 243.083 675.917 234.312C673.412 225.54 671.303 218.49 669.853 213.53C669.161 211.106 668.633 209.219 668.205 207.849L667.809 206.369C667.76 206.257 667.721 206.139 667.694 206.017Z" fill="black"/>
<path d="M621.289 180.498C621.289 180.498 620.416 180.017 618.801 179.277C616.499 178.284 614.064 177.733 611.599 177.649C607.946 177.508 604.31 178.279 600.954 179.906C596.873 181.932 593.383 185.21 590.885 189.362C588.371 193.503 587.022 198.396 587.013 203.408C587.047 207.516 587.602 211.597 588.661 215.529C589.518 218.897 590.407 221.58 591.001 223.449C591.351 224.398 591.637 225.376 591.858 226.373C591.39 225.485 590.998 224.55 590.688 223.579C590.012 221.728 589.04 219.1 588.084 215.714C586.911 211.741 586.272 207.593 586.189 203.408C586.145 198.207 587.526 193.116 590.144 188.826C592.729 184.522 596.361 181.143 600.608 179.092C604.069 177.456 607.818 176.734 611.567 176.982C614.085 177.126 616.559 177.785 618.867 178.925C619.484 179.245 620.079 179.616 620.647 180.036C620.881 180.151 621.098 180.307 621.289 180.498Z" fill="black"/>
<path d="M622.047 252.909C622.31 252.73 622.586 252.576 622.871 252.447C623.696 252.029 624.55 251.688 625.425 251.429C626.814 250.969 628.247 250.695 629.693 250.615C631.661 250.496 633.629 250.83 635.478 251.596C639.696 253.261 643.569 258.091 645.48 264.549C646.397 268.015 646.397 271.705 645.48 275.171C644.464 278.933 642.642 282.358 640.174 285.146L640.273 284.646C642.465 291.4 644.854 298.728 647.326 306.371L647.474 306.834L647.062 307L643.289 308.407L635.049 311.497L634.637 311.645L634.505 311.182C632.248 303.521 629.776 296.378 627.914 289.365L628.276 289.679C625.055 289.379 621.983 288.021 619.444 285.775C617.146 283.788 615.262 281.261 613.923 278.373C612.715 275.811 612.113 272.943 612.176 270.045C612.253 267.083 612.911 264.177 614.105 261.535C615.298 258.892 616.998 256.579 619.081 254.76C619.939 253.978 620.901 253.354 621.932 252.909C621.001 253.53 620.099 254.203 619.229 254.926C616.941 257.101 615.188 259.898 614.137 263.05C613.236 265.428 612.814 267.999 612.902 270.581C612.991 273.163 613.587 275.691 614.648 277.984C615.965 280.763 617.803 283.188 620.037 285.09C622.459 287.225 625.388 288.512 628.458 288.791H628.738L628.82 289.069C630.633 295.953 633.121 303.151 635.412 310.849L634.868 310.553L643.107 307.463L646.865 306.038L646.601 306.667C644.146 299.025 641.773 291.678 639.597 284.923V284.646L639.795 284.424C642.191 281.751 643.977 278.47 645.002 274.857C645.877 271.541 645.877 268.013 645.002 264.697C643.206 258.479 639.499 253.761 635.478 252.095C633.698 251.324 631.798 250.966 629.891 251.04C628.468 251.077 627.053 251.294 625.673 251.688C623.217 252.373 622.064 253.002 622.047 252.909Z" fill="black"/>
<path d="M571.111 787.23L406.502 786.379C396.996 786.32 387.899 782.027 381.21 774.442C374.52 766.858 370.785 756.601 370.825 745.926L372.571 282.536C372.591 277.247 373.538 272.015 375.36 267.137C377.181 262.26 379.84 257.834 383.186 254.111C386.531 250.389 390.497 247.443 394.857 245.443C399.217 243.443 403.885 242.427 408.595 242.454L573.187 243.305C582.693 243.359 591.791 247.647 598.484 255.229C605.176 262.81 608.916 273.064 608.88 283.739L607.134 747.111C607.114 752.401 606.167 757.636 604.346 762.515C602.525 767.394 599.866 771.823 596.521 775.549C593.176 779.274 589.211 782.223 584.851 784.227C580.491 786.232 575.822 787.252 571.111 787.23Z" fill="#455A64"/>
<path d="M572.94 259.238H541.036C539.995 259.26 538.968 259.511 538.014 259.979C537.06 260.446 536.197 261.12 535.475 261.962C534.752 262.804 534.185 263.798 533.805 264.886C533.424 265.975 533.239 267.137 533.258 268.306V274.801C533.278 275.969 533.092 277.13 532.712 278.217C532.331 279.305 531.764 280.297 531.041 281.138C530.319 281.978 529.455 282.65 528.501 283.116C527.547 283.581 526.52 283.831 525.48 283.85L463.288 283.535C461.185 283.472 459.189 282.474 457.74 280.76C456.291 279.046 455.507 276.757 455.56 274.394V267.899C455.613 265.539 454.831 263.252 453.386 261.538C451.94 259.825 449.949 258.825 447.848 258.757H436.625L408.693 258.609C402.05 258.564 395.661 261.478 390.926 266.712C386.191 271.946 383.496 279.073 383.431 286.533L381.783 738.839C381.768 742.54 382.402 746.209 383.649 749.634C384.897 753.06 386.733 756.177 389.052 758.806C391.372 761.435 394.131 763.525 397.17 764.957C400.209 766.389 403.47 767.135 406.765 767.152L571.028 768.003C574.326 768.02 577.595 767.308 580.648 765.906C583.701 764.505 586.478 762.442 588.82 759.835C591.163 757.228 593.026 754.129 594.302 750.714C595.578 747.298 596.242 743.635 596.258 739.931L597.905 287.625C597.945 280.144 595.337 272.951 590.656 267.628C585.974 262.305 579.602 259.287 572.94 259.238Z" fill="white"/>
<path d="M550.841 707.658L428.699 707.065C427.43 707.065 426.408 705.511 426.425 703.624L426.557 667.742C426.557 665.891 427.595 664.3 428.864 664.3L551.006 664.929C551.709 665.066 552.338 665.502 552.762 666.146C553.186 666.791 553.371 667.595 553.28 668.389L553.165 704.234C553.165 706.14 552.11 707.676 550.841 707.658Z" fill="#84CC16"/>
<path d="M465.805 678.526C465.77 678.233 465.63 678.006 465.383 677.844C465.137 677.683 464.835 677.602 464.477 677.602C464.215 677.602 463.986 677.644 463.789 677.729C463.595 677.813 463.443 677.93 463.333 678.078C463.225 678.226 463.171 678.395 463.171 678.583C463.171 678.741 463.209 678.877 463.284 678.991C463.361 679.102 463.459 679.196 463.579 679.271C463.698 679.344 463.823 679.404 463.954 679.453C464.085 679.499 464.205 679.536 464.315 679.565L464.916 679.727C465.07 679.767 465.241 679.823 465.429 679.894C465.62 679.966 465.802 680.063 465.975 680.186C466.15 680.307 466.295 680.463 466.408 680.654C466.522 680.844 466.579 681.078 466.579 681.355C466.579 681.675 466.495 681.964 466.328 682.222C466.162 682.48 465.919 682.685 465.6 682.837C465.282 682.989 464.896 683.065 464.442 683.065C464.018 683.065 463.652 682.997 463.342 682.86C463.034 682.723 462.791 682.533 462.614 682.288C462.439 682.044 462.34 681.76 462.317 681.436H463.056C463.075 681.66 463.15 681.844 463.281 681.991C463.414 682.135 463.581 682.243 463.784 682.314C463.988 682.383 464.207 682.418 464.442 682.418C464.715 682.418 464.961 682.374 465.178 682.285C465.396 682.195 465.568 682.07 465.695 681.91C465.822 681.748 465.886 681.56 465.886 681.344C465.886 681.148 465.831 680.988 465.721 680.865C465.611 680.741 465.467 680.641 465.288 680.564C465.109 680.487 464.916 680.42 464.708 680.362L463.98 680.154C463.518 680.021 463.152 679.832 462.883 679.585C462.613 679.339 462.478 679.017 462.478 678.618C462.478 678.287 462.568 677.998 462.747 677.752C462.928 677.504 463.17 677.311 463.475 677.174C463.781 677.036 464.122 676.966 464.5 676.966C464.881 676.966 465.22 677.035 465.516 677.171C465.813 677.306 466.047 677.491 466.221 677.726C466.396 677.961 466.488 678.227 466.498 678.526H465.805ZM468.472 677.047V682.961H467.756V677.047H468.472ZM474.597 677.047V682.961H473.904L470.682 678.318H470.624V682.961H469.908V677.047H470.601L473.835 681.702H473.893V677.047H474.597ZM480.073 678.895C480.009 678.701 479.926 678.527 479.822 678.373C479.72 678.217 479.597 678.084 479.455 677.974C479.314 677.864 479.155 677.781 478.976 677.723C478.797 677.665 478.6 677.636 478.387 677.636C478.036 677.636 477.718 677.727 477.431 677.908C477.144 678.089 476.916 678.355 476.746 678.708C476.577 679.06 476.492 679.492 476.492 680.004C476.492 680.516 476.578 680.948 476.749 681.301C476.921 681.653 477.153 681.92 477.445 682.1C477.738 682.281 478.067 682.372 478.433 682.372C478.772 682.372 479.07 682.3 479.328 682.155C479.588 682.009 479.79 681.803 479.934 681.537C480.081 681.27 480.154 680.955 480.154 680.593L480.373 680.639H478.594V680.004H480.847V680.639C480.847 681.126 480.743 681.55 480.535 681.91C480.329 682.27 480.044 682.549 479.68 682.747C479.318 682.944 478.902 683.042 478.433 683.042C477.909 683.042 477.449 682.919 477.053 682.672C476.658 682.426 476.35 682.075 476.129 681.621C475.909 681.167 475.799 680.628 475.799 680.004C475.799 679.536 475.862 679.116 475.987 678.742C476.114 678.367 476.293 678.047 476.524 677.784C476.755 677.52 477.028 677.318 477.344 677.177C477.66 677.037 478.007 676.966 478.387 676.966C478.698 676.966 478.989 677.014 479.259 677.108C479.53 677.2 479.772 677.332 479.983 677.504C480.197 677.673 480.375 677.876 480.518 678.113C480.66 678.348 480.758 678.608 480.812 678.895H480.073ZM488.241 677.047H488.957V680.963C488.957 681.367 488.862 681.728 488.671 682.046C488.483 682.361 488.216 682.611 487.871 682.793C487.527 682.974 487.123 683.065 486.659 683.065C486.195 683.065 485.79 682.974 485.446 682.793C485.101 682.611 484.834 682.361 484.643 682.046C484.454 681.728 484.36 681.367 484.36 680.963V677.047H485.076V680.905C485.076 681.194 485.14 681.451 485.267 681.676C485.394 681.899 485.575 682.075 485.81 682.204C486.046 682.331 486.329 682.395 486.659 682.395C486.988 682.395 487.271 682.331 487.508 682.204C487.744 682.075 487.925 681.899 488.05 681.676C488.177 681.451 488.241 681.194 488.241 680.905V677.047ZM490.387 682.961V677.047H492.385C492.849 677.047 493.228 677.131 493.523 677.298C493.819 677.464 494.039 677.688 494.181 677.971C494.324 678.254 494.395 678.57 494.395 678.918C494.395 679.267 494.324 679.583 494.181 679.868C494.041 680.153 493.823 680.38 493.529 680.55C493.234 680.717 492.857 680.801 492.397 680.801H490.965V680.166H492.374C492.691 680.166 492.946 680.111 493.139 680.001C493.331 679.891 493.471 679.743 493.558 679.557C493.646 679.368 493.69 679.155 493.69 678.918C493.69 678.682 493.646 678.47 493.558 678.283C493.471 678.096 493.331 677.95 493.136 677.844C492.942 677.736 492.684 677.683 492.362 677.683H491.103V682.961H490.387Z" fill="#E8E8E3"/>
<path d="M453.062 392.199L410.678 391.983L410.643 400.717L453.026 400.933L453.062 392.199Z" fill="#84CC16"/>
<path opacity="0.1" d="M453.062 392.199L410.678 391.983L410.643 400.717L453.026 400.933L453.062 392.199Z" fill="black"/>
<path d="M577.307 445.827C577.64 445.789 577.966 445.702 578.279 445.568C578.735 445.367 579.132 445.027 579.423 444.585C579.715 444.143 579.889 443.618 579.927 443.069C579.927 440.127 579.927 435.834 579.927 430.319C579.927 427.562 579.927 424.472 579.927 421.067C579.927 420.234 579.927 419.364 579.927 418.494C580.034 417.651 579.871 416.791 579.465 416.07C579.239 415.725 578.943 415.443 578.603 415.247C578.263 415.051 577.887 414.946 577.504 414.941H574.934H551.122L413.291 414.368C412.938 414.361 412.589 414.45 412.274 414.627C411.958 414.804 411.685 415.065 411.478 415.386C411.08 416.109 410.928 416.97 411.05 417.81C411.05 419.66 411.05 421.511 411.05 423.361C411.05 427.062 411.05 430.763 411.05 434.465C411.05 436.315 411.05 438.166 411.05 440.016C410.982 440.878 410.982 441.745 411.05 442.607C411.136 442.976 411.297 443.319 411.52 443.607C411.743 443.896 412.022 444.124 412.335 444.272C412.66 444.417 413.008 444.487 413.357 444.476H421.745L458.345 444.698L520.306 445.124L562.08 445.494L573.434 445.642H576.384C577.06 445.642 577.389 445.642 577.389 445.642H576.384H573.434H562.08H520.306L458.345 445.42L421.745 445.253H413.357C412.895 445.274 412.435 445.186 412.006 444.994C411.572 444.786 411.186 444.47 410.877 444.069C410.569 443.668 410.346 443.193 410.226 442.681C410.131 442.195 410.097 441.697 410.127 441.2V439.831C410.127 437.981 410.127 436.13 410.127 434.279C410.127 430.578 410.127 426.877 410.127 423.176C410.127 421.326 410.127 419.475 410.127 417.625C410.096 417.132 410.096 416.637 410.127 416.144C410.189 415.6 410.376 415.083 410.671 414.645C410.955 414.199 411.331 413.836 411.768 413.588C412.204 413.34 412.687 413.214 413.176 413.22L551.006 414.072L574.818 414.257H577.389C577.842 414.257 578.288 414.38 578.69 414.615C579.091 414.85 579.437 415.191 579.696 415.608C580.161 416.412 580.348 417.379 580.224 418.328C580.224 419.198 580.224 420.067 580.224 420.9C580.224 424.268 580.224 427.358 580.224 430.153C580.224 435.704 580.108 439.961 580.075 442.921C580.035 443.491 579.851 444.035 579.544 444.491C579.238 444.947 578.822 445.295 578.345 445.494C578.033 445.711 577.674 445.826 577.307 445.827Z" fill="#E0E0E0"/>
<path d="M500.926 423.657H423.409V431.818H500.926V423.657Z" fill="#84CC16"/>
<path opacity="0.2" d="M500.926 423.657H423.409V431.818H500.926V423.657Z" fill="white"/>
<path d="M452.773 471.88L410.389 471.664L410.354 480.398L452.737 480.614L452.773 471.88Z" fill="#84CC16"/>
<path opacity="0.1" d="M452.773 471.88L410.389 471.664L410.354 480.398L452.737 480.614L452.773 471.88Z" fill="black"/>
<path d="M576.236 525.51C576.568 525.464 576.899 525.396 577.224 525.307C577.685 525.142 578.108 524.869 578.466 524.505C578.824 524.141 579.109 523.695 579.301 523.197C579.56 522.45 579.662 521.645 579.597 520.847C579.597 519.959 579.597 518.996 579.597 517.923C579.597 515.776 579.597 513.334 579.597 510.521V498.77C579.676 497.919 579.508 497.063 579.119 496.327C578.713 495.573 578.074 495.013 577.323 494.754C576.502 494.59 575.667 494.54 574.835 494.606H551.122L413.769 494.033C413.03 494.035 412.317 494.338 411.762 494.886C411.208 495.434 410.849 496.189 410.753 497.012C410.753 498.77 410.753 500.713 410.753 502.564C410.753 506.265 410.753 509.966 410.753 513.667C410.753 515.517 410.753 517.368 410.753 519.218C410.692 520.083 410.725 520.953 410.852 521.809C411.058 522.559 411.481 523.211 412.055 523.66C412.664 524.093 413.379 524.301 414.099 524.252H416.389H421.152L457.62 524.455L519.366 524.881L560.992 525.251L572.314 525.399H560.992H519.366L457.587 525.325L421.119 525.177H413.95C413.059 525.236 412.174 524.97 411.429 524.418C410.679 523.835 410.132 522.979 409.88 521.994C409.732 521.054 409.688 520.097 409.748 519.144C409.748 517.294 409.748 515.443 409.748 513.593C409.748 509.892 409.748 506.191 409.748 502.49C409.748 500.639 409.748 498.789 409.748 496.938C409.868 495.88 410.328 494.907 411.041 494.202C411.753 493.497 412.671 493.108 413.621 493.107L550.973 493.959L574.686 494.162C575.57 494.101 576.456 494.17 577.323 494.366C578.179 494.68 578.901 495.339 579.35 496.216C579.776 497.031 579.961 497.977 579.877 498.918C579.877 499.788 579.877 500.639 579.877 501.49C579.877 504.84 579.877 507.912 579.877 510.743C579.877 513.574 579.877 515.961 579.877 518.145C579.877 519.2 579.877 520.181 579.877 521.087C579.937 521.915 579.819 522.747 579.531 523.512C579.317 524.022 579.008 524.475 578.624 524.839C578.24 525.203 577.791 525.47 577.307 525.621C576.947 525.655 576.584 525.617 576.236 525.51Z" fill="#E0E0E0"/>
<path d="M452.453 555.022L410.07 554.806L410.034 563.54L452.418 563.756L452.453 555.022Z" fill="#84CC16"/>
<path opacity="0.1" d="M452.453 555.022L410.07 554.806L410.034 563.54L452.418 563.756L452.453 555.022Z" fill="black"/>
<path d="M575.906 608.617C576.239 608.573 576.569 608.505 576.895 608.414C577.353 608.25 577.775 607.979 578.133 607.619C578.491 607.258 578.777 606.817 578.971 606.323C579.229 605.575 579.331 604.771 579.268 603.973C579.268 603.066 579.268 602.122 579.268 601.03C579.268 598.902 579.268 596.441 579.268 593.628V581.877C579.346 581.027 579.179 580.17 578.79 579.435C578.374 578.694 577.737 578.143 576.994 577.88C576.173 577.709 575.338 577.653 574.505 577.714H550.792L413.439 577.14C412.701 577.142 411.987 577.445 411.433 577.993C410.878 578.541 410.52 579.297 410.424 580.119C410.424 581.97 410.424 583.82 410.424 585.671C410.424 589.372 410.424 593.073 410.424 596.774C410.424 598.625 410.424 600.475 410.424 602.326C410.362 603.184 410.396 604.048 410.523 604.898C410.72 605.653 411.145 606.307 411.726 606.748C412.33 607.192 413.048 607.4 413.769 607.341H420.937L457.405 607.563L519.152 607.988L560.778 608.358L572.099 608.506H560.778H519.152L457.405 608.303L420.937 608.136H413.769C412.877 608.204 411.99 607.937 411.248 607.378C410.498 606.794 409.951 605.938 409.699 604.953C409.551 604.013 409.507 603.056 409.567 602.104C409.567 600.253 409.567 598.402 409.567 596.552C409.567 592.851 409.567 589.15 409.567 585.449C409.567 583.598 409.567 581.748 409.567 579.805C409.683 578.748 410.139 577.776 410.85 577.07C411.56 576.365 412.475 575.975 413.423 575.974L550.775 576.825L574.489 577.029C575.372 576.968 576.258 577.037 577.125 577.232C577.982 577.547 578.704 578.206 579.152 579.083C579.579 579.898 579.763 580.844 579.68 581.785C579.68 582.654 579.68 583.524 579.68 584.357C579.68 587.706 579.68 590.778 579.68 593.61C579.68 596.441 579.68 598.828 579.68 601.012C579.68 602.067 579.68 603.047 579.68 603.954C579.743 604.782 579.624 605.614 579.334 606.378C579.12 606.889 578.81 607.342 578.426 607.706C578.042 608.07 577.593 608.337 577.109 608.488C576.723 608.636 576.31 608.681 575.906 608.617Z" fill="#E0E0E0"/>
<path d="M499.272 505.648L421.755 505.253L421.722 513.414L499.239 513.809L499.272 505.648Z" fill="#84CC16"/>
<path opacity="0.2" d="M499.272 505.648L421.755 505.253L421.722 513.414L499.239 513.809L499.272 505.648Z" fill="white"/>
<path d="M428.765 593.517C428.716 594.262 428.474 594.974 428.068 595.565C427.663 596.156 427.112 596.601 426.483 596.843C425.855 597.086 425.176 597.116 424.533 596.93C423.889 596.744 423.308 596.35 422.862 595.796C422.416 595.243 422.125 594.555 422.024 593.817C421.923 593.079 422.017 592.324 422.295 591.646C422.572 590.968 423.021 590.396 423.585 590.002C424.15 589.608 424.805 589.408 425.469 589.428C426.387 589.485 427.248 589.947 427.865 590.712C428.482 591.478 428.805 592.486 428.765 593.517Z" fill="#84CC16"/>
<path d="M439.262 593.573C439.294 594.094 439.231 594.618 439.075 595.111C438.92 595.604 438.676 596.056 438.358 596.438C438.04 596.821 437.656 597.126 437.229 597.334C436.802 597.543 436.341 597.65 435.876 597.65C435.41 597.65 434.949 597.543 434.522 597.334C434.095 597.126 433.711 596.821 433.393 596.438C433.075 596.056 432.831 595.604 432.676 595.111C432.52 594.618 432.457 594.094 432.489 593.573C432.457 593.051 432.52 592.527 432.676 592.034C432.831 591.541 433.075 591.09 433.393 590.707C433.711 590.325 434.095 590.02 434.522 589.811C434.949 589.603 435.41 589.495 435.876 589.495C436.341 589.495 436.802 589.603 437.229 589.811C437.656 590.02 438.04 590.325 438.358 590.707C438.676 591.09 438.92 591.541 439.075 592.034C439.231 592.527 439.294 593.051 439.262 593.573Z" fill="#84CC16"/>
<path d="M449.776 593.628C449.727 594.373 449.485 595.084 449.079 595.676C448.674 596.267 448.122 596.711 447.494 596.954C446.865 597.197 446.187 597.227 445.543 597.041C444.9 596.855 444.319 596.461 443.873 595.907C443.427 595.354 443.136 594.665 443.035 593.928C442.934 593.19 443.028 592.435 443.306 591.757C443.583 591.079 444.032 590.507 444.596 590.113C445.16 589.718 445.815 589.519 446.48 589.538C447.396 589.601 448.255 590.064 448.871 590.828C449.487 591.593 449.812 592.598 449.776 593.628Z" fill="#84CC16"/>
<path d="M460.273 593.684C460.224 594.428 459.982 595.14 459.576 595.731C459.171 596.323 458.619 596.767 457.991 597.01C457.362 597.253 456.684 597.283 456.041 597.097C455.397 596.91 454.816 596.516 454.37 595.963C453.924 595.409 453.633 594.721 453.532 593.983C453.431 593.246 453.525 592.491 453.803 591.813C454.08 591.135 454.529 590.563 455.093 590.169C455.658 589.774 456.313 589.574 456.977 589.594C457.893 589.656 458.752 590.119 459.368 590.884C459.984 591.648 460.309 592.653 460.273 593.684Z" fill="#84CC16"/>
<path d="M470.77 593.721C470.724 594.466 470.485 595.18 470.081 595.774C469.677 596.368 469.127 596.816 468.498 597.061C467.87 597.307 467.191 597.339 466.546 597.155C465.901 596.971 465.319 596.578 464.871 596.025C464.424 595.472 464.131 594.784 464.029 594.045C463.927 593.307 464.02 592.551 464.297 591.872C464.575 591.193 465.024 590.62 465.588 590.225C466.153 589.83 466.809 589.63 467.474 589.65C468.388 589.712 469.244 590.172 469.859 590.933C470.475 591.693 470.802 592.694 470.77 593.721Z" fill="#84CC16"/>
<path d="M481.284 593.776C481.239 594.518 481.001 595.229 480.601 595.821C480.201 596.413 479.656 596.861 479.032 597.11C478.408 597.358 477.733 597.397 477.09 597.22C476.447 597.044 475.864 596.66 475.413 596.116C474.962 595.572 474.662 594.892 474.551 594.159C474.439 593.427 474.521 592.673 474.786 591.992C475.05 591.311 475.487 590.731 476.041 590.325C476.595 589.919 477.243 589.703 477.905 589.705C478.833 589.744 479.71 590.194 480.343 590.957C480.977 591.72 481.315 592.734 481.284 593.776Z" fill="#84CC16"/>
<path d="M491.781 593.832C491.813 594.354 491.75 594.877 491.594 595.37C491.439 595.863 491.194 596.315 490.877 596.697C490.559 597.08 490.175 597.385 489.748 597.593C489.321 597.802 488.86 597.909 488.394 597.909C487.928 597.909 487.468 597.802 487.041 597.593C486.614 597.385 486.229 597.08 485.912 596.697C485.594 596.315 485.35 595.863 485.194 595.37C485.039 594.877 484.975 594.354 485.008 593.832C484.975 593.31 485.039 592.787 485.194 592.294C485.35 591.801 485.594 591.349 485.912 590.966C486.229 590.584 486.614 590.279 487.041 590.071C487.468 589.862 487.928 589.754 488.394 589.754C488.86 589.754 489.321 589.862 489.748 590.071C490.175 590.279 490.559 590.584 490.877 590.966C491.194 591.349 491.439 591.801 491.594 592.294C491.75 592.787 491.813 593.31 491.781 593.832Z" fill="#84CC16"/>
<path d="M502.278 593.887C502.233 594.629 501.996 595.339 501.596 595.932C501.196 596.524 500.65 596.972 500.026 597.221C499.403 597.469 498.728 597.508 498.085 597.331C497.442 597.154 496.859 596.771 496.407 596.227C495.956 595.683 495.656 595.003 495.545 594.27C495.433 593.537 495.515 592.784 495.78 592.103C496.045 591.422 496.481 590.842 497.035 590.436C497.59 590.029 498.238 589.814 498.9 589.816C499.828 589.855 500.704 590.305 501.338 591.068C501.971 591.831 502.309 592.845 502.278 593.887Z" fill="#84CC16"/>
<path d="M512.775 593.943C512.729 594.688 512.49 595.402 512.086 595.996C511.682 596.59 511.132 597.037 510.503 597.283C509.875 597.528 509.196 597.561 508.551 597.377C507.906 597.192 507.324 596.799 506.876 596.246C506.429 595.694 506.136 595.005 506.034 594.267C505.932 593.528 506.025 592.773 506.302 592.093C506.58 591.414 507.029 590.841 507.593 590.446C508.158 590.051 508.814 589.851 509.479 589.871C510.393 589.934 511.249 590.394 511.864 591.154C512.48 591.915 512.807 592.915 512.775 593.943Z" fill="#84CC16"/>
<g opacity="0.2">
<path d="M428.765 593.517C428.716 594.262 428.474 594.974 428.068 595.565C427.663 596.156 427.112 596.601 426.483 596.843C425.855 597.086 425.176 597.116 424.533 596.93C423.889 596.744 423.308 596.35 422.862 595.796C422.416 595.243 422.125 594.555 422.024 593.817C421.923 593.079 422.017 592.324 422.295 591.646C422.572 590.968 423.021 590.396 423.585 590.002C424.15 589.608 424.805 589.408 425.469 589.428C426.387 589.485 427.248 589.947 427.865 590.712C428.482 591.478 428.805 592.486 428.765 593.517Z" fill="white"/>
<path d="M439.262 593.573C439.295 594.094 439.231 594.618 439.075 595.111C438.92 595.604 438.676 596.056 438.358 596.438C438.041 596.821 437.656 597.126 437.229 597.334C436.802 597.543 436.341 597.65 435.876 597.65C435.41 597.65 434.949 597.543 434.522 597.334C434.095 597.126 433.711 596.821 433.393 596.438C433.075 596.056 432.831 595.604 432.676 595.111C432.52 594.618 432.457 594.094 432.489 593.573C432.457 593.051 432.52 592.527 432.676 592.034C432.831 591.541 433.075 591.09 433.393 590.707C433.711 590.325 434.095 590.02 434.522 589.811C434.949 589.603 435.41 589.495 435.876 589.495C436.341 589.495 436.802 589.603 437.229 589.811C437.656 590.02 438.041 590.325 438.358 590.707C438.676 591.09 438.92 591.541 439.075 592.034C439.231 592.527 439.295 593.051 439.262 593.573Z" fill="white"/>
<path d="M449.776 593.628C449.727 594.373 449.485 595.084 449.079 595.676C448.674 596.267 448.122 596.711 447.494 596.954C446.865 597.197 446.187 597.227 445.543 597.041C444.9 596.855 444.319 596.461 443.873 595.907C443.427 595.354 443.136 594.665 443.035 593.928C442.934 593.19 443.028 592.435 443.306 591.757C443.583 591.079 444.032 590.507 444.596 590.113C445.16 589.718 445.815 589.519 446.48 589.538C447.396 589.601 448.255 590.064 448.871 590.828C449.487 591.593 449.812 592.598 449.776 593.628Z" fill="white"/>
<path d="M460.273 593.684C460.224 594.428 459.982 595.14 459.576 595.731C459.171 596.323 458.619 596.767 457.991 597.01C457.362 597.253 456.684 597.283 456.041 597.097C455.397 596.91 454.816 596.516 454.37 595.963C453.924 595.409 453.633 594.721 453.532 593.983C453.431 593.246 453.525 592.491 453.803 591.813C454.08 591.135 454.529 590.563 455.093 590.169C455.658 589.774 456.313 589.574 456.977 589.594C457.893 589.656 458.752 590.119 459.368 590.884C459.984 591.648 460.309 592.653 460.273 593.684Z" fill="white"/>
<path d="M470.77 593.721C470.724 594.466 470.485 595.18 470.081 595.774C469.677 596.368 469.127 596.816 468.498 597.061C467.87 597.307 467.191 597.339 466.546 597.155C465.901 596.971 465.319 596.578 464.871 596.025C464.424 595.472 464.131 594.784 464.029 594.045C463.927 593.307 464.02 592.551 464.297 591.872C464.575 591.193 465.024 590.62 465.588 590.225C466.153 589.83 466.809 589.63 467.474 589.65C468.388 589.712 469.244 590.172 469.859 590.933C470.475 591.693 470.802 592.694 470.77 593.721Z" fill="white"/>
<path d="M481.284 593.776C481.239 594.518 481.001 595.229 480.601 595.821C480.201 596.413 479.656 596.861 479.032 597.11C478.408 597.358 477.733 597.397 477.09 597.22C476.447 597.044 475.864 596.66 475.413 596.116C474.962 595.572 474.662 594.892 474.551 594.159C474.439 593.427 474.521 592.673 474.786 591.992C475.05 591.311 475.487 590.731 476.041 590.325C476.595 589.919 477.243 589.703 477.905 589.705C478.833 589.744 479.71 590.194 480.343 590.957C480.977 591.72 481.315 592.734 481.284 593.776Z" fill="white"/>
<path d="M491.781 593.832C491.813 594.354 491.75 594.877 491.594 595.37C491.439 595.863 491.194 596.315 490.877 596.697C490.559 597.08 490.175 597.385 489.748 597.593C489.321 597.802 488.86 597.909 488.394 597.909C487.928 597.909 487.468 597.802 487.041 597.593C486.614 597.385 486.229 597.08 485.912 596.697C485.594 596.315 485.35 595.863 485.194 595.37C485.039 594.877 484.975 594.354 485.008 593.832C484.975 593.31 485.039 592.787 485.194 592.294C485.35 591.801 485.594 591.349 485.912 590.966C486.229 590.584 486.614 590.279 487.041 590.071C487.468 589.862 487.928 589.754 488.394 589.754C488.86 589.754 489.321 589.862 489.748 590.071C490.175 590.279 490.559 590.584 490.877 590.966C491.194 591.349 491.439 591.801 491.594 592.294C491.75 592.787 491.813 593.31 491.781 593.832Z" fill="white"/>
<path d="M502.278 593.888C502.233 594.629 501.996 595.34 501.596 595.932C501.196 596.524 500.65 596.972 500.026 597.221C499.403 597.47 498.728 597.508 498.085 597.331C497.442 597.155 496.859 596.771 496.407 596.227C495.956 595.683 495.656 595.003 495.545 594.271C495.433 593.538 495.515 592.785 495.78 592.103C496.045 591.422 496.481 590.843 497.035 590.436C497.59 590.03 498.238 589.815 498.9 589.816C499.828 589.855 500.704 590.305 501.338 591.068C501.971 591.831 502.309 592.845 502.278 593.888Z" fill="white"/>
<path d="M512.775 593.943C512.729 594.689 512.49 595.403 512.086 595.996C511.682 596.59 511.132 597.038 510.503 597.283C509.875 597.529 509.196 597.561 508.551 597.377C507.906 597.193 507.324 596.8 506.876 596.247C506.429 595.694 506.136 595.006 506.034 594.267C505.932 593.529 506.025 592.773 506.302 592.094C506.58 591.415 507.029 590.842 507.593 590.447C508.158 590.052 508.814 589.852 509.479 589.872C510.393 589.934 511.249 590.394 511.864 591.155C512.48 591.915 512.807 592.916 512.775 593.943Z" fill="white"/>
</g>
<path d="M497.861 326.801C499.006 326.234 499.977 325.303 500.654 324.122C501.331 322.94 501.684 321.562 501.668 320.157C501.711 319.244 501.587 318.331 501.306 317.473C501.024 316.615 500.59 315.831 500.029 315.168C499.469 314.504 498.794 313.976 498.046 313.615C497.298 313.254 496.492 313.068 495.678 313.068C494.864 313.068 494.058 313.254 493.31 313.615C492.562 313.976 491.887 314.504 491.327 315.168C490.766 315.831 490.332 316.615 490.05 317.473C489.768 318.331 489.645 319.244 489.688 320.157C489.663 321.576 490.012 322.971 490.693 324.167C491.373 325.362 492.354 326.304 493.511 326.875C484.283 328.429 484.695 339.68 484.695 339.68L506.513 339.791C506.513 339.791 507.024 328.337 497.861 326.801Z" fill="#84CC16"/>
<path opacity="0.1" d="M497.861 326.801C499.006 326.234 499.977 325.303 500.654 324.122C501.331 322.94 501.684 321.562 501.668 320.157C501.711 319.244 501.587 318.331 501.306 317.473C501.024 316.615 500.59 315.831 500.029 315.168C499.469 314.504 498.794 313.976 498.046 313.615C497.298 313.254 496.492 313.068 495.678 313.068C494.864 313.068 494.058 313.254 493.31 313.615C492.562 313.976 491.887 314.504 491.327 315.168C490.766 315.831 490.332 316.615 490.05 317.473C489.768 318.331 489.645 319.244 489.688 320.157C489.663 321.576 490.012 322.971 490.693 324.167C491.373 325.362 492.354 326.304 493.511 326.875C484.283 328.429 484.695 339.68 484.695 339.68L506.513 339.791C506.513 339.791 507.024 328.337 497.861 326.801Z" fill="black"/>
<path d="M533.315 347.048L455.552 346.652L455.509 357.089L533.273 357.485L533.315 347.048Z" fill="#84CC16"/>
<path opacity="0.2" d="M533.315 347.048L455.552 346.652L455.509 357.089L533.273 357.485L533.315 347.048Z" fill="white"/>
<path d="M247.43 401.136H246.655L244.414 401.321C243.201 401.403 241.995 401.583 240.805 401.858C240.034 401.98 239.27 402.146 238.515 402.358L235.96 403.153C231.613 404.651 227.511 406.932 223.815 409.908C218.932 413.888 214.855 418.984 211.852 424.86C210.086 428.248 208.681 431.856 207.666 435.612C206.599 439.693 205.985 443.907 205.837 448.158C205.739 450.391 205.772 452.629 205.936 454.857C205.936 455.986 206.216 457.115 206.348 458.262C206.459 459.419 206.651 460.563 206.924 461.686C208.406 469.111 211.413 476.045 215.705 481.935C219.996 487.824 225.454 492.505 231.643 495.606C236.122 497.776 240.923 498.987 245.798 499.177C250.834 499.488 255.874 498.677 260.629 496.79L262.08 496.179H262.277L262.442 496.29L283.222 508.134L282.613 508.726C280.388 500.991 278.246 493.496 276.169 486.298V486.02L276.35 485.816C281.391 480.115 285.134 473.132 287.26 465.461C289.185 458.447 289.747 451.051 288.907 443.773C288.161 437.304 286.309 431.058 283.453 425.378C280.991 420.499 277.816 416.12 274.06 412.425C270.961 409.5 267.531 407.048 263.859 405.134C261.081 403.788 258.188 402.765 255.224 402.08L251.929 401.469L249.539 401.266L248.089 401.155H247.595C247.759 401.134 247.925 401.134 248.089 401.155H249.556L251.945 401.266L255.241 401.803C258.241 402.437 261.174 403.423 263.991 404.745C267.726 406.637 271.218 409.083 274.373 412.017C278.198 415.696 281.441 420.076 283.964 424.971C286.9 430.712 288.809 437.042 289.583 443.606C290.492 450.997 289.97 458.521 288.051 465.664C285.911 473.495 282.111 480.626 276.977 486.446L277.076 485.965C279.152 493.163 281.311 500.658 283.552 508.374L283.865 509.503L282.926 508.967L262.146 497.142H262.508L261.025 497.752C256.178 499.668 251.045 500.497 245.914 500.195C240.933 499.982 236.032 498.727 231.462 496.494C222.744 492.301 215.491 485.014 210.813 475.75C208.661 471.471 207.089 466.855 206.15 462.056C205.893 460.905 205.7 459.736 205.573 458.558C205.441 457.392 205.227 456.245 205.178 455.098C204.732 448.513 205.351 441.893 207.007 435.556C208.048 431.749 209.492 428.096 211.308 424.675C214.383 418.745 218.545 413.617 223.519 409.63C227.275 406.647 231.446 404.384 235.862 402.931L238.449 402.191C239.21 401.993 239.98 401.838 240.756 401.729C241.958 401.479 243.176 401.33 244.398 401.284L246.655 401.192C246.912 401.153 247.171 401.134 247.43 401.136Z" fill="#84CC16"/>
<path d="M256.823 444.291H253.774L247.183 433.891V427.062C247.183 427.062 242.47 426.729 243.03 435.667C243.59 444.605 243.03 442.329 243.03 442.329C243.03 442.329 233.027 442.329 232.203 443.347C231.379 444.365 231.33 455.209 231.214 461.26C231.151 462.719 231.524 464.159 232.273 465.353C233.023 466.546 234.106 467.425 235.351 467.848C235.7 467.956 236.06 468.012 236.422 468.014C238.927 468.014 251.665 465.738 251.665 465.738H256.922L256.823 444.291Z" fill="#84CC16"/>
<path d="M265.54 442.459L263.662 465.85H258.454V442.94L265.54 442.459Z" fill="#84CC16"/>
<path d="M327.65 918.655V902.833L302.387 902.629L302.173 926.556L303.739 926.686C310.709 927.186 339.201 927.926 343.881 926.297C349.089 924.484 327.65 918.655 327.65 918.655Z" fill="#84CC16"/>
<path d="M344.475 924.817C344.475 925.076 335.016 925.298 323.365 925.298C311.714 925.298 302.255 925.076 302.255 924.817C302.255 924.558 311.714 924.336 323.365 924.336C335.016 924.336 344.475 924.558 344.475 924.817Z" fill="black"/>
<path d="M328.095 921.893C327.88 921.764 328.095 920.931 328.605 920.043C329.116 919.155 329.808 918.784 329.973 918.97C330.138 919.155 329.792 919.858 329.298 920.616C328.803 921.375 328.309 922.023 328.095 921.893Z" fill="black"/>
<path d="M329.709 922.929C329.479 922.929 329.594 921.893 330.089 920.912C330.583 919.932 331.242 919.339 331.423 919.487C331.605 919.635 331.308 920.468 330.847 921.338C330.385 922.208 329.924 923.022 329.709 922.929Z" fill="black"/>
<path d="M309.869 924.743C309.77 924.743 309.391 924.41 308.847 923.707C308.183 922.803 307.444 921.973 306.639 921.227C305.847 920.517 304.904 920.051 303.903 919.876C303.129 919.765 302.634 919.876 302.585 919.765C302.536 919.654 303.013 919.265 303.92 919.191C305.116 919.163 306.283 919.609 307.216 920.45C308.09 921.25 308.827 922.222 309.391 923.318C309.77 924.132 309.968 924.669 309.869 924.743Z" fill="black"/>
<path d="M328.177 918.914C328.292 919.136 327.864 919.691 327.139 919.987C326.414 920.283 325.771 920.172 325.738 919.987C325.705 919.802 326.216 919.414 326.842 919.155C327.468 918.895 328.045 918.692 328.177 918.914Z" fill="black"/>
<path d="M327.781 917.378C327.781 917.656 327.122 917.878 326.265 917.896C325.408 917.915 324.733 917.693 324.749 917.434C324.766 917.174 325.441 916.934 326.265 916.915C327.089 916.897 327.748 917.119 327.781 917.378Z" fill="black"/>
<path d="M389.858 918.655V902.833L364.596 902.629L364.381 926.316L365.947 926.445C372.917 926.945 401.426 927.926 406.09 926.297C411.297 924.484 389.858 918.655 389.858 918.655Z" fill="#84CC16"/>
<path d="M406.683 924.854C406.683 925.113 397.241 925.335 385.573 925.335C373.906 925.335 364.48 925.113 364.48 924.854C364.48 924.595 373.923 924.373 385.573 924.373C397.224 924.373 406.683 924.595 406.683 924.854Z" fill="black"/>
<path d="M390.303 921.893C390.105 921.764 390.303 920.931 390.814 920.043C391.324 919.155 392.017 918.784 392.181 918.97C392.346 919.155 392 919.858 391.506 920.616C391.011 921.375 390.517 922.023 390.303 921.893Z" fill="black"/>
<path d="M391.918 922.929C391.704 922.929 391.802 921.893 392.313 920.912C392.824 919.932 393.467 919.339 393.648 919.487C393.829 919.635 393.516 920.468 393.055 921.338C392.593 922.208 392.148 923.022 391.918 922.929Z" fill="black"/>
<path d="M372.077 924.743C371.978 924.743 371.616 924.41 371.055 923.707C370.391 922.803 369.652 921.973 368.847 921.227C368.056 920.517 367.113 920.051 366.112 919.876C365.354 919.765 364.843 919.876 364.793 919.765C364.744 919.654 365.222 919.265 366.128 919.191C367.324 919.163 368.491 919.609 369.424 920.45C370.302 921.245 371.04 922.218 371.599 923.318C371.978 924.132 372.176 924.669 372.077 924.743Z" fill="black"/>
<path d="M390.385 918.914C390.501 919.136 390.072 919.691 389.347 919.987C388.622 920.283 387.979 920.172 387.946 919.987C387.913 919.802 388.424 919.414 389.05 919.155C389.677 918.895 390.253 918.692 390.385 918.914Z" fill="black"/>
<path d="M390.023 917.378C390.023 917.656 389.364 917.878 388.507 917.896C387.65 917.915 386.991 917.693 387.007 917.434C387.023 917.174 387.683 916.934 388.507 916.915C389.331 916.897 390.023 917.119 390.023 917.378Z" fill="black"/>
<path d="M482.931 448.806C482.272 448.047 480.641 448.417 480.641 448.417C480.804 447.352 480.804 446.263 480.641 445.197C480.344 444.161 478.268 444.365 478.268 444.365C478.172 443.492 478.172 442.61 478.268 441.737C478.284 441.543 478.247 441.349 478.162 441.18C478.076 441.011 477.946 440.876 477.79 440.793C476.808 440.343 475.752 440.129 474.692 440.164C473.423 439.146 478.564 431.059 480.476 428.469C482.388 425.878 482.042 423.861 480.344 423.861C479.174 423.861 473.176 431.633 471.33 434.242C469.485 436.852 464.59 444.106 464.425 438.313C464.261 432.521 462.184 428.154 460.882 427.414C459.581 426.674 458.196 428.413 458.905 430.023C459.528 431.852 459.916 433.771 460.059 435.723C460.238 437.277 460.176 438.855 459.877 440.386C459.331 443.235 458.587 446.032 457.653 448.75H457.521C457.521 448.75 421.564 487.482 418.96 490.239C416.636 492.719 369.902 487.297 360.525 486.187C357.339 485.663 354.122 485.416 350.902 485.446C346.831 485.65 346.106 486.298 342.052 486.353C331.815 486.481 321.601 487.489 311.5 489.369C306.927 490.243 302.655 492.51 299.15 495.923C295.645 499.336 293.043 503.765 291.627 508.726C282.184 541.85 260.794 620.257 257.021 664.3C254.169 670.107 251.595 676.08 249.308 682.194C246.655 690.3 247.298 690.577 248.188 690.762C250.594 691.262 253.329 676.717 254.351 680.233C255.373 683.749 249.16 697.572 251.681 697.979C254.977 698.498 257.597 683.175 257.91 681.954C258.224 680.732 259.855 681.121 259.558 682.268C259.08 683.897 254.45 701.162 257.68 701.717C259.459 702.014 259.657 698.368 259.657 698.368C259.657 698.368 262.953 681.843 264.453 682.176C265.952 682.509 264.354 692.261 263.596 695.518C262.838 698.775 263.892 700.422 265.441 699.626C266.496 699.071 269.017 689.171 269.709 685.951C270.402 682.731 272.132 673.812 274.455 678.974C276.779 684.137 280.305 687.135 281.756 687.209C282.082 687.167 282.39 687.016 282.64 686.775C282.89 686.535 283.069 686.216 283.156 685.86C283.243 685.503 283.233 685.126 283.127 684.776C283.022 684.426 282.825 684.12 282.563 683.897C281.316 682.529 280.245 680.972 279.383 679.271C278.614 677.945 278.056 676.48 277.735 674.94C277.071 671.871 276.684 668.733 276.581 665.577L276.318 663.726C280.009 643.204 290.638 582.969 305.98 544.497L312.275 559.042L315.01 569.812L298.235 616.316L369.786 615.261L359.108 569.109L372.077 520.995C386.101 521.347 422.107 521.939 428.106 518.885C435.653 515.184 474.692 459.817 474.692 459.817C477.237 457.596 479.674 455.224 481.992 452.711C481.992 452.711 484.365 450.471 482.931 448.806Z" fill="#FFBE9D"/>
<path d="M295.087 581.951C297.163 573.994 307.825 534.652 307.825 534.652C307.825 534.652 313.066 566.722 311.682 570.589C310.408 573.9 308.904 577.093 307.183 580.138C295.087 600.808 296.669 611.153 296.669 611.153L369.754 608.654C369.918 597.181 363.871 570.497 362.618 566.24C361.366 561.984 365.535 548.05 365.535 548.05C365.535 548.05 373.774 538.631 373.478 533.782C373.321 529.427 372.842 525.094 372.044 520.828L416.537 522.679L415.137 488.814L351.231 481.634C349.006 488.685 328.886 485.224 328.886 485.224C307.166 486.039 305.815 490.517 296.784 498.4C287.754 506.283 272.807 573.939 272.807 573.939L295.087 581.951Z" fill="#84CC16"/>
<path d="M338.295 573.939C337.029 574.193 335.739 574.268 334.456 574.161C332.066 574.161 328.787 573.976 325.178 573.569C321.569 573.162 318.306 572.588 315.983 572.07C314.701 571.885 313.445 571.524 312.242 570.997C313.53 570.997 314.816 571.133 316.081 571.404C318.421 571.737 321.668 572.199 325.26 572.607C328.853 573.014 332.115 573.291 334.472 573.476C335.757 573.495 337.037 573.649 338.295 573.939Z" fill="black"/>
<path d="M343.305 566.962C342.038 567.659 340.698 568.175 339.317 568.498C332.742 570.438 325.959 571.341 319.163 571.182C317.757 571.233 316.35 571.084 314.977 570.737C316.365 570.541 317.764 570.46 319.163 570.497C321.75 570.404 325.31 570.201 329.232 569.683C333.154 569.165 336.647 568.424 339.119 567.832C340.492 567.42 341.891 567.13 343.305 566.962Z" fill="black"/>
<path d="M367.891 535.836C367.858 537.247 367.687 538.65 367.381 540.019C366.952 542.591 366.293 546.107 365.453 549.956C364.612 553.805 363.805 557.358 363.08 559.764C362.788 561.141 362.357 562.476 361.794 563.742C361.886 562.336 362.118 560.945 362.486 559.597C363.113 556.71 363.821 553.379 364.612 549.734C365.403 546.088 366.161 542.757 366.787 539.871C367.01 538.481 367.381 537.127 367.891 535.836Z" fill="black"/>
<path d="M295.862 577.233C292.049 576.572 288.287 575.588 284.606 574.29C280.846 573.303 277.155 572.004 273.566 570.404C277.376 571.076 281.138 572.06 284.821 573.347C288.582 574.331 292.273 575.63 295.862 577.233Z" fill="black"/>
<path d="M372.835 520.422C372.213 520.542 371.578 520.542 370.956 520.422C369.235 520.223 367.545 519.769 365.93 519.071C363.235 517.933 360.78 516.175 358.726 513.909C356.671 511.643 355.061 508.92 354 505.913C352.826 502.607 352.325 499.047 352.533 495.495C352.606 492.565 353.387 489.713 354.791 487.242C355.778 485.577 357.253 484.353 358.96 483.781C359.416 483.64 359.887 483.571 360.36 483.578C360.69 483.578 360.855 483.578 360.855 483.578C360.855 483.578 360.163 483.578 359.059 484.077C357.493 484.727 356.165 485.945 355.285 487.538C353.044 491.498 352.418 498.733 354.807 505.488C355.919 508.673 357.66 511.532 359.899 513.852C361.734 515.75 363.846 517.278 366.145 518.367C368.301 519.325 370.545 520.013 372.835 520.422Z" fill="black"/>
<path d="M411.248 522.013C410.835 516.338 410.703 510.642 410.852 504.951C410.723 499.265 410.877 493.575 411.314 487.908C411.726 493.576 411.858 499.266 411.709 504.951C411.848 510.644 411.694 516.34 411.248 522.013Z" fill="black"/>
<path d="M350.803 483.707C350.984 479.58 351.363 474.917 351.363 474.917C351.363 474.917 360.459 473.788 361.003 463.24C361.547 452.692 361.003 428.358 361.003 428.358L344.524 418.883L326.232 435.038L329.05 487.778L345.826 488.981C347.108 489.021 348.352 488.488 349.285 487.499C350.218 486.51 350.764 485.147 350.803 483.707Z" fill="#FFBE9D"/>
<path d="M352.434 454.894C352.434 454.894 352.434 455.098 352.286 455.338C352.163 455.513 352.005 455.651 351.824 455.742C351.643 455.832 351.445 455.871 351.248 455.857C350.193 455.857 349.171 454.487 348.809 452.896C348.636 452.124 348.636 451.317 348.809 450.546C348.843 450.209 348.951 449.887 349.123 449.609C349.296 449.331 349.528 449.106 349.797 448.954C350.019 448.851 350.268 448.851 350.49 448.954C350.654 449.046 350.787 449.195 350.869 449.38C350.984 449.694 350.869 449.898 350.869 449.879C350.869 449.861 350.869 449.694 350.704 449.509C350.618 449.377 350.491 449.285 350.348 449.25C350.205 449.216 350.056 449.242 349.929 449.324C349.727 449.461 349.559 449.654 349.441 449.884C349.323 450.113 349.258 450.373 349.254 450.638C349.115 451.326 349.115 452.041 349.254 452.729C349.583 454.173 350.473 455.338 351.264 455.449C351.419 455.473 351.576 455.46 351.726 455.413C351.877 455.365 352.017 455.283 352.137 455.172C352.335 455.024 352.401 454.876 352.434 454.894Z" fill="#EB996E"/>
<path d="M366.655 422.658C365.387 417.81 360.789 415.404 356.603 414.072C350.226 412.036 343.338 411.148 337.109 413.72C330.879 416.292 323.398 420.807 323.398 428.524C319.723 428.191 317.614 431.8 316.164 436.278C315.237 439.006 314.681 441.876 314.516 444.79C314.054 454.894 311.533 468.847 305.7 476.249C302.404 480.376 297.839 483.226 295.96 488.37C294.313 492.83 295.169 498.122 293.637 502.638C292.269 506.616 289.253 509.448 287.045 512.908C284.796 516.834 283.472 521.337 283.198 525.996C282.924 530.654 283.709 535.314 285.48 539.537C287.263 543.653 289.774 547.317 292.859 550.308C295.944 553.298 299.539 555.552 303.425 556.932C311.123 559.562 319.331 559.652 327.073 557.191C332.883 555.631 338.303 552.613 342.926 548.364C347.656 544.027 350.904 537.986 352.121 531.265C353.291 523.715 351.412 516.036 350.012 508.522C345.628 484.78 346.881 483.54 352.418 461.501C352.549 461.112 352.615 460.705 352.714 460.316C352.813 459.928 352.862 459.743 352.928 459.446C353.086 458.575 353.168 457.689 353.176 456.8C352.367 457.138 351.489 457.209 350.645 457.006C349.802 456.803 349.027 456.333 348.413 455.653C347.798 454.927 347.368 454.028 347.171 453.051C346.974 452.073 347.016 451.054 347.293 450.101C347.681 449.059 348.261 448.121 348.993 447.346C349.726 446.571 350.595 445.978 351.544 445.605C353.373 444.753 355.334 444.309 357.131 443.365C360.937 441.33 363.574 437.111 365.37 432.688C366.847 429.623 367.303 426.067 366.655 422.658Z" fill="black"/>
<path d="M353.093 455.394C353.441 455.972 353.729 456.593 353.95 457.245C354.445 458.41 355.104 460.057 355.829 461.963L355.961 462.315H355.615L353.967 462.482C352.83 462.482 351.874 462.722 350.753 462.704C350.656 462.679 350.565 462.627 350.49 462.553C350.415 462.478 350.358 462.384 350.325 462.278C350.276 462.11 350.276 461.928 350.325 461.76C350.363 461.51 350.412 461.263 350.473 461.02L350.77 459.706C350.919 458.829 351.151 457.973 351.462 457.152C351.431 458.045 351.315 458.933 351.116 459.798L350.885 461.112C350.803 461.556 350.654 462.241 350.885 462.185C351.709 462.185 352.879 461.982 353.967 461.908L355.615 461.741L355.4 462.148C354.692 460.298 354.098 458.558 353.752 457.356C353.449 456.741 353.227 456.08 353.093 455.394Z" fill="#84CC16"/>
<path d="M296.669 611.153L369.754 608.655L401.558 748.073L395.708 907.996H357.065L361.794 751.478L333.533 654.418L337.883 914.195L298.828 914.843L294.725 670.666C294.543 663.874 292.566 648.571 293.307 641.835L296.669 611.153Z" fill="black"/>
<path d="M343.255 656.398C342.059 656.483 340.858 656.402 339.679 656.157C337.471 655.861 334.455 655.343 331.143 654.603C327.831 653.863 324.865 653.012 322.722 652.327C321.577 652.044 320.469 651.596 319.427 650.994C319.427 650.717 324.799 652.16 331.39 653.659C337.982 655.158 343.288 656.12 343.255 656.398Z" fill="#455A64"/>
<path d="M395.312 899.224C395.312 899.483 386.562 899.705 375.768 899.705C364.975 899.705 356.208 899.483 356.208 899.224C356.208 898.965 364.958 898.743 375.768 898.743C386.579 898.743 395.312 898.947 395.312 899.224Z" fill="#455A64"/>
<path d="M337.537 907.441C337.537 907.718 329.034 907.922 318.553 907.922C308.073 907.922 299.586 907.718 299.586 907.441C299.586 907.163 308.089 906.959 318.553 906.959C329.017 906.959 337.537 907.182 337.537 907.441Z" fill="#455A64"/>
<path d="M332.494 906.775C332.264 906.775 331.242 850.019 330.204 780.013C329.166 710.008 328.556 653.215 328.77 653.215C328.984 653.215 330.039 709.953 331.061 779.995C332.083 850.037 332.742 906.775 332.494 906.775Z" fill="#455A64"/>
<path d="M390.122 899.224C390.103 898.972 390.103 898.718 390.122 898.466V896.245C390.122 894.246 390.253 891.378 390.352 887.733C390.583 880.33 390.913 869.579 391.324 856.403C392.214 829.904 393.467 793.374 394.835 753.051C394.835 752.663 394.835 752.293 394.835 751.959V752.089C386.183 713.228 378.356 677.957 372.67 652.438L366.079 622.256C365.321 618.721 364.744 615.964 364.332 614.04C364.134 613.133 364.002 612.43 363.887 611.893C363.823 611.652 363.784 611.404 363.772 611.153C363.857 611.386 363.923 611.628 363.969 611.875C364.101 612.393 364.266 613.096 364.497 613.984C364.942 615.835 365.584 618.647 366.408 622.163C368.056 629.306 370.38 639.595 373.28 652.272C379.015 677.772 386.925 712.95 395.691 751.867V751.996C395.691 752.33 395.691 752.718 395.691 753.088C394.225 793.411 392.89 829.922 391.918 856.422C391.407 869.616 390.978 880.293 390.682 887.733C390.517 891.434 390.385 894.246 390.303 896.245C390.303 897.189 390.204 897.929 390.187 898.466C390.19 898.72 390.168 898.975 390.122 899.224Z" fill="#455A64"/>
<path d="M377.515 748.703C374.739 749.727 371.88 750.44 368.979 750.831C365.42 751.515 362.387 751.997 361.02 752.071V751.7C361.465 751.849 361.695 751.941 361.695 752.015C361.695 752.089 361.415 752.015 360.954 752.015H359.965L360.954 751.682C362.239 751.256 365.271 750.553 368.831 749.831C371.685 749.136 374.594 748.758 377.515 748.703Z" fill="#455A64"/>
<path d="M376.84 754.013C374.269 754.146 371.693 754.016 369.144 753.625C366.57 753.566 364.005 753.25 361.481 752.681C366.631 752.209 371.815 752.659 376.84 754.013Z" fill="#455A64"/>
<path opacity="0.2" d="M296.356 614.095C297.222 615.343 298.312 616.373 299.555 617.115C300.799 617.858 302.168 618.299 303.574 618.407C306.517 618.799 309.495 618.736 312.423 618.222C331.291 615.872 351.281 613.707 369.753 608.655C345.842 610.154 320.58 609.654 296.669 611.153L296.422 613.448" fill="black"/>
<g opacity="0.2">
<path d="M320.992 651.938L334.472 710.674L333.533 654.418L320.992 651.938Z" fill="black"/>
</g>
</svg>
